<?xml version="1.0" encoding="UTF-8" standalone="no"?>
<!-- Created with Inkscape (http://www.inkscape.org/) -->
<svg
   xmlns:dc="http://purl.org/dc/elements/1.1/"
   xmlns:cc="http://creativecommons.org/ns#"
   xmlns:rdf="http://www.w3.org/1999/02/22-rdf-syntax-ns#"
   xmlns:svg="http://www.w3.org/2000/svg"
   xmlns="http://www.w3.org/2000/svg"
   xmlns:sodipodi="http://sodipodi.sourceforge.net/DTD/sodipodi-0.dtd"
   xmlns:inkscape="http://www.inkscape.org/namespaces/inkscape"
   width="506"
   height="100"
   id="svg3263"
   sodipodi:version="0.32"
   inkscape:version="0.46"
   version="1.0"
   sodipodi:docname="about.svg"
   inkscape:output_extension="org.inkscape.output.svg.inkscape"
   inkscape:export-filename="C:\Projects\SQLiteWebSite\Tests\Test2\Images\about1.png"
   inkscape:export-xdpi="90"
   inkscape:export-ydpi="90">
  <defs
     id="defs3265">
    <inkscape:perspective
       sodipodi:type="inkscape:persp3d"
       inkscape:vp_x="0 : 526.18109 : 1"
       inkscape:vp_y="0 : 1000 : 0"
       inkscape:vp_z="744.09448 : 526.18109 : 1"
       inkscape:persp3d-origin="372.04724 : 350.78739 : 1"
       id="perspective3271" />
    <inkscape:perspective
       id="perspective7402"
       inkscape:persp3d-origin="372.04724 : 350.78739 : 1"
       inkscape:vp_z="744.09448 : 526.18109 : 1"
       inkscape:vp_y="0 : 1000 : 0"
       inkscape:vp_x="0 : 526.18109 : 1"
       sodipodi:type="inkscape:persp3d" />
  </defs>
  <sodipodi:namedview
     id="base"
     pagecolor="#ffffff"
     bordercolor="#666666"
     borderopacity="1.0"
     gridtolerance="10000"
     guidetolerance="10"
     objecttolerance="10"
     inkscape:pageopacity="0.0"
     inkscape:pageshadow="2"
     inkscape:zoom="3.1304348"
     inkscape:cx="253"
     inkscape:cy="50"
     inkscape:document-units="px"
     inkscape:current-layer="layer1"
     showgrid="false"
     inkscape:window-width="1680"
     inkscape:window-height="1024"
     inkscape:window-x="0"
     inkscape:window-y="168" />
  <metadata
     id="metadata3268">
    <rdf:RDF>
      <cc:Work
         rdf:about="">
        <dc:format>image/svg+xml</dc:format>
        <dc:type
           rdf:resource="http://purl.org/dc/dcmitype/StillImage" />
      </cc:Work>
    </rdf:RDF>
  </metadata>
  <g
     inkscape:label="Layer 1"
     inkscape:groupmode="layer"
     id="layer1">
    <rect
       style="opacity:1;fill:#ffffff;fill-opacity:1;stroke:none;stroke-width:50;stroke-miterlimit:4;stroke-dasharray:none;stroke-opacity:1"
       id="rect2467"
       width="505.5224"
       height="99.387779"
       x="0.45176226"
       y="0.61221385" />
    <path
       style="opacity:1;fill:#d4aa00;stroke:none;stroke-width:4.48199987;stroke-miterlimit:4;stroke-dasharray:none;stroke-opacity:1"
       d="M 54.234636,90.758813 C 54.411726,85.983673 54.456676,85.894073 61.333486,76.608333 C 65.139836,71.468623 69.484346,65.857466 70.987956,64.139085 C 72.961136,61.884052 73.299826,61.184487 72.205216,61.624755 C 70.379456,62.359109 69.492946,59.913727 70.798156,57.743507 C 71.747406,56.165187 75.199276,55.88391 75.782816,57.337322 C 75.988726,57.850152 79.589796,55.144312 83.785236,51.324336 C 91.566256,44.239655 102.26817,36.245499 108.32593,32.992841 C 110.18084,31.996863 111.17408,31.150434 110.53313,31.111891 C 109.75667,31.065204 109.38422,30.270725 109.41709,28.731234 C 109.45211,27.090918 110.46395,25.364501 112.90514,22.779867 C 114.79645,20.777432 116.06655,18.997758 115.72761,18.825017 C 115.38867,18.652276 113.33552,19.383237 111.16507,20.449368 C 106.14806,22.91373 104.37356,22.863947 105.24011,21.37306 C 108.23758,16.215952 124.00763,9.0749573 123.51393,13.098643 C 123.18462,15.782468 124.0718,18.179594 119.54701,22.726731 C 117.111,25.174772 114.34849,28.080625 113.40811,29.184187 L 111.69832,31.190645 L 113.37945,30.526568 C 119.1098,28.262988 118.50748,31.091479 112.26782,35.746845 C 109.01319,38.175106 107.56959,39.649341 108.65504,39.436312 C 110.96809,38.982345 111.72123,41.449453 109.60915,42.561731 C 95.601216,49.938676 83.458996,61.715385 71.820656,79.212703 C 63.513806,91.701443 59.815286,95.687283 56.597516,95.618603 L 54.056436,95.564323 L 54.234636,90.758813 z M 77.999206,73.229473 C 77.762436,72.251513 78.102376,71.134803 78.875826,70.349503 C 82.638656,69.068418 84.428286,69.686405 88.594926,67.077531 C 91.757116,64.970364 96.010386,62.509124 98.04665,61.608106 C 100.08289,60.707087 101.22457,59.935315 100.58369,59.89305 C 98.87205,59.780181 99.17466,58.671065 101.6688,55.915907 C 104.49599,52.792843 106.59629,51.242982 109.9676,49.792007 C 111.77598,49.013699 112.16774,48.601749 111.16127,48.536837 C 110.12183,48.4698 109.6757,47.848751 109.70432,46.508643 C 109.74098,44.791687 110.18987,44.586552 113.74442,44.662446 C 116.82667,44.72825 117.75027,44.420902 117.77374,43.3216 C 117.84373,40.043204 131.31445,28.385825 138.95425,24.992263 C 140.31613,24.387321 143.26542,22.245794 145.50824,20.233325 C 148.63012,17.432068 149.64981,15.95458 149.85794,13.930775 C 150.33081,9.3328373 151.82404,10.009694 151.72228,14.775846 C 151.60187,20.415683 149.56417,23.031011 142.18206,27.020467 C 139.05972,28.707849 132.58489,33.346206 127.79356,37.32792 C 120.04098,43.770509 119.26869,44.639829 120.77757,45.225371 C 123.19828,46.164759 122.66388,49.828329 119.94496,50.933414 C 114.83673,53.00962 102.08014,59.201977 102.28157,59.507642 C 102.40534,59.695443 103.54358,59.443873 104.811,58.948596 C 106.07842,58.453322 108.46577,58.134162 110.11624,58.23936 L 109.59201,58.893666 C 104.56323,60.208031 100.60638,64.734566 93.045206,69.962347 C 87.867196,73.734953 80.138986,75.655133 77.999206,73.229473 z M 65.649726,55.65865 C 64.582176,54.527795 64.221316,53.15189 64.279366,50.433448 C 64.369806,46.196796 65.122206,45.086927 68.438336,44.298348 C 71.439956,43.58456 79.918786,37.997292 81.174026,35.905942 C 82.732466,33.309421 86.629036,34.233522 86.566036,37.184703 C 86.511786,39.724746 81.328976,51.217059 80.248096,51.193984 C 78.636156,51.159566 78.782446,46.800731 80.502986,43.599188 L 82.091136,40.644 L 80.276346,42.625608 C 79.278226,43.715492 76.253496,45.555399 73.554706,46.714296 C 70.855946,47.873193 68.375676,49.155976 68.043016,49.564928 C 67.710346,49.973884 68.253706,51.370684 69.250466,52.66893 C 70.298126,54.033491 70.850376,55.499275 70.559386,56.143115 C 69.848586,57.715808 67.359916,57.470234 65.649726,55.65865 z M 90.229916,42.550017 C 89.496756,41.437531 89.877696,37.964363 90.946176,36.019639 C 92.547486,33.105172 92.179626,32.424503 89.889916,34.065159 C 88.366876,35.156476 87.584936,35.279449 87.076286,34.507641 C 85.552656,32.19568 96.978516,22.081254 101.0165,22.16747 C 104.32571,22.23812 104.04024,24.83841 100.2135,29.481919 C 98.30993,31.791782 95.784426,35.832654 94.601266,38.461624 C 92.601466,42.905161 91.279056,44.141978 90.229916,42.550017 z M 120.12811,26.740274 C 120.15847,25.317961 121.22067,24.397513 124.71372,22.766577 C 127.21407,21.599137 130.07943,20.194102 131.08118,19.644264 C 132.24518,19.005383 133.39454,18.977786 134.26565,19.567785 C 135.43557,20.360174 134.78886,21.000392 129.70203,24.085601 C 122.13329,28.676113 120.07458,29.246958 120.12811,26.740274 z M 123.48585,11.107495 C 122.8914,9.6268833 124.13307,7.6775483 126.55088,6.2956443 C 129.35073,4.6953563 140.21167,5.7322553 143.46976,7.9108933 C 144.88116,8.8546663 145.86303,9.8663113 145.65169,10.158983 C 145.44036,10.451656 141.41236,10.744305 136.70057,10.809315 C 131.98879,10.874325 127.1887,11.218996 126.0337,11.575233 C 124.69394,11.988466 123.77156,11.819133 123.48585,11.107495 z"
       id="path3225"
       sodipodi:nodetypes="cssssssssssssssscccssssccccccsssssssssssssssssscccccssssscccssssccssssssccssssccsssssc" />
    <text
       xml:space="preserve"
       style="font-size:22.13651848px;font-style:normal;font-variant:normal;font-weight:normal;font-stretch:normal;fill:#aa4400;fill-opacity:1;stroke:none;stroke-width:1px;stroke-linecap:butt;stroke-linejoin:miter;stroke-opacity:1;font-family:Bauhaus 93;-inkscape-font-specification:'Bauhaus 93,'"
       x="132.91492"
       y="68.137428"
       id="text3270"><tspan
         sodipodi:role="line"
         id="tspan3272"
         x="132.91492"
         y="68.137428"
         style="font-size:44.27303696px;fill:#aa4400">SQLite Compare</tspan></text>
  </g>
</svg>
