<?xml version="1.0" encoding="UTF-8" standalone="no"?>
<!-- Created with Inkscape (http://www.inkscape.org/) -->
<svg
   xmlns:dc="http://purl.org/dc/elements/1.1/"
   xmlns:cc="http://creativecommons.org/ns#"
   xmlns:rdf="http://www.w3.org/1999/02/22-rdf-syntax-ns#"
   xmlns:svg="http://www.w3.org/2000/svg"
   xmlns="http://www.w3.org/2000/svg"
   xmlns:xlink="http://www.w3.org/1999/xlink"
   xmlns:sodipodi="http://sodipodi.sourceforge.net/DTD/sodipodi-0.dtd"
   xmlns:inkscape="http://www.inkscape.org/namespaces/inkscape"
   width="48"
   height="48"
   id="svg2"
   sodipodi:version="0.32"
   inkscape:version="0.46"
   version="1.0"
   sodipodi:docname="app.svg"
   inkscape:output_extension="org.inkscape.output.svg.inkscape"
   inkscape:export-filename="C:\Projects\TEMP\appicon48x48.png"
   inkscape:export-xdpi="90"
   inkscape:export-ydpi="90">
  <defs
     id="defs4">
    <linearGradient
       id="linearGradient3242">
      <stop
         style="stop-color:#800000;stop-opacity:1;"
         offset="0"
         id="stop3244" />
      <stop
         style="stop-color:#fffff6;stop-opacity:1;"
         offset="1"
         id="stop3246" />
    </linearGradient>
    <inkscape:perspective
       sodipodi:type="inkscape:persp3d"
       inkscape:vp_x="0 : 526.18109 : 1"
       inkscape:vp_y="0 : 1000 : 0"
       inkscape:vp_z="744.09448 : 526.18109 : 1"
       inkscape:persp3d-origin="372.04724 : 350.78739 : 1"
       id="perspective10" />
    <inkscape:perspective
       id="perspective3291"
       inkscape:persp3d-origin="16 : 10.666667 : 1"
       inkscape:vp_z="32 : 16 : 1"
       inkscape:vp_y="0 : 1000 : 0"
       inkscape:vp_x="0 : 16 : 1"
       sodipodi:type="inkscape:persp3d" />
    <linearGradient
       inkscape:collect="always"
       xlink:href="#linearGradient3242"
       id="linearGradient3248"
       x1="23"
       y1="24"
       x2="68"
       y2="51"
       gradientUnits="userSpaceOnUse"
       gradientTransform="matrix(0.9166667,0,0,0.9166667,2,2)" />
  </defs>
  <sodipodi:namedview
     id="base"
     pagecolor="#ffffff"
     bordercolor="#666666"
     borderopacity="1.0"
     gridtolerance="10000"
     guidetolerance="10"
     objecttolerance="4"
     inkscape:pageopacity="0.0"
     inkscape:pageshadow="2"
     inkscape:zoom="12.065009"
     inkscape:cx="12.28191"
     inkscape:cy="20.96801"
     inkscape:document-units="px"
     inkscape:current-layer="layer1"
     showgrid="true"
     inkscape:window-width="1680"
     inkscape:window-height="1024"
     inkscape:window-x="-4"
     inkscape:window-y="164"
     inkscape:snap-bbox="true"
     inkscape:bbox-paths="true"
     inkscape:bbox-nodes="true">
    <inkscape:grid
       type="xygrid"
       id="grid3234"
       visible="true"
       enabled="true" />
  </sodipodi:namedview>
  <metadata
     id="metadata7">
    <rdf:RDF>
      <cc:Work
         rdf:about="">
        <dc:format>image/svg+xml</dc:format>
        <dc:type
           rdf:resource="http://purl.org/dc/dcmitype/StillImage" />
      </cc:Work>
    </rdf:RDF>
  </metadata>
  <g
     inkscape:label="Layer 1"
     inkscape:groupmode="layer"
     id="layer1">
    <rect
       y="1.2094343e-15"
       x="0"
       height="48"
       width="48"
       id="rect3250"
       style="fill:#550000;fill-opacity:1;fill-rule:evenodd;stroke:none;stroke-width:1.02151287px;stroke-linecap:butt;stroke-linejoin:miter;stroke-opacity:1" />
    <rect
       style="fill:url(#linearGradient3248);fill-opacity:1;fill-rule:evenodd;stroke:none;stroke-width:1.02151287px;stroke-linecap:butt;stroke-linejoin:miter;stroke-opacity:1"
       id="rect3240"
       width="44"
       height="44"
       x="2"
       y="2" />
    <path
       style="fill:#ffcd05;fill-opacity:1;stroke:none;stroke-width:0.06986314;stroke-opacity:1"
       d="M 3.0324924,42.793151 C 3.0647643,40.600269 3.0832592,40.558711 5.953113,36.230419 C 7.5415862,33.834679 9.3569901,31.217341 9.9873388,30.414102 C 10.814551,29.360014 10.953675,29.035682 10.487346,29.248434 C 9.7095338,29.603292 9.3061545,28.489872 9.8471128,27.48124 C 10.240528,26.747703 11.72126,26.584818 11.985347,27.246028 C 12.07853,27.479325 13.601127,26.202427 15.368905,24.408465 C 18.647498,21.081305 23.17288,17.308195 25.746126,15.756315 C 26.534071,15.281122 26.953106,14.882986 26.677328,14.871585 C 26.343247,14.857766 26.175918,14.496852 26.175918,13.790112 C 26.175918,13.037079 26.594872,12.234977 27.620171,11.025051 C 28.41451,10.087674 28.943957,9.258594 28.796727,9.182651 C 28.649495,9.10671 27.773946,9.462238 26.851052,9.972712 C 24.717804,11.152675 23.954825,11.147224 24.313512,10.454612 C 25.55425,8.0588134 32.26529,4.6275476 32.090052,6.4787222 C 31.973175,7.7134695 32.376396,8.8047397 30.473761,10.9356 C 29.449442,12.082792 28.289024,13.443262 27.895056,13.958856 L 27.17875,14.89631 L 27.895056,14.575118 C 30.336685,13.480289 30.103805,14.784088 27.465265,16.981414 C 26.088995,18.127548 25.48219,18.818174 25.946661,18.709784 C 26.936438,18.478818 27.282711,19.603512 26.385334,20.13459 C 20.433651,23.656861 15.324059,29.179772 10.483463,37.322732 C 7.0284855,43.134782 5.4757647,45 4.092422,45 L 3,45 L 3.0324924,42.793151 z M 13.08355,34.516696 C 12.972845,34.07026 13.108666,33.554509 13.433835,33.186588 C 15.038998,32.561871 15.8137,32.827911 17.580213,31.589965 C 18.919702,30.592071 20.7248,29.421019 21.591541,28.987623 C 22.458269,28.55423 22.941779,28.188905 22.666,28.175785 C 21.929454,28.140768 22.049311,27.628866 23.095792,26.340179 C 24.282011,24.879402 25.170316,24.147645 26.6057,23.448814 C 27.375632,23.073964 27.540205,22.881086 27.107109,22.861165 C 26.659836,22.84059 26.462432,22.559982 26.462432,21.944761 C 26.462432,21.156548 26.653455,21.058029 28.181581,21.058029 C 29.506651,21.058029 29.900721,20.907944 29.900721,20.403282 C 29.900721,18.898247 35.582277,13.417088 38.834048,11.785041 C 39.41372,11.494112 40.661412,10.482544 41.606714,9.537111 C 42.922523,8.2211251 43.347137,7.5331682 43.418003,6.6024699 C 43.579013,4.4879874 44.226882,4.7839504 44.226882,6.9719735 C 44.226882,9.561097 43.375264,10.781141 40.239689,12.684097 C 38.913464,13.488967 36.173709,15.680792 34.15136,17.554815 C 30.879097,20.587062 30.555213,20.993527 31.208963,21.247428 C 32.257784,21.654766 32.061763,23.341093 30.903552,23.874823 C 28.727537,24.877565 23.302702,27.844017 23.392061,27.982305 C 23.446973,28.067264 23.933782,27.940679 24.473859,27.700988 C 25.013932,27.461306 26.036884,27.291471 26.74707,27.323573 L 26.5278,27.628943 C 24.378948,28.281329 22.72017,30.397172 19.519015,32.870109 C 17.328578,34.651961 14.025299,35.608783 13.08355,34.516696 z M 7.6156437,26.575012 C 7.1465252,26.066559 6.9788451,25.438733 6.9788451,24.190768 C 6.9788451,22.245816 7.2919705,21.729163 8.709713,21.334818 C 9.9929988,20.977879 13.585181,18.330997 14.105376,17.359053 C 14.75125,16.152322 16.434113,16.538183 16.434113,17.893004 C 16.434113,19.059082 14.312436,24.383304 13.847762,24.383304 C 13.154778,24.383304 13.177647,22.381741 13.887611,20.895805 L 14.542936,19.524209 L 13.781293,20.451282 C 13.362388,20.961174 12.079504,21.835076 10.930444,22.393297 C 9.7813838,22.951519 8.7273535,23.564437 8.5881606,23.755362 C 8.4489573,23.946274 8.695262,24.581895 9.135492,25.167853 C 9.5982078,25.783736 9.8489588,26.450923 9.7298248,26.749218 C 9.4388143,27.477838 8.3671531,27.389534 7.6156437,26.575012 z M 18.05775,20.31908 C 17.732502,19.815778 17.864328,18.218319 18.305632,17.315483 C 18.966987,15.96244 18.802666,15.653706 17.833812,16.428985 C 17.189354,16.944677 16.854472,17.008762 16.628819,16.659588 C 15.952883,15.613637 20.769908,10.860513 22.505865,10.860513 C 23.928515,10.860513 23.82971,12.056504 22.22792,14.224751 C 21.431123,15.303319 20.382963,17.182279 19.898663,18.400223 C 19.080099,20.458806 18.523187,21.039292 18.05775,20.31908 z M 30.760283,12.771595 C 30.760283,12.118634 31.20828,11.685871 32.694319,10.903266 C 33.758032,10.343071 34.976424,9.670276 35.401841,9.408154 C 35.896167,9.103589 36.3898,9.079663 36.769539,9.341863 C 37.27954,9.694008 37.007516,9.994112 34.849954,11.459649 C 31.639698,13.640239 30.760283,13.922343 30.760283,12.771595 z M 32.059726,5.5653223 C 31.790703,4.8917499 32.306372,3.9850944 33.332655,3.3272955 C 34.521103,2.5655457 39.197678,2.9349428 40.617701,3.9027287 C 41.232855,4.3219633 41.664054,4.7765544 41.575926,4.9129269 C 41.4878,5.0492897 39.759612,5.2230402 37.735503,5.2990402 C 35.711395,5.3750305 33.651904,5.5802113 33.158853,5.754992 C 32.586937,5.9577334 32.189026,5.8890709 32.059726,5.5653223 z"
       id="path3225"
       sodipodi:nodetypes="cssssssssssssssscccssssccccccsssssssssssssssssscccccssssscccssssccssssssccssssccsssssc"
       inkscape:export-filename="C:\Projects\TEMP\appicon.png"
       inkscape:export-xdpi="90"
       inkscape:export-ydpi="90" />
  </g>
</svg>
