<?xml version="1.0" encoding="UTF-8" standalone="no"?>
<!-- Created with Inkscape (http://www.inkscape.org/) -->
<svg
   xmlns:dc="http://purl.org/dc/elements/1.1/"
   xmlns:cc="http://creativecommons.org/ns#"
   xmlns:rdf="http://www.w3.org/1999/02/22-rdf-syntax-ns#"
   xmlns:svg="http://www.w3.org/2000/svg"
   xmlns="http://www.w3.org/2000/svg"
   xmlns:sodipodi="http://sodipodi.sourceforge.net/DTD/sodipodi-0.dtd"
   xmlns:inkscape="http://www.inkscape.org/namespaces/inkscape"
   width="32px"
   height="32px"
   id="svg3283"
   sodipodi:version="0.32"
   inkscape:version="0.46"
   sodipodi:docname="appicon.svg"
   inkscape:output_extension="org.inkscape.output.svg.inkscape">
  <defs
     id="defs3285">
    <inkscape:perspective
       sodipodi:type="inkscape:persp3d"
       inkscape:vp_x="0 : 16 : 1"
       inkscape:vp_y="0 : 1000 : 0"
       inkscape:vp_z="32 : 16 : 1"
       inkscape:persp3d-origin="16 : 10.666667 : 1"
       id="perspective3291" />
  </defs>
  <sodipodi:namedview
     id="base"
     pagecolor="#ffffff"
     bordercolor="#666666"
     borderopacity="1.0"
     inkscape:pageopacity="0.0"
     inkscape:pageshadow="2"
     inkscape:zoom="11.197802"
     inkscape:cx="2.8724237"
     inkscape:cy="16"
     inkscape:current-layer="layer1"
     showgrid="true"
     inkscape:grid-bbox="true"
     inkscape:document-units="px"
     inkscape:window-width="1280"
     inkscape:window-height="740"
     inkscape:window-x="1676"
     inkscape:window-y="164" />
  <metadata
     id="metadata3288">
    <rdf:RDF>
      <cc:Work
         rdf:about="">
        <dc:format>image/svg+xml</dc:format>
        <dc:type
           rdf:resource="http://purl.org/dc/dcmitype/StillImage" />
      </cc:Work>
    </rdf:RDF>
  </metadata>
  <g
     id="layer1"
     inkscape:label="Layer 1"
     inkscape:groupmode="layer">
    <rect
       style="opacity:1;fill:#ffffff;fill-opacity:1;stroke:none;stroke-width:50;stroke-miterlimit:4;stroke-dasharray:none;stroke-opacity:1"
       id="rect3314"
       width="32.059864"
       height="31.97056"
       x="0.089305095"
       y="0.029440165"
       inkscape:export-filename="C:\Projects\SQLiteWebSite\Tests\Test2\Images\appicon.png"
       inkscape:export-xdpi="90"
       inkscape:export-ydpi="90" />
    <path
       style="opacity:0.97000002;fill:#d4aa00;stroke:none;stroke-width:4.48199987;stroke-miterlimit:4;stroke-dasharray:none;stroke-opacity:1"
       d="M 0.13568102,30.267285 C 0.1940095,28.57207 0.20882159,28.540263 2.4741176,25.243747 C 3.7279688,23.419109 5.1590968,21.427101 5.6544049,20.81706 C 6.3043875,20.016505 6.4159593,19.768154 6.0553828,19.924453 C 5.4539549,20.185154 5.1619262,19.317024 5.5918803,18.546579 C 5.9045752,17.986261 7.0416537,17.886406 7.2338848,18.402379 C 7.301714,18.584439 8.487943,17.623843 9.8699651,16.267718 C 12.433119,13.752599 15.958439,10.914607 17.953935,9.7598874 C 18.56496,9.4063061 18.892149,9.1058167 18.681014,9.0921346 C 18.425235,9.0755604 18.302548,8.7935126 18.313372,8.2469806 C 18.324913,7.6646549 18.658223,7.0517621 19.462379,6.134196 C 20.085392,5.4233148 20.50378,4.7915161 20.39213,4.7301921 C 20.28048,4.6688671 19.604151,4.9283642 18.889177,5.3068498 C 17.236526,6.1817196 16.651982,6.1640456 16.937437,5.6347677 C 17.924829,3.803952 23.11966,1.2688402 22.957027,2.6972819 C 22.848551,3.6500609 23.140798,4.5010614 21.650281,6.1153318 C 20.847836,6.9844079 19.93783,8.0160094 19.628064,8.4077832 L 19.064842,9.120092 L 19.618621,8.8843386 C 21.506255,8.0807504 21.307852,9.0848875 19.252442,10.73758 C 18.180329,11.599634 17.704789,12.122999 18.062345,12.047372 C 18.824289,11.886209 19.07238,12.762055 18.376641,13.15692 C 13.762279,15.775798 9.7624994,19.956627 5.9287006,26.16832 C 3.1923372,30.601926 1.9740032,32.016931 0.91403574,31.99255 L 0.07697773,31.97328 L 0.13568102,30.267285 z M 7.9639821,24.044224 C 7.8859912,23.697041 7.9979709,23.300599 8.2527529,23.021811 C 9.4922712,22.567015 10.081794,22.786406 11.454335,21.860234 C 12.495986,21.112171 13.897063,20.238412 14.567829,19.918542 C 15.238587,19.598674 15.61467,19.324689 15.403559,19.309683 C 14.839728,19.269614 14.939409,18.875869 15.761,17.897765 C 16.692311,16.789052 17.384172,16.238837 18.494723,15.72373 C 19.090417,15.447424 19.219469,15.301179 18.887927,15.278134 C 18.545524,15.254336 18.398565,15.033858 18.407994,14.558108 C 18.420073,13.948576 18.567939,13.87575 19.738845,13.902694 C 20.75417,13.926054 21.058412,13.816943 21.066147,13.426681 C 21.089203,12.262823 25.5266,8.1243579 28.043238,6.919615 C 28.491851,6.7048561 29.463381,5.9445951 30.202189,5.2301529 C 31.230577,4.2356833 31.566471,3.7111628 31.635033,2.9926952 C 31.7908,1.3603894 32.282689,1.6006794 32.249161,3.2927026 C 32.209505,5.2948914 31.53826,6.223354 29.106509,7.6396443 C 28.077979,8.2386787 25.945102,9.8853342 24.366781,11.298874 C 21.812999,13.586048 21.558599,13.894663 22.055636,14.102536 C 22.853052,14.436027 22.677011,15.736623 21.781367,16.128938 C 20.098664,16.866008 15.896503,19.064347 15.962857,19.17286 C 16.003625,19.239531 16.37858,19.150221 16.79608,18.974395 C 17.21358,18.798568 17.999996,18.685263 18.543684,18.72261 L 18.370994,18.954893 C 16.714461,19.421504 15.411033,21.028462 12.920299,22.884367 C 11.21461,24.223673 8.668853,24.905354 7.9639821,24.044224 z M 3.8959322,17.806438 C 3.5442678,17.404974 3.4253963,16.916516 3.4445154,15.951446 C 3.4743143,14.4474 3.7221661,14.053386 4.81453,13.773435 C 5.8032948,13.520035 8.5963153,11.536508 9.0098055,10.794061 C 9.5231772,9.8722749 10.806742,10.200338 10.785991,11.248032 C 10.768124,12.149769 9.0608473,16.229634 8.704798,16.221443 C 8.1738034,16.209224 8.2219956,14.661801 8.7887603,13.525227 L 9.3119115,12.476112 L 8.7141047,13.179598 C 8.3853087,13.566516 7.3889274,14.219699 6.4999215,14.631117 C 5.6109148,15.042534 4.7938888,15.497934 4.6843053,15.643115 C 4.5747219,15.788297 4.753715,16.284173 5.0820516,16.745061 C 5.4271681,17.229492 5.6090818,17.749858 5.5132283,17.978425 C 5.2790813,18.536744 4.45929,18.449564 3.8959322,17.806438 z M 11.992912,13.152762 C 11.751401,12.75782 11.876886,11.524818 12.228854,10.834426 C 12.756345,9.7997651 12.635168,9.5581214 11.880913,10.140568 C 11.379213,10.527996 11.121626,10.571653 10.954071,10.297653 C 10.452177,9.4768876 14.215976,5.8861829 15.546128,5.9167911 C 16.636219,5.9418716 16.542179,6.8649968 15.281611,8.5134812 C 14.654556,9.3335002 13.822627,10.768043 13.432881,11.70135 C 12.77413,13.278843 12.338509,13.717923 11.992912,13.152762 z M 21.841697,7.5401741 C 21.851702,7.0352408 22.201606,6.7084736 23.352252,6.1294779 C 24.175897,5.7150269 25.119773,5.2162287 25.449761,5.0210316 C 25.833194,4.7942231 26.211807,4.784426 26.498765,4.9938808 C 26.884146,5.2751848 26.671112,5.5024679 24.995456,6.5977426 C 22.502229,8.227412 21.824067,8.4300667 21.841697,7.5401741 z M 22.947777,1.9904078 C 22.751958,1.4647785 23.16098,0.7727476 23.957429,0.28216082 C 24.879732,-0.2859547 28.457441,0.082153212 29.5307,0.85558664 C 29.995626,1.1906348 30.319066,1.5497766 30.24945,1.6536776 C 30.179832,1.7575784 28.852964,1.8614721 27.300849,1.8845506 C 25.748738,1.9076304 24.167536,2.0299906 23.78707,2.1564591 C 23.345738,2.3031593 23.041895,2.2430448 22.947777,1.9904078 z"
       id="path3225"
       sodipodi:nodetypes="cssssssssssssssscccssssccccccsssssssssssssssssscccccssssscccssssccssssssccssssccsssssc"
       inkscape:export-filename="C:\Projects\SQLiteWebSite\Tests\Test2\Images\appicon.png"
       inkscape:export-xdpi="90"
       inkscape:export-ydpi="90" />
  </g>
</svg>
