<?xml version="1.0" encoding="UTF-8" standalone="no"?>
<!-- Created with Inkscape (http://www.inkscape.org/) -->
<svg
   xmlns:dc="http://purl.org/dc/elements/1.1/"
   xmlns:cc="http://creativecommons.org/ns#"
   xmlns:rdf="http://www.w3.org/1999/02/22-rdf-syntax-ns#"
   xmlns:svg="http://www.w3.org/2000/svg"
   xmlns="http://www.w3.org/2000/svg"
   xmlns:xlink="http://www.w3.org/1999/xlink"
   xmlns:sodipodi="http://sodipodi.sourceforge.net/DTD/sodipodi-0.dtd"
   xmlns:inkscape="http://www.inkscape.org/namespaces/inkscape"
   width="35"
   height="50"
   id="svg2"
   sodipodi:version="0.32"
   inkscape:version="0.46"
   version="1.0"
   sodipodi:docname="bug.svg"
   inkscape:output_extension="org.inkscape.output.svg.inkscape"
   inkscape:export-filename="C:\Projects\TEMP\bug16x16_2.png"
   inkscape:export-xdpi="28.799999"
   inkscape:export-ydpi="28.799999">
  <defs
     id="defs4">
    <linearGradient
       id="linearGradient3259">
      <stop
         id="stop3261"
         offset="0"
         style="stop-color:#4a4a4a;stop-opacity:1;" />
      <stop
         id="stop3263"
         offset="1"
         style="stop-color:#323232;stop-opacity:0;" />
    </linearGradient>
    <linearGradient
       id="linearGradient3243">
      <stop
         style="stop-color:#323232;stop-opacity:1;"
         offset="0"
         id="stop3245" />
      <stop
         style="stop-color:#323232;stop-opacity:0;"
         offset="1"
         id="stop3247" />
    </linearGradient>
    <linearGradient
       id="linearGradient4285">
      <stop
         style="stop-color:#fbf7f0;stop-opacity:1;"
         offset="0"
         id="stop4287" />
      <stop
         style="stop-color:#fbf7f0;stop-opacity:0;"
         offset="1"
         id="stop4289" />
    </linearGradient>
    <linearGradient
       inkscape:collect="always"
       id="linearGradient3437">
      <stop
         style="stop-color:#fbf7f0;stop-opacity:1;"
         offset="0"
         id="stop3439" />
      <stop
         style="stop-color:#fbf7f0;stop-opacity:0;"
         offset="1"
         id="stop3441" />
    </linearGradient>
    <linearGradient
       id="linearGradient3188">
      <stop
         style="stop-color:#ffffff;stop-opacity:1;"
         offset="0"
         id="stop3190" />
      <stop
         style="stop-color:#cb0000;stop-opacity:1;"
         offset="1"
         id="stop3192" />
    </linearGradient>
    <linearGradient
       id="linearGradient3178">
      <stop
         style="stop-color:#241c1c;stop-opacity:1;"
         offset="0"
         id="stop3180" />
      <stop
         style="stop-color:#ffffff;stop-opacity:1;"
         offset="1"
         id="stop3182" />
    </linearGradient>
    <linearGradient
       inkscape:collect="always"
       id="linearGradient3170">
      <stop
         style="stop-color:#800000;stop-opacity:1;"
         offset="0"
         id="stop3172" />
      <stop
         style="stop-color:#800000;stop-opacity:0;"
         offset="1"
         id="stop3174" />
    </linearGradient>
    <linearGradient
       id="linearGradient3162">
      <stop
         style="stop-color:#800000;stop-opacity:1;"
         offset="0"
         id="stop3164" />
      <stop
         style="stop-color:#ffffff;stop-opacity:0;"
         offset="1"
         id="stop3166" />
    </linearGradient>
    <inkscape:perspective
       sodipodi:type="inkscape:persp3d"
       inkscape:vp_x="0 : 526.18109 : 1"
       inkscape:vp_y="0 : 1000 : 0"
       inkscape:vp_z="744.09448 : 526.18109 : 1"
       inkscape:persp3d-origin="372.04724 : 350.78739 : 1"
       id="perspective10" />
    <filter
       inkscape:collect="always"
       id="filter3473">
      <feGaussianBlur
         inkscape:collect="always"
         stdDeviation="0.20667254"
         id="feGaussianBlur3475" />
    </filter>
    <filter
       inkscape:collect="always"
       id="filter3547">
      <feGaussianBlur
         inkscape:collect="always"
         stdDeviation="0.13112406"
         id="feGaussianBlur3549" />
    </filter>
    <filter
       inkscape:collect="always"
       id="filter3655"
       x="-0.16262421"
       width="1.3252484"
       y="-0.11819993"
       height="1.2363999">
      <feGaussianBlur
         inkscape:collect="always"
         stdDeviation="0.22832723"
         id="feGaussianBlur3657" />
    </filter>
    <filter
       inkscape:collect="always"
       id="filter3759"
       x="-0.15168443"
       width="1.3033689"
       y="-0.13056923"
       height="1.2611386">
      <feGaussianBlur
         inkscape:collect="always"
         stdDeviation="0.226453"
         id="feGaussianBlur3761" />
    </filter>
    <filter
       inkscape:collect="always"
       id="filter3907"
       x="-0.14950623"
       width="1.2990125"
       y="-0.24663565"
       height="1.4932714">
      <feGaussianBlur
         inkscape:collect="always"
         stdDeviation="0.31371039"
         id="feGaussianBlur3909" />
    </filter>
    <filter
       inkscape:collect="always"
       id="filter4003"
       x="-0.18810675"
       width="1.3762136"
       y="-0.14090365"
       height="1.2818073">
      <feGaussianBlur
         inkscape:collect="always"
         stdDeviation="0.26335422"
         id="feGaussianBlur4005" />
    </filter>
    <filter
       inkscape:collect="always"
       id="filter4279"
       x="-0.20648596"
       width="1.4129719"
       y="-0.18243386"
       height="1.3648677">
      <feGaussianBlur
         inkscape:collect="always"
         stdDeviation="0.32124857"
         id="feGaussianBlur4281" />
    </filter>
    <filter
       inkscape:collect="always"
       id="filter4387"
       x="-0.092"
       width="1.184"
       y="-0.22258064"
       height="1.4451613">
      <feGaussianBlur
         inkscape:collect="always"
         stdDeviation="0.31027654"
         id="feGaussianBlur4389" />
    </filter>
    <filter
       inkscape:collect="always"
       id="filter4399">
      <feGaussianBlur
         inkscape:collect="always"
         stdDeviation="0.11502391"
         id="feGaussianBlur4401" />
    </filter>
    <filter
       inkscape:collect="always"
       id="filter4415">
      <feGaussianBlur
         inkscape:collect="always"
         stdDeviation="0.11391093"
         id="feGaussianBlur4417" />
    </filter>
    <linearGradient
       inkscape:collect="always"
       xlink:href="#linearGradient3170"
       id="linearGradient4442"
       gradientUnits="userSpaceOnUse"
       x1="45.640697"
       y1="39.072041"
       x2="24.110653"
       y2="55.860806" />
    <linearGradient
       inkscape:collect="always"
       xlink:href="#linearGradient3162"
       id="linearGradient4444"
       gradientUnits="userSpaceOnUse"
       gradientTransform="translate(-0.9157509,0)"
       x1="59.535587"
       y1="39.072041"
       x2="80.70253"
       y2="44.566544" />
    <linearGradient
       inkscape:collect="always"
       xlink:href="#linearGradient3178"
       id="linearGradient4446"
       gradientUnits="userSpaceOnUse"
       x1="44.566544"
       y1="80.738708"
       x2="55.937115"
       y2="57.50153" />
    <radialGradient
       inkscape:collect="always"
       xlink:href="#linearGradient4285"
       id="radialGradient4452"
       gradientUnits="userSpaceOnUse"
       gradientTransform="matrix(1,0,0,0.7333333,0,6.3596958)"
       cx="53.151722"
       cy="23.848862"
       fx="53.151722"
       fy="23.848862"
       r="4.0470853" />
    <linearGradient
       inkscape:collect="always"
       xlink:href="#linearGradient3437"
       id="linearGradient2469"
       gradientUnits="userSpaceOnUse"
       x1="13.338122"
       y1="21.892818"
       x2="39.748676"
       y2="38.376335" />
    <linearGradient
       inkscape:collect="always"
       xlink:href="#linearGradient3437"
       id="linearGradient2471"
       gradientUnits="userSpaceOnUse"
       x1="13.338122"
       y1="21.892818"
       x2="39.748676"
       y2="38.376335" />
    <linearGradient
       inkscape:collect="always"
       xlink:href="#linearGradient3243"
       id="linearGradient3249"
       x1="49.275925"
       y1="83.800453"
       x2="64.481842"
       y2="66.218666"
       gradientUnits="userSpaceOnUse" />
    <linearGradient
       inkscape:collect="always"
       xlink:href="#linearGradient3243"
       id="linearGradient3253"
       gradientUnits="userSpaceOnUse"
       x1="49.275925"
       y1="83.800453"
       x2="64.481842"
       y2="66.218666" />
    <linearGradient
       inkscape:collect="always"
       xlink:href="#linearGradient3259"
       id="linearGradient3257"
       gradientUnits="userSpaceOnUse"
       x1="49.275925"
       y1="83.800453"
       x2="53.519051"
       y2="79.595299" />
    <filter
       inkscape:collect="always"
       id="filter3321">
      <feGaussianBlur
         inkscape:collect="always"
         stdDeviation="0.087761712"
         id="feGaussianBlur3323" />
    </filter>
  </defs>
  <sodipodi:namedview
     id="base"
     pagecolor="#ffffff"
     bordercolor="#666666"
     borderopacity="1.0"
     gridtolerance="10000"
     guidetolerance="10"
     objecttolerance="10"
     inkscape:pageopacity="0.0"
     inkscape:pageshadow="2"
     inkscape:zoom="13.104"
     inkscape:cx="18.720851"
     inkscape:cy="23.86894"
     inkscape:document-units="px"
     inkscape:current-layer="g3332"
     showgrid="false"
     inkscape:window-width="1680"
     inkscape:window-height="1024"
     inkscape:window-x="0"
     inkscape:window-y="168"
     showguides="true"
     inkscape:guide-bbox="true" />
  <metadata
     id="metadata7">
    <rdf:RDF>
      <cc:Work
         rdf:about="">
        <dc:format>image/svg+xml</dc:format>
        <dc:type
           rdf:resource="http://purl.org/dc/dcmitype/StillImage" />
      </cc:Work>
    </rdf:RDF>
  </metadata>
  <g
     inkscape:label="Layer 1"
     inkscape:groupmode="layer"
     id="layer1"
     transform="translate(-38.99923,-15.628205)">
    <path
       style="opacity:1;fill:#ffffff;fill-opacity:0.89411765;stroke:none;stroke-width:0.30000001;stroke-miterlimit:4;stroke-dasharray:none;stroke-opacity:1"
       id="path3274"
       d="M 67.106126,98.197393 C 75.984012,98.37384 84.852872,97.894464 93.717326,97.463749 C 105.16211,96.784984 116.61819,96.074044 127.97919,94.488632 L 124.77203,96.8794 C 113.59091,98.065812 102.35756,98.62738 91.140486,99.357377 C 81.925991,99.909562 72.713718,100.49426 63.488426,100.82581 L 67.106126,98.197393 z" />
    <g
       id="g3428"
       style="filter:url(#filter4399)"
       transform="matrix(0.963603,0,0,0.9848257,5.7692726,5.4264019)">
      <g
         id="g3326" />
    </g>
    <g
       id="g3332">
      <path
         inkscape:transform-center-y="7.2652334"
         inkscape:transform-center-x="-22.913131"
         transform="matrix(0.9556016,0.1266498,-0.1239205,0.9766481,18.544342,-40.858235)"
         d="M 54.945054,80.738708 A 5.1892552,13.278388 0 1 1 44.566543,80.738708 A 5.1892552,13.278388 0 1 1 54.945054,80.738708 z"
         sodipodi:ry="13.278388"
         sodipodi:rx="5.1892552"
         sodipodi:cy="80.738708"
         sodipodi:cx="49.755798"
         id="path3158"
         style="fill:url(#linearGradient3249);fill-opacity:1;stroke:none;stroke-opacity:1"
         sodipodi:type="arc"
         inkscape:export-filename="C:\Projects\TEMP\bug16x16.png"
         inkscape:export-xdpi="36.343353"
         inkscape:export-ydpi="36.343353" />
      <path
         transform="matrix(0.9556016,0.1266498,-0.1239205,0.9766481,18.544342,-40.858235)"
         d="M 49.75,74.375 C 49.279715,76.08649 48.875,78.231596 48.875,80.75 C 48.875,83.268404 49.279715,85.41351 49.75,87.125 C 50.220285,85.41351 50.625,83.268404 50.625,80.75 C 50.625,78.231596 50.220285,76.08649 49.75,74.375 z"
         id="path3255"
         style="fill:url(#linearGradient3257);fill-opacity:1;stroke:none;stroke-opacity:1;filter:url(#filter3321)"
         inkscape:original="M 49.75 67.46875 C 46.885531 67.46875 44.5625 73.42033 44.5625 80.75 C 44.5625 88.07967 46.885531 94.031249 49.75 94.03125 C 52.614469 94.03125 54.9375 88.07967 54.9375 80.75 C 54.9375 73.42033 52.614469 67.468751 49.75 67.46875 z "
         inkscape:radius="-4.326211"
         sodipodi:type="inkscape:offset"
         inkscape:export-filename="C:\Projects\TEMP\bug16x16.png"
         inkscape:export-xdpi="36.343353"
         inkscape:export-ydpi="36.343353" />
      <path
         d="M 54.710447,26.629885 C 54.209195,25.77822 53.494739,25.113077 52.795327,24.438646 C 52.093649,23.859581 51.285071,23.485568 50.418714,23.252291 C 49.333235,23.006036 48.216183,23.049874 47.115513,22.948972 C 46.27187,22.844556 45.489387,22.502647 44.674053,22.282477 L 45.869078,21.443757 C 46.672149,21.673434 47.449555,22.004824 48.28624,22.09501 C 49.393708,22.185186 50.516921,22.159717 51.605553,22.419258 C 52.487147,22.671357 53.316683,23.058941 54.023599,23.664838 C 54.727222,24.350951 55.440247,25.031475 55.965981,25.877978 L 54.710447,26.629885 z"
         id="path3334"
         style="fill:#353535;fill-opacity:0.89411765;stroke:none;stroke-width:0.30000001;stroke-miterlimit:4;stroke-dasharray:none;stroke-opacity:1"
         inkscape:export-filename="C:\Projects\TEMP\bug16x16.png"
         inkscape:export-xdpi="36.343353"
         inkscape:export-ydpi="36.343353" />
      <path
         d="M 58.45078,28.063779 C 58.949666,27.065156 59.744156,26.295253 60.562045,25.571508 C 61.853998,24.420472 63.383277,23.572694 64.957115,22.893878 C 66.139871,22.507312 67.384981,22.468284 68.615168,22.436072 C 69.2769,22.423531 69.938742,22.421454 70.60056,22.419351 L 69.440612,23.280961 C 68.781153,23.281064 68.121633,23.280848 67.462313,23.297344 C 66.238258,23.337797 64.995503,23.383997 63.828612,23.805236 C 63.667029,23.876775 63.503926,23.944828 63.343863,24.019852 C 63.166632,24.102922 62.690827,24.431402 62.816936,24.27942 C 62.988322,24.072869 63.269837,23.99767 63.488813,23.845163 C 63.665594,23.722042 63.121976,24.070479 62.943613,24.191194 C 62.397203,24.561002 62.394928,24.588004 61.886207,25.022778 C 61.077727,25.729265 60.274426,26.469928 59.777589,27.450268 L 58.45078,28.063779 z"
         id="path3336"
         style="fill:#353535;fill-opacity:0.89411765;stroke:none;stroke-width:0.30000001;stroke-miterlimit:4;stroke-dasharray:none;stroke-opacity:1"
         inkscape:export-filename="C:\Projects\TEMP\bug16x16.png"
         inkscape:export-xdpi="36.343353"
         inkscape:export-ydpi="36.343353" />
      <path
         style="filter:url(#filter4415);fill:url(#linearGradient4442);fill-opacity:1;stroke:none;stroke-opacity:1"
         d="M 51.054726,37.773552 C 50.212235,47.040951 54.827839,55.860807 47.161172,55.860807 C 39.494505,55.860807 38.396048,46.507938 39.238539,37.240539 C 40.08103,27.973139 42.547009,22.283274 50.213676,22.283274 C 57.880343,22.283274 51.897217,28.506152 51.054726,37.773552 z"
         id="path2383"
         sodipodi:nodetypes="csssc"
         transform="matrix(0.963603,0,0,0.9848257,5.769273,5.426402)"
         inkscape:export-filename="C:\Projects\TEMP\bug16x16.png"
         inkscape:export-xdpi="36.343353"
         inkscape:export-ydpi="36.343353" />
      <path
         style="filter:url(#filter4399);fill:url(#linearGradient4444);fill-opacity:1;stroke:none;stroke-opacity:1"
         d="M 53.286484,37.541086 C 52.612491,46.808485 46.645512,55.783319 54.312179,55.783319 C 61.978846,55.783319 64.980688,47.118439 65.654681,37.85104 C 66.328674,28.58364 64.183263,22.283274 56.516596,22.283274 C 48.849929,22.283274 53.960477,28.273686 53.286484,37.541086 z"
         id="path3156"
         sodipodi:nodetypes="csssc"
         transform="matrix(0.963603,0,0,0.9848257,5.769273,5.426402)"
         inkscape:export-filename="C:\Projects\TEMP\bug16x16.png"
         inkscape:export-xdpi="36.343353"
         inkscape:export-ydpi="36.343353" />
      <path
         sodipodi:type="arc"
         style="fill:url(#linearGradient4446);fill-opacity:1;stroke:none;stroke-opacity:1"
         id="path3160"
         sodipodi:cx="49.755798"
         sodipodi:cy="80.738708"
         sodipodi:rx="5.1892552"
         sodipodi:ry="13.278388"
         d="M 54.945054,80.738708 A 5.1892552,13.278388 0 1 1 44.566543,80.738708 A 5.1892552,13.278388 0 1 1 54.945054,80.738708 z"
         transform="matrix(0.963603,0,0,0.2716761,9.0048138,6.0380072)"
         inkscape:export-filename="C:\Projects\TEMP\bug16x16.png"
         inkscape:export-xdpi="36.343353"
         inkscape:export-ydpi="36.343353" />
      <path
         transform="matrix(0.6398538,1.1456823,-0.9124547,0.8034033,51.660425,-42.713998)"
         d="M 45.177046,33.272282 A 1.6788766,2.1367521 0 1 1 41.819292,33.272282 A 1.6788766,2.1367521 0 1 1 45.177046,33.272282 z"
         sodipodi:ry="2.1367521"
         sodipodi:rx="1.6788766"
         sodipodi:cy="33.272282"
         sodipodi:cx="43.498169"
         id="path3256"
         style="fill:#ffffff;fill-opacity:0.89411765;stroke:none;stroke-width:0.30000001;stroke-miterlimit:4;stroke-dasharray:none;stroke-opacity:1;filter:url(#filter3907)"
         sodipodi:type="arc"
         inkscape:export-filename="C:\Projects\TEMP\bug16x16.png"
         inkscape:export-xdpi="36.343353"
         inkscape:export-ydpi="36.343353" />
      <path
         inkscape:transform-center-y="-9.5109528"
         inkscape:transform-center-x="3.3200471"
         sodipodi:type="arc"
         style="fill:#ffffff;fill-opacity:0.89411765;stroke:none;stroke-width:0.30000001;stroke-miterlimit:4;stroke-dasharray:none;stroke-opacity:1;filter:url(#filter4003)"
         id="path3258"
         sodipodi:cx="43.498169"
         sodipodi:cy="33.272282"
         sodipodi:rx="1.6788766"
         sodipodi:ry="2.1367521"
         d="M 45.177046,33.272282 A 1.6788766,2.1367521 0 1 1 41.819292,33.272282 A 1.6788766,2.1367521 0 1 1 45.177046,33.272282 z"
         transform="matrix(1.139509,0.4239924,-0.4097088,1.1792357,13.258723,-12.531939)"
         inkscape:export-filename="C:\Projects\TEMP\bug16x16.png"
         inkscape:export-xdpi="36.343353"
         inkscape:export-ydpi="36.343353" />
      <path
         transform="matrix(0.6519074,1.0883895,-0.9296435,0.7632271,64.001536,-38.23414)"
         d="M 45.177046,33.272282 A 1.6788766,2.1367521 0 1 1 41.819292,33.272282 A 1.6788766,2.1367521 0 1 1 45.177046,33.272282 z"
         sodipodi:ry="2.1367521"
         sodipodi:rx="1.6788766"
         sodipodi:cy="33.272282"
         sodipodi:cx="43.498169"
         id="path3260"
         style="fill:#ffffff;fill-opacity:0.89411765;stroke:none;stroke-width:0.30000001;stroke-miterlimit:4;stroke-dasharray:none;stroke-opacity:1;filter:url(#filter3759)"
         sodipodi:type="arc"
         inkscape:transform-center-x="-2.5305643"
         inkscape:transform-center-y="-10.300738"
         inkscape:export-filename="C:\Projects\TEMP\bug16x16.png"
         inkscape:export-xdpi="36.343353"
         inkscape:export-ydpi="36.343353" />
      <path
         inkscape:transform-center-y="-9.0681938"
         inkscape:transform-center-x="7.2101769"
         sodipodi:type="arc"
         style="fill:#ffffff;fill-opacity:0.89411765;stroke:none;stroke-width:0.30000001;stroke-miterlimit:4;stroke-dasharray:none;stroke-opacity:1;filter:url(#filter3655)"
         id="path3262"
         sodipodi:cx="43.498169"
         sodipodi:cy="33.272282"
         sodipodi:rx="1.6788766"
         sodipodi:ry="2.1367521"
         d="M 45.177046,33.272282 A 1.6788766,2.1367521 0 1 1 41.819292,33.272282 A 1.6788766,2.1367521 0 1 1 45.177046,33.272282 z"
         transform="matrix(1.3699895,0.412546,1.2564632e-2,1.1175665,2.7962188,-13.095068)"
         inkscape:export-filename="C:\Projects\TEMP\bug16x16.png"
         inkscape:export-xdpi="36.343353"
         inkscape:export-ydpi="36.343353" />
      <path
         inkscape:transform-center-y="-7.6912806"
         inkscape:transform-center-x="4.388552"
         sodipodi:type="arc"
         style="fill:#ffffff;fill-opacity:0.89411765;stroke:none;stroke-width:0.30000001;stroke-miterlimit:4;stroke-dasharray:none;stroke-opacity:1;filter:url(#filter3547)"
         id="path3266"
         sodipodi:cx="43.498169"
         sodipodi:cy="33.272282"
         sodipodi:rx="1.6788766"
         sodipodi:ry="2.1367521"
         d="M 45.177046,33.272282 A 1.6788766,2.1367521 0 1 1 41.819292,33.272282 A 1.6788766,2.1367521 0 1 1 45.177046,33.272282 z"
         transform="matrix(1.3152406,5.074276e-2,-0.3855541,1.1922361,15.997055,9.7146957)"
         inkscape:export-filename="C:\Projects\TEMP\bug16x16.png"
         inkscape:export-xdpi="36.343353"
         inkscape:export-ydpi="36.343353" />
      <path
         transform="matrix(1.1340948,4.3712661e-2,-0.3324524,1.0270592,11.975216,18.665852)"
         d="M 45.177046,33.272282 A 1.6788766,2.1367521 0 1 1 41.819292,33.272282 A 1.6788766,2.1367521 0 1 1 45.177046,33.272282 z"
         sodipodi:ry="2.1367521"
         sodipodi:rx="1.6788766"
         sodipodi:cy="33.272282"
         sodipodi:cx="43.498169"
         id="path3268"
         style="fill:#ffffff;fill-opacity:0.89411765;stroke:none;stroke-width:0.30000001;stroke-miterlimit:4;stroke-dasharray:none;stroke-opacity:1;filter:url(#filter4279)"
         sodipodi:type="arc"
         inkscape:transform-center-x="3.784125"
         inkscape:transform-center-y="-6.625699"
         inkscape:export-filename="C:\Projects\TEMP\bug16x16.png"
         inkscape:export-xdpi="36.343353"
         inkscape:export-ydpi="36.343353" />
      <path
         transform="matrix(0.5781618,0,0,0.689378,23.770648,10.716683)"
         d="M 81.807082,17.704517 A 1.5262516,1.5262516 0 1 1 78.754579,17.704517 A 1.5262516,1.5262516 0 1 1 81.807082,17.704517 z"
         sodipodi:ry="1.5262516"
         sodipodi:rx="1.5262516"
         sodipodi:cy="17.704517"
         sodipodi:cx="80.28083"
         id="path3338"
         style="fill:#353535;fill-opacity:0.89411765;stroke:none;stroke-width:0.30000001;stroke-miterlimit:4;stroke-dasharray:none;stroke-opacity:1"
         sodipodi:type="arc"
         inkscape:export-filename="C:\Projects\TEMP\bug16x16.png"
         inkscape:export-xdpi="36.343353"
         inkscape:export-ydpi="36.343353" />
      <path
         sodipodi:type="arc"
         style="fill:#353535;fill-opacity:0.89411765;stroke:none;stroke-width:0.30000001;stroke-miterlimit:4;stroke-dasharray:none;stroke-opacity:1"
         id="path3340"
         sodipodi:cx="80.28083"
         sodipodi:cy="17.704517"
         sodipodi:rx="1.5262516"
         sodipodi:ry="1.5262516"
         d="M 81.807082,17.704517 A 1.5262516,1.5262516 0 1 1 78.754579,17.704517 A 1.5262516,1.5262516 0 1 1 81.807082,17.704517 z"
         transform="matrix(0.5781618,0,0,0.689378,-1.1577267,9.6645191)"
         inkscape:export-filename="C:\Projects\TEMP\bug16x16.png"
         inkscape:export-xdpi="36.343353"
         inkscape:export-ydpi="36.343353" />
      <g
         style="fill:#eee0c7;fill-opacity:0.89411765;filter:url(#filter3473)"
         transform="matrix(0.963603,0,0,0.9848257,30.356805,4.109538)"
         id="g3431"
         inkscape:export-filename="C:\Projects\TEMP\bug16x16.png"
         inkscape:export-xdpi="36.343353"
         inkscape:export-ydpi="36.343353">
        <path
           style="fill:url(#linearGradient2469);fill-opacity:1;stroke:none;stroke-opacity:1"
           d="M 30.599908,38.719787 C 30.115501,45.380374 24.916271,51.663615 30.426393,51.663615 C 35.936515,51.663615 38.264729,45.380374 38.749135,38.719787 C 39.233542,32.0592 37.69161,27.531054 32.181488,27.531054 C 26.671366,27.531054 31.084314,32.0592 30.599908,38.719787 z"
           id="path3433"
           sodipodi:nodetypes="csssc" />
      </g>
      <g
         id="g3477"
         transform="matrix(-0.9530482,-0.1453642,-0.1422317,0.9740384,86.481521,8.8010541)"
         style="fill:#eee0c7;fill-opacity:0.89411765;filter:url(#filter3473)"
         inkscape:export-filename="C:\Projects\TEMP\bug16x16.png"
         inkscape:export-xdpi="36.343353"
         inkscape:export-ydpi="36.343353">
        <path
           sodipodi:nodetypes="csssc"
           id="path3479"
           d="M 30.599908,38.719787 C 30.115501,45.380374 24.916271,51.663615 30.426393,51.663615 C 35.936515,51.663615 38.264729,45.380374 38.749135,38.719787 C 39.233542,32.0592 37.69161,27.531054 32.181488,27.531054 C 26.671366,27.531054 31.084314,32.0592 30.599908,38.719787 z"
           style="fill:url(#linearGradient2471);fill-opacity:1;stroke:none;stroke-opacity:1" />
      </g>
      <path
         transform="matrix(0.963603,0,0,0.9848257,5.6652783,6.1703944)"
         d="M 57.198807,23.848862 A 4.0470853,1.6727953 0 1 1 49.104637,23.848862 A 4.0470853,1.6727953 0 1 1 57.198807,23.848862 z"
         sodipodi:ry="1.6727953"
         sodipodi:rx="4.0470853"
         sodipodi:cy="23.848862"
         sodipodi:cx="53.151722"
         id="path4283"
         style="opacity:0.53365383;fill:url(#radialGradient4452);fill-opacity:1;stroke:none;stroke-width:0.30000001;stroke-miterlimit:4;stroke-dasharray:none;stroke-opacity:1;filter:url(#filter4387)"
         sodipodi:type="arc"
         inkscape:export-filename="C:\Projects\TEMP\bug16x16.png"
         inkscape:export-xdpi="36.343353"
         inkscape:export-ydpi="36.343353" />
    </g>
  </g>
</svg>
