<?xml version="1.0" encoding="UTF-8" standalone="no"?>
<!-- Created with Inkscape (http://www.inkscape.org/) -->
<svg
   xmlns:dc="http://purl.org/dc/elements/1.1/"
   xmlns:cc="http://creativecommons.org/ns#"
   xmlns:rdf="http://www.w3.org/1999/02/22-rdf-syntax-ns#"
   xmlns:svg="http://www.w3.org/2000/svg"
   xmlns="http://www.w3.org/2000/svg"
   xmlns:sodipodi="http://sodipodi.sourceforge.net/DTD/sodipodi-0.dtd"
   xmlns:inkscape="http://www.inkscape.org/namespaces/inkscape"
   width="500"
   height="50"
   id="svg3239"
   sodipodi:version="0.32"
   inkscape:version="0.46"
   version="1.0"
   sodipodi:docname="company_tagline.svg"
   inkscape:output_extension="org.inkscape.output.svg.inkscape"
   inkscape:export-filename="C:\Projects\SQLiteWebSite\Tests\Test2\Images\company_tagline.png"
   inkscape:export-xdpi="90"
   inkscape:export-ydpi="90">
  <defs
     id="defs3241">
    <inkscape:perspective
       sodipodi:type="inkscape:persp3d"
       inkscape:vp_x="0 : 526.18109 : 1"
       inkscape:vp_y="0 : 1000 : 0"
       inkscape:vp_z="744.09448 : 526.18109 : 1"
       inkscape:persp3d-origin="372.04724 : 350.78739 : 1"
       id="perspective3247" />
    <inkscape:perspective
       id="perspective7402"
       inkscape:persp3d-origin="372.04724 : 350.78739 : 1"
       inkscape:vp_z="744.09448 : 526.18109 : 1"
       inkscape:vp_y="0 : 1000 : 0"
       inkscape:vp_x="0 : 526.18109 : 1"
       sodipodi:type="inkscape:persp3d" />
  </defs>
  <sodipodi:namedview
     id="base"
     pagecolor="#ffffff"
     bordercolor="#666666"
     borderopacity="1.0"
     gridtolerance="10000"
     guidetolerance="10"
     objecttolerance="10"
     inkscape:pageopacity="0.0"
     inkscape:pageshadow="2"
     inkscape:zoom="3.168"
     inkscape:cx="250"
     inkscape:cy="25"
     inkscape:document-units="px"
     inkscape:current-layer="layer1"
     showgrid="false"
     inkscape:window-width="1680"
     inkscape:window-height="1024"
     inkscape:window-x="-4"
     inkscape:window-y="164" />
  <metadata
     id="metadata3244">
    <rdf:RDF>
      <cc:Work
         rdf:about="">
        <dc:format>image/svg+xml</dc:format>
        <dc:type
           rdf:resource="http://purl.org/dc/dcmitype/StillImage" />
      </cc:Work>
    </rdf:RDF>
  </metadata>
  <g
     inkscape:label="Layer 1"
     inkscape:groupmode="layer"
     id="layer1">
    <g
       id="g8459"
       transform="matrix(9.3793968e-2,0,0,9.3793968e-2,-74.284033,-85.245942)" />
    <flowRoot
       xml:space="preserve"
       id="flowRoot8320"
       style="font-size:48px;font-style:normal;font-variant:normal;font-weight:normal;font-stretch:normal;fill:#000000;fill-opacity:1;stroke:none;stroke-width:1px;stroke-linecap:butt;stroke-linejoin:miter;stroke-opacity:1;font-family:Courier New;-inkscape-font-specification:Courier New"
       transform="matrix(9.3793968e-2,0,0,9.3793968e-2,-74.284033,-85.245942)"><flowRegion
         id="flowRegion8322"><rect
           id="rect8324"
           width="8.9945488"
           height="233.85826"
           x="-325.08868"
           y="-188.60786"
           style="font-style:normal;font-variant:normal;font-weight:normal;font-stretch:normal;font-family:Courier New;-inkscape-font-specification:Courier New" /></flowRegion><flowPara
         id="flowPara8326" /></flowRoot>    <text
       xml:space="preserve"
       style="font-size:4.50211048px;font-style:normal;font-variant:normal;font-weight:normal;font-stretch:normal;fill:#000000;fill-opacity:1;stroke:none;stroke-width:1px;stroke-linecap:butt;stroke-linejoin:miter;stroke-opacity:1;font-family:Courier New;-inkscape-font-specification:Courier New"
       x="-96.667839"
       y="-80.096382"
       id="text8328"><tspan
         sodipodi:role="line"
         id="tspan8330"
         x="-96.667839"
         y="-80.096382" /></text>
    <g
       id="g3642"
       transform="matrix(0.560924,0,0,0.5951266,69.271232,54.142001)">
      <path
         inkscape:export-ydpi="10.39"
         inkscape:export-xdpi="10.39"
         inkscape:export-filename="C:\Projects\SQLiteWebSite\Tests\Test1\Images\greenpine_logo.png"
         id="path8516"
         d="M -27.610398,-55.331004 L -18.389298,-55.331004 L -18.389298,-15.129944 L -68.231894,-15.129944 L -68.231894,-55.331004 L -68.231894,-55.331004 L -60.874945,-55.331004"
         style="fill:none;fill-opacity:1;stroke:#d45500;stroke-width:4.68969822;stroke-miterlimit:4;stroke-dasharray:none;stroke-opacity:1" />
      <path
         inkscape:export-ydpi="10.39"
         inkscape:export-xdpi="10.39"
         inkscape:export-filename="C:\Projects\SQLiteWebSite\Tests\Test1\Images\greenpine_logo.png"
         style="fill:#89a02c;fill-opacity:1;stroke:none;stroke-width:1.48000002;stroke-miterlimit:4;stroke-dasharray:none;stroke-opacity:1"
         id="path7468"
         d="M -52.536432,-48.529183 C -52.361574,-46.954604 -52.157322,-45.367527 -52.238545,-43.779738 C -52.261416,-43.332637 -52.318211,-42.887916 -52.358044,-42.442007 C -52.430249,-41.990456 -52.486431,-41.536051 -52.574658,-41.087356 C -52.860952,-39.631352 -53.320471,-37.98484 -54.005104,-36.659465 C -54.12945,-36.418745 -54.282737,-36.194111 -54.421553,-35.961434 C -54.860905,-35.387489 -55.355028,-34.809258 -55.992363,-34.443826 C -60.703104,-31.742804 -58.962594,-32.174098 -61.056554,-31.695842 C -61.170696,-31.684215 -61.284838,-31.672587 -61.398981,-31.660959 L -57.2823,-34.769038 C -57.180461,-34.797544 -57.078622,-34.82605 -56.976784,-34.854556 C -55.230608,-35.58309 -56.764631,-34.957739 -60.765628,-32.603032 C -60.89249,-32.52837 -60.500615,-32.731943 -60.37368,-32.806484 C -59.838248,-33.120909 -59.371674,-33.527001 -58.9501,-33.981372 C -58.78419,-34.203353 -58.601004,-34.413413 -58.45237,-34.647312 C -57.621445,-35.954904 -57.122518,-37.512299 -56.804936,-39.017455 C -56.713289,-39.451808 -56.658939,-39.893202 -56.585941,-40.331074 C -56.554285,-40.759068 -56.50696,-41.18619 -56.490972,-41.615054 C -56.435059,-43.114885 -56.598529,-44.639484 -57.109122,-46.056365 L -52.536432,-48.529183 z" />
      <path
         inkscape:export-ydpi="10.39"
         inkscape:export-xdpi="10.39"
         inkscape:export-filename="C:\Projects\SQLiteWebSite\Tests\Test1\Images\greenpine_logo.png"
         style="fill:#89a02c;fill-opacity:1;stroke:none;stroke-width:1.48000002;stroke-miterlimit:4;stroke-dasharray:none;stroke-opacity:1"
         id="path7470"
         d="M -47.991835,-60.116319 C -48.121215,-58.737095 -48.196496,-57.350643 -48.387952,-55.97737 C -48.5523,-54.798539 -48.699588,-54.210806 -48.948795,-53.038463 C -49.404525,-51.189621 -49.962981,-49.345688 -50.914049,-47.683505 C -51.435921,-46.77143 -51.621186,-46.602132 -52.26174,-45.8049 C -52.852283,-45.204323 -53.480397,-44.615223 -54.215189,-44.190989 C -55.815249,-43.267193 -57.416296,-42.344422 -59.038,-41.459169 C -59.186796,-41.377944 -59.355164,-41.337081 -59.519502,-41.29548 C -59.65005,-41.262433 -59.785908,-41.255909 -59.919112,-41.236123 C -60.027573,-41.244151 -60.136036,-41.252179 -60.244497,-41.260207 L -56.059448,-44.311418 C -55.980188,-44.322553 -55.900927,-44.333688 -55.821667,-44.344824 C -54.198643,-44.814309 -52.194325,-46.348854 -58.867381,-42.391504 C -59.08134,-42.264619 -58.427063,-42.624148 -58.216708,-42.756923 C -57.499204,-43.209802 -57.365866,-43.36347 -56.694745,-43.927537 C -56.020339,-44.672797 -55.778537,-44.879998 -55.224449,-45.748076 C -54.197741,-47.356597 -53.586802,-49.179199 -53.124017,-51.017645 C -53.025114,-51.505924 -52.914793,-51.992027 -52.827308,-52.48248 C -52.516654,-54.22407 -52.361842,-56.003427 -52.609589,-57.763456 L -47.991835,-60.116319 z" />
      <path
         inkscape:export-ydpi="10.39"
         inkscape:export-xdpi="10.39"
         inkscape:export-filename="C:\Projects\SQLiteWebSite\Tests\Test1\Images\greenpine_logo.png"
         style="fill:#89a02c;fill-opacity:1;stroke:none;stroke-width:1.48000002;stroke-miterlimit:4;stroke-dasharray:none;stroke-opacity:1"
         id="path7472"
         d="M -46.02716,-71.708238 C -45.890806,-70.303118 -45.821317,-68.882505 -45.92991,-67.472649 C -45.962682,-67.047166 -46.020793,-66.624014 -46.066234,-66.199697 C -46.405648,-64.290548 -47.05146,-62.443559 -48.081931,-60.794211 C -48.734272,-59.750089 -48.935071,-59.596197 -49.732286,-58.696106 C -50.435283,-58.000156 -51.198553,-57.3495 -52.05867,-56.853022 C -53.673137,-55.921118 -55.289929,-54.992755 -56.92363,-54.094995 C -57.091273,-54.00287 -57.274687,-53.9404 -57.458055,-53.885921 C -57.605234,-53.842195 -57.75995,-53.829758 -57.910898,-53.801676 L -53.842871,-56.907572 C -52.225093,-57.411987 -50.300206,-58.856804 -56.657979,-55.076018 C -56.911243,-54.925408 -56.139073,-55.356217 -55.88923,-55.512437 C -54.97401,-56.0847 -54.959152,-56.150218 -54.100257,-56.869077 C -53.796329,-57.178529 -53.472038,-57.46922 -53.188472,-57.797434 C -51.64501,-59.583913 -50.71485,-61.769073 -50.321907,-64.084317 C -50.284419,-64.491924 -50.231036,-64.898381 -50.209443,-65.307139 C -50.140482,-66.612542 -50.246693,-67.954498 -50.60232,-69.214346 L -46.02716,-71.708238 z" />
      <path
         inkscape:export-ydpi="10.39"
         inkscape:export-xdpi="10.39"
         inkscape:export-filename="C:\Projects\SQLiteWebSite\Tests\Test1\Images\greenpine_logo.png"
         style="fill:#89a02c;fill-opacity:1;stroke:none;stroke-width:1.48000002;stroke-miterlimit:4;stroke-dasharray:none;stroke-opacity:1"
         id="path7476"
         d="M -41.1406,-82.773847 C -41.871371,-81.380279 -42.347647,-79.86881 -42.950428,-78.418897 C -43.172941,-77.883672 -43.416327,-77.357365 -43.649275,-76.826599 C -43.936313,-76.228992 -44.211399,-75.625497 -44.510388,-75.033779 C -45.084379,-73.897812 -45.978847,-72.276896 -46.597575,-71.165568 C -47.473684,-69.591944 -48.377674,-68.039817 -49.315533,-66.502479 C -49.788917,-65.716178 -50.305931,-64.959244 -50.848133,-64.219545 L -55.445641,-62.262631 C -54.760561,-63.016998 -54.112684,-63.801497 -53.539927,-64.646689 C -53.236796,-65.092598 -52.925903,-65.533328 -52.630534,-65.984416 C -50.774927,-68.818306 -49.127659,-71.80259 -47.793425,-74.916921 C -47.594661,-75.423723 -47.383767,-75.925935 -47.197133,-76.437329 C -46.696539,-77.80901 -46.290814,-79.218525 -45.89463,-80.622974 L -41.1406,-82.773847 z" />
      <path
         inkscape:export-ydpi="10.39"
         inkscape:export-xdpi="10.39"
         inkscape:export-filename="C:\Projects\SQLiteWebSite\Tests\Test1\Images\greenpine_logo.png"
         d="M -35.661363,-48.770221 C -35.836221,-47.195643 -36.040473,-45.608565 -35.95925,-44.020776 C -35.93638,-43.573675 -35.879584,-43.128955 -35.839751,-42.683045 C -35.767547,-42.231495 -35.711364,-41.777089 -35.623137,-41.328395 C -35.336843,-39.872391 -34.877324,-38.225879 -34.192691,-36.900503 C -34.068345,-36.659783 -33.915059,-36.435149 -33.776243,-36.202473 C -33.33689,-35.628528 -32.842767,-35.050296 -32.205432,-34.684864 C -27.494692,-31.983842 -29.235201,-32.415136 -27.141241,-31.936881 C -27.027099,-31.925253 -26.912957,-31.913625 -26.798815,-31.901998 L -30.915496,-35.010077 C -31.017334,-35.038582 -31.119173,-35.067088 -31.221012,-35.095594 C -32.967187,-35.824128 -31.433164,-35.198777 -27.432167,-32.84407 C -27.305305,-32.769408 -27.697181,-32.972981 -27.824115,-33.047522 C -28.359547,-33.361948 -28.826121,-33.768039 -29.247695,-34.222411 C -29.413606,-34.444391 -29.596791,-34.654451 -29.745425,-34.888351 C -30.57635,-36.195942 -31.075277,-37.753337 -31.392859,-39.258493 C -31.484506,-39.692846 -31.538856,-40.13424 -31.611854,-40.572112 C -31.64351,-41.000106 -31.690835,-41.427228 -31.706823,-41.856093 C -31.762736,-43.355923 -31.599266,-44.880522 -31.088673,-46.297403 L -35.661363,-48.770221 z"
         id="path7478"
         style="fill:#89a02c;fill-opacity:1;stroke:none;stroke-width:1.48000002;stroke-miterlimit:4;stroke-dasharray:none;stroke-opacity:1" />
      <path
         inkscape:export-ydpi="10.39"
         inkscape:export-xdpi="10.39"
         inkscape:export-filename="C:\Projects\SQLiteWebSite\Tests\Test1\Images\greenpine_logo.png"
         d="M -40.20596,-60.357357 C -40.07658,-58.978134 -40.001299,-57.591682 -39.809843,-56.218408 C -39.645495,-55.039578 -39.498207,-54.451844 -39.249,-53.279501 C -38.79327,-51.43066 -38.234814,-49.586727 -37.283746,-47.924544 C -36.761874,-47.012469 -36.576609,-46.84317 -35.936055,-46.045939 C -35.345512,-45.445361 -34.717398,-44.856262 -33.982606,-44.432028 C -32.382546,-43.508231 -30.781499,-42.58546 -29.159795,-41.700207 C -29.011,-41.618982 -28.842631,-41.578119 -28.678293,-41.536518 C -28.547746,-41.503471 -28.411887,-41.496947 -28.278684,-41.477161 C -28.170222,-41.485189 -28.06176,-41.493217 -27.953298,-41.501246 L -32.138348,-44.552456 C -32.217607,-44.563592 -32.296868,-44.574727 -32.376128,-44.585862 C -33.999152,-45.055348 -36.00347,-46.589892 -29.330414,-42.632543 C -29.116455,-42.505657 -29.770732,-42.865186 -29.981087,-42.997961 C -30.698591,-43.450841 -30.831929,-43.604508 -31.50305,-44.168575 C -32.177456,-44.913835 -32.419259,-45.121036 -32.973346,-45.989114 C -34.000054,-47.597635 -34.610993,-49.420238 -35.073778,-51.258684 C -35.172681,-51.746962 -35.283002,-52.233065 -35.370487,-52.723519 C -35.681141,-54.465108 -35.835953,-56.244465 -35.588206,-58.004494 L -40.20596,-60.357357 z"
         id="path7480"
         style="fill:#89a02c;fill-opacity:1;stroke:none;stroke-width:1.48000002;stroke-miterlimit:4;stroke-dasharray:none;stroke-opacity:1" />
      <path
         inkscape:export-ydpi="10.39"
         inkscape:export-xdpi="10.39"
         inkscape:export-filename="C:\Projects\SQLiteWebSite\Tests\Test1\Images\greenpine_logo.png"
         d="M -42.170635,-71.949277 C -42.306989,-70.544157 -42.376478,-69.123543 -42.267885,-67.713687 C -42.235113,-67.288204 -42.177002,-66.865053 -42.131561,-66.440735 C -41.792147,-64.531586 -41.146335,-62.684597 -40.115864,-61.035249 C -39.463523,-59.991127 -39.262724,-59.837235 -38.465509,-58.937144 C -37.762512,-58.241194 -36.999242,-57.590538 -36.139125,-57.09406 C -34.524658,-56.162156 -32.907866,-55.233793 -31.274166,-54.336033 C -31.106522,-54.243908 -30.923108,-54.181438 -30.739741,-54.12696 C -30.592561,-54.083233 -30.437845,-54.070797 -30.286897,-54.042715 L -34.354924,-57.14861 C -35.972702,-57.653026 -37.897589,-59.097842 -31.539816,-55.317056 C -31.286552,-55.166446 -32.058722,-55.597255 -32.308565,-55.753476 C -33.223785,-56.325739 -33.238643,-56.391257 -34.097538,-57.110115 C -34.401467,-57.419568 -34.725757,-57.710259 -35.009323,-58.038472 C -36.552785,-59.824952 -37.482945,-62.010111 -37.875888,-64.325355 C -37.913376,-64.732962 -37.966759,-65.139419 -37.988352,-65.548177 C -38.057313,-66.85358 -37.951102,-68.195536 -37.595475,-69.455384 L -42.170635,-71.949277 z"
         id="path7482"
         style="fill:#89a02c;fill-opacity:1;stroke:none;stroke-width:1.48000002;stroke-miterlimit:4;stroke-dasharray:none;stroke-opacity:1" />
      <path
         inkscape:export-ydpi="10.39"
         inkscape:export-xdpi="10.39"
         inkscape:export-filename="C:\Projects\SQLiteWebSite\Tests\Test1\Images\greenpine_logo.png"
         d="M -47.057195,-83.014885 C -46.326424,-81.621318 -45.850148,-80.109849 -45.247367,-78.659935 C -45.024855,-78.12471 -44.781469,-77.598403 -44.54852,-77.067638 C -44.261482,-76.470031 -43.986396,-75.866535 -43.687407,-75.274817 C -43.113416,-74.13885 -42.218948,-72.517935 -41.60022,-71.406606 C -40.724111,-69.832983 -39.820121,-68.280855 -38.882262,-66.743517 C -38.408879,-65.957216 -37.891865,-65.200282 -37.349662,-64.460583 L -32.752154,-62.503669 C -33.437235,-63.258036 -34.085111,-64.042535 -34.657868,-64.887728 C -34.960999,-65.333636 -35.271892,-65.774367 -35.567261,-66.225454 C -37.422869,-69.059344 -39.070136,-72.043628 -40.404371,-75.157959 C -40.603134,-75.664762 -40.814028,-76.166973 -41.000662,-76.678367 C -41.501256,-78.050048 -41.906981,-79.459563 -42.303166,-80.864012 L -47.057195,-83.014885 z"
         id="path7484"
         style="fill:#89a02c;fill-opacity:1;stroke:none;stroke-width:1.48000002;stroke-miterlimit:4;stroke-dasharray:none;stroke-opacity:1" />
      <path
         inkscape:export-ydpi="10.39"
         inkscape:export-xdpi="10.39"
         inkscape:export-filename="C:\Projects\SQLiteWebSite\Tests\Test1\Images\greenpine_logo.png"
         style="fill:#89a02c;fill-opacity:1;stroke:none;stroke-width:1.48000002;stroke-miterlimit:4;stroke-dasharray:none;stroke-opacity:1"
         id="path7544"
         d="M -49.705823,-58.526841 C -49.922099,-57.843819 -50.175322,-57.173384 -50.408364,-56.496182 C -50.703821,-55.637607 -50.673513,-55.635576 -51.008353,-54.768752 C -51.126096,-54.463941 -51.256161,-54.164033 -51.380065,-53.861673 C -51.986147,-52.486292 -52.671816,-51.148157 -53.400923,-49.834462 C -53.565678,-49.544456 -53.742696,-49.261245 -53.98258,-49.028046 L -58.837088,-47.079296 C -58.72962,-47.150854 -58.611743,-47.207292 -58.510048,-47.286842 C -58.311382,-47.442248 -58.222352,-47.5783 -58.058641,-47.778717 C -57.185105,-49.051561 -56.454719,-50.417428 -55.810428,-51.819133 C -55.208919,-53.25722 -54.672607,-54.741049 -54.385469,-56.277099 L -49.705823,-58.526841 z" />
      <path
         inkscape:export-ydpi="10.39"
         inkscape:export-xdpi="10.39"
         inkscape:export-filename="C:\Projects\SQLiteWebSite\Tests\Test1\Images\greenpine_logo.png"
         style="fill:#89a02c;fill-opacity:1;stroke:none;stroke-width:1.48000002;stroke-miterlimit:4;stroke-dasharray:none;stroke-opacity:1"
         id="path7558"
         d="M -51.757033,-53.518069 C -52.108543,-52.244279 -52.559736,-51.001331 -53.108011,-49.79872 C -53.278032,-49.425789 -53.462665,-49.059695 -53.639993,-48.690183 C -54.270572,-47.334586 -55.035171,-46.044516 -55.95157,-44.862229 C -56.364971,-44.32888 -56.619685,-44.060992 -57.058483,-43.572075 C -58.531523,-41.957152 -59.232659,-41.841171 -61.586331,-40.481559 L -58.822507,-42.704423 C -65.152467,-39.007852 -61.834577,-40.82284 -61.052995,-41.459539 C -60.690991,-41.75444 -60.523735,-41.93208 -60.175262,-42.268479 C -59.71349,-42.744918 -59.419093,-43.031292 -58.98803,-43.554092 C -58.03423,-44.710877 -57.242757,-45.988697 -56.601107,-47.342808 C -55.90765,-48.828461 -55.22547,-50.341542 -54.956849,-51.971871 L -51.757033,-53.518069 z" />
      <path
         inkscape:export-ydpi="10.39"
         inkscape:export-xdpi="10.39"
         inkscape:export-filename="C:\Projects\SQLiteWebSite\Tests\Test1\Images\greenpine_logo.png"
         style="fill:#89a02c;fill-opacity:1;stroke:none;stroke-width:1.48000002;stroke-miterlimit:4;stroke-dasharray:none;stroke-opacity:1"
         id="path7560"
         d="M -49.673334,-67.352749 C -49.744954,-65.878894 -50.163776,-64.458833 -50.607548,-63.061841 C -51.294946,-61.117937 -52.201959,-59.260154 -53.317348,-57.52744 C -53.557411,-57.152201 -53.836907,-56.808476 -54.135003,-56.479119 L -57.382781,-55.137844 C -57.028632,-55.447105 -56.705192,-55.781788 -56.433322,-56.168605 C -56.288955,-56.367782 -56.138152,-56.562449 -56.00022,-56.766135 C -54.976453,-58.277952 -54.184957,-59.936602 -53.580932,-61.657148 C -53.233101,-62.822927 -53.311946,-62.465131 -53.079055,-63.580526 C -52.932036,-64.284654 -52.777749,-65.007913 -52.856398,-65.730898 L -49.673334,-67.352749 z" />
      <path
         inkscape:export-ydpi="10.39"
         inkscape:export-xdpi="10.39"
         inkscape:export-filename="C:\Projects\SQLiteWebSite\Tests\Test1\Images\greenpine_logo.png"
         style="fill:#89a02c;fill-opacity:1;stroke:none;stroke-width:1.48000002;stroke-miterlimit:4;stroke-dasharray:none;stroke-opacity:1"
         id="path7562"
         d="M -34.485993,-67.970741 C -34.529266,-66.976868 -34.602506,-65.980532 -34.595802,-64.985214 C -34.593177,-64.59549 -34.569665,-64.206186 -34.556596,-63.816672 C -34.459367,-63.221288 -34.40218,-62.617967 -34.264909,-62.030522 C -33.574367,-59.07539 -32.238921,-56.091933 -30.860236,-53.3952 C -30.582302,-52.851555 -30.28087,-52.320248 -29.991187,-51.782772 C -29.40411,-50.693852 -28.696166,-49.681285 -27.978358,-48.677088 L -30.858917,-46.994858 C -31.483395,-48.070062 -32.104086,-49.148125 -32.654102,-50.264178 C -32.919821,-50.819079 -33.193148,-51.370402 -33.45126,-51.928883 C -34.429526,-54.04558 -35.337386,-56.194018 -36.166277,-58.373526 C -36.444181,-59.104256 -36.730715,-59.832443 -36.974178,-60.575358 C -37.161677,-61.147504 -37.296816,-61.735501 -37.458135,-62.315573 C -37.49312,-62.701483 -37.539172,-63.086551 -37.563091,-63.473305 C -37.622223,-64.429416 -37.586332,-65.391694 -37.6729,-66.34693 L -34.485993,-67.970741 z" />
      <path
         inkscape:export-ydpi="10.39"
         inkscape:export-xdpi="10.39"
         inkscape:export-filename="C:\Projects\SQLiteWebSite\Tests\Test1\Images\greenpine_logo.png"
         style="fill:#89a02c;fill-opacity:1;stroke:none;stroke-width:1.48000002;stroke-miterlimit:4;stroke-dasharray:none;stroke-opacity:1"
         id="path7564"
         d="M -33.363938,-56.205759 C -32.728434,-54.397423 -32.139084,-52.573762 -31.511236,-50.7627 C -30.639345,-48.435166 -29.597378,-46.160181 -28.296566,-44.03873 C -28.11706,-43.745978 -27.922612,-43.462655 -27.735635,-43.174617 C -27.573426,-42.95263 -27.411217,-42.730642 -27.249008,-42.508655 L -30.153158,-40.80484 C -30.300497,-41.041878 -30.447836,-41.278916 -30.595175,-41.515954 C -31.992297,-44.001104 -33.227263,-46.576337 -34.284736,-49.224542 C -35.006449,-51.091734 -34.60892,-50.075155 -35.298956,-51.817079 C -35.649917,-52.703042 -35.994042,-53.594716 -36.452615,-54.432484 L -33.363938,-56.205759 z" />
      <path
         inkscape:export-ydpi="10.39"
         inkscape:export-xdpi="10.39"
         inkscape:export-filename="C:\Projects\SQLiteWebSite\Tests\Test1\Images\greenpine_logo.png"
         style="fill:#89a02c;fill-opacity:1;stroke:none;stroke-width:1.48000002;stroke-miterlimit:4;stroke-dasharray:none;stroke-opacity:1"
         id="path7566"
         d="M -29.282937,-43.08828 C -29.014421,-42.100062 -28.625402,-41.158489 -28.195481,-40.23145 C -27.765237,-39.351317 -27.216697,-38.530031 -26.544274,-37.815633 C -26.117688,-37.362418 -25.868621,-37.170312 -25.40014,-36.768932 C -24.978973,-36.417817 -24.514669,-36.127469 -24.050055,-35.839258 L -26.992679,-33.961207 C -27.427075,-34.292271 -27.866641,-34.617418 -28.275263,-34.980724 C -28.712184,-35.371391 -29.032797,-35.641596 -29.437007,-36.071692 C -30.129633,-36.808674 -30.711261,-37.647168 -31.175608,-38.544519 C -31.611022,-39.462916 -31.99868,-40.399779 -32.395975,-41.334443 L -29.282937,-43.08828 z" />
      <path
         inkscape:export-ydpi="10.39"
         inkscape:export-xdpi="10.39"
         inkscape:export-filename="C:\Projects\SQLiteWebSite\Tests\Test1\Images\greenpine_logo.png"
         style="fill:#89a02c;fill-opacity:1;stroke:none;stroke-width:1.48000002;stroke-miterlimit:4;stroke-dasharray:none;stroke-opacity:1"
         id="path7568"
         d="M -46.537913,-54.713629 C -46.633809,-53.60199 -46.602006,-52.484138 -46.664323,-51.370963 C -46.684138,-51.017024 -46.719454,-50.664123 -46.747018,-50.310703 C -46.849799,-49.143323 -47.118775,-48.004524 -47.399828,-46.870452 C -47.662107,-45.812133 -47.953069,-44.770266 -48.276931,-43.729302 C -48.817704,-42.120821 -49.511748,-40.562042 -50.349065,-39.086167 C -51.336125,-37.513949 -51.728607,-37.825711 -54.128951,-36.444508 L -51.327168,-38.653645 C -57.606944,-34.93799 -54.496154,-36.500426 -53.779933,-37.332582 C -53.680221,-37.448435 -53.591881,-37.573608 -53.497855,-37.69412 C -52.552809,-39.129669 -51.830124,-40.704021 -51.259685,-42.323181 C -50.573093,-44.446426 -49.933311,-46.606823 -49.699676,-48.833657 C -49.675532,-49.178031 -49.639182,-49.521765 -49.627242,-49.866778 C -49.590092,-50.940207 -49.665462,-52.018726 -49.72482,-53.089819 L -46.537913,-54.713629 z" />
      <path
         inkscape:export-ydpi="10.39"
         inkscape:export-xdpi="10.39"
         inkscape:export-filename="C:\Projects\SQLiteWebSite\Tests\Test1\Images\greenpine_logo.png"
         style="fill:#89a02c;fill-opacity:1;stroke:none;stroke-width:1.48000002;stroke-miterlimit:4;stroke-dasharray:none;stroke-opacity:1"
         id="path7570"
         d="M -46.545869,-57.702451 C -46.848638,-56.564277 -46.992702,-55.389647 -47.193816,-54.230923 C -47.259098,-53.854799 -47.334537,-53.480508 -47.404897,-53.105301 C -47.50712,-52.666639 -47.601111,-52.225977 -47.711566,-51.789316 C -47.858771,-51.207371 -48.394885,-49.289452 -48.55051,-48.738528 C -48.993179,-47.171434 -49.459621,-45.614513 -49.950761,-44.062015 C -50.76126,-41.766583 -51.47382,-39.438565 -52.248544,-37.131197 L -55.342629,-35.694539 C -54.362728,-37.986446 -53.584568,-40.359203 -52.797087,-42.722138 C -51.827336,-45.658041 -50.949529,-48.632978 -50.35036,-51.668817 C -50.103981,-53.157105 -49.889976,-54.650866 -49.774529,-56.155788 L -46.545869,-57.702451 z" />
      <path
         inkscape:export-ydpi="10.39"
         inkscape:export-xdpi="10.39"
         inkscape:export-filename="C:\Projects\SQLiteWebSite\Tests\Test1\Images\greenpine_logo.png"
         style="fill:#89a02c;fill-opacity:1;stroke:none;stroke-width:1.48000002;stroke-miterlimit:4;stroke-dasharray:none;stroke-opacity:1"
         id="path7572"
         d="M -48.353389,-49.71076 C -48.400354,-48.3455 -48.712739,-47.013356 -49.085923,-45.70571 C -49.656832,-44.132123 -50.208921,-42.550257 -50.858046,-41.006633 L -54.023676,-39.568313 C -53.220815,-41.059984 -52.637739,-42.658467 -52.116844,-44.267145 C -51.755733,-45.504576 -51.428887,-46.794954 -51.52492,-48.094783 L -48.353389,-49.71076 z" />
      <path
         inkscape:export-ydpi="10.39"
         inkscape:export-xdpi="10.39"
         inkscape:export-filename="C:\Projects\SQLiteWebSite\Tests\Test1\Images\greenpine_logo.png"
         style="fill:#89a02c;fill-opacity:1;stroke:none;stroke-width:1.48000002;stroke-miterlimit:4;stroke-dasharray:none;stroke-opacity:1"
         id="path7574"
         d="M -44.278124,-60.74657 C -44.775552,-58.832077 -45.393504,-56.951635 -46.03517,-55.081506 C -46.975901,-52.347903 -47.908898,-49.611688 -48.937298,-46.909641 C -49.243546,-46.120235 -49.561181,-45.335354 -49.880173,-44.551042 L -52.97235,-43.131614 C -52.605773,-43.929584 -52.244024,-44.729749 -51.900297,-45.537913 C -51.605843,-46.25559 -51.238305,-47.142165 -50.960492,-47.859336 C -50.21261,-49.789982 -49.558153,-51.754446 -48.922656,-53.724409 C -48.354577,-55.517467 -47.780319,-57.318927 -47.462544,-59.176842 L -44.278124,-60.74657 z" />
      <path
         inkscape:export-ydpi="10.39"
         inkscape:export-xdpi="10.39"
         inkscape:export-filename="C:\Projects\SQLiteWebSite\Tests\Test1\Images\greenpine_logo.png"
         style="fill:#89a02c;fill-opacity:1;stroke:none;stroke-width:1.48000002;stroke-miterlimit:4;stroke-dasharray:none;stroke-opacity:1"
         id="path7576"
         d="M -48.230947,-55.029 C -48.238997,-54.906856 -48.24867,-54.784808 -48.255096,-54.662568 C -48.281601,-54.15841 -48.273466,-53.939139 -48.33809,-53.411056 C -48.457618,-52.434301 -48.677233,-51.466234 -48.859116,-50.500062 C -49.361605,-48.081863 -49.928849,-45.677558 -50.541766,-43.285117 C -50.901591,-42.094764 -51.082292,-40.853398 -51.478922,-39.674121 C -51.495365,-39.627918 -51.511808,-39.581716 -51.528251,-39.535514 L -54.804399,-38.107886 C -54.767935,-38.138543 -54.73147,-38.169202 -54.695006,-38.199859 C -54.383907,-38.769355 -54.220118,-39.389608 -54.03622,-40.00913 C -53.951637,-40.294077 -53.865796,-40.578654 -53.782631,-40.864017 C -53.684334,-41.201299 -53.588769,-41.53937 -53.491838,-41.877047 C -52.84214,-44.248178 -52.261875,-46.639262 -51.816444,-49.057861 C -51.578896,-50.495052 -51.247703,-51.946954 -51.406323,-53.411065 L -48.230947,-55.029 z" />
      <path
         inkscape:export-ydpi="10.39"
         inkscape:export-xdpi="10.39"
         inkscape:export-filename="C:\Projects\SQLiteWebSite\Tests\Test1\Images\greenpine_logo.png"
         style="fill:#89a02c;fill-opacity:1;stroke:none;stroke-width:1.48000002;stroke-miterlimit:4;stroke-dasharray:none;stroke-opacity:1"
         id="path7578"
         d="M -42.803739,-75.548055 C -42.903974,-74.28284 -43.068816,-73.022723 -43.248308,-71.76639 C -43.755426,-69.03609 -44.087983,-66.279955 -44.382799,-63.520127 C -44.618599,-61.686501 -44.671007,-59.837267 -44.83721,-57.997929 C -44.898083,-56.826477 -45.201193,-55.701144 -45.568498,-54.59456 C -45.885367,-53.624152 -46.264449,-52.676162 -46.625661,-51.721861 C -46.697396,-51.398377 -46.9165,-51.112762 -46.975854,-50.787962 L -50.329066,-49.484006 C -50.30124,-49.474992 -50.273727,-49.448984 -50.245587,-49.456964 C -50.045684,-49.513662 -49.881103,-50.109624 -49.797851,-50.255443 C -49.396019,-51.200271 -49.009546,-52.153341 -48.691696,-53.13019 C -48.307256,-54.231962 -47.995039,-55.323107 -47.874459,-56.489771 C -47.655666,-58.352482 -47.576839,-60.230686 -47.281566,-62.085371 C -47.108112,-63.452983 -46.934204,-64.820673 -46.757256,-66.187812 C -46.633298,-67.145538 -46.486123,-68.100213 -46.367164,-69.058573 C -46.316233,-69.468882 -46.276858,-69.880543 -46.231704,-70.291528 C -46.153563,-71.072554 -46.131608,-71.260994 -46.06785,-72.005662 C -46.020832,-72.554812 -45.966265,-73.11171 -45.969882,-73.663745 C -45.970457,-73.751411 -45.981163,-73.838717 -45.986803,-73.926203 L -42.803739,-75.548055 z" />
      <path
         inkscape:export-ydpi="10.39"
         inkscape:export-xdpi="10.39"
         inkscape:export-filename="C:\Projects\SQLiteWebSite\Tests\Test1\Images\greenpine_logo.png"
         style="fill:#89a02c;fill-opacity:1;stroke:none;stroke-width:1.48000002;stroke-miterlimit:4;stroke-dasharray:none;stroke-opacity:1"
         id="path7580"
         d="M -45.696201,-66.027038 C -45.762214,-64.903752 -45.768356,-63.777804 -45.781711,-62.65295 C -45.787303,-62.380335 -45.793218,-62.107727 -45.798486,-61.835105 C -45.803457,-61.577906 -45.800675,-61.320469 -45.812429,-61.063491 C -45.859296,-60.038873 -46.000476,-59.014388 -46.106413,-57.994708 C -46.250298,-56.542076 -46.58395,-55.120241 -46.876387,-53.693171 C -46.943812,-53.286945 -47.071441,-52.890231 -47.125101,-52.481722 L -50.401853,-51.029594 C -50.371036,-51.04946 -50.328692,-51.058013 -50.309403,-51.089194 C -50.133959,-51.372805 -50.09354,-51.896809 -49.976124,-52.198556 C -49.634404,-53.617019 -49.277233,-55.036077 -49.130812,-56.491749 C -48.980682,-58.030882 -48.7767,-59.568976 -48.793753,-61.118238 C -48.806923,-62.214028 -48.811932,-63.311073 -48.879263,-64.405187 L -45.696201,-66.027038 z" />
      <path
         inkscape:export-ydpi="10.39"
         inkscape:export-xdpi="10.39"
         inkscape:export-filename="C:\Projects\SQLiteWebSite\Tests\Test1\Images\greenpine_logo.png"
         style="fill:#89a02c;fill-opacity:1;stroke:none;stroke-width:1.48000002;stroke-miterlimit:4;stroke-dasharray:none;stroke-opacity:1"
         id="path7582"
         d="M -43.645452,-75.68397 C -43.651365,-74.891864 -43.886674,-74.131097 -44.085026,-73.371507 C -44.358604,-72.385018 -44.579858,-71.384001 -44.741786,-70.373199 C -44.959071,-68.899851 -43.990392,-70.075922 -48.002975,-68.553965 C -48.092628,-68.519959 -47.977659,-68.744058 -47.965002,-68.839105 L -44.783765,-70.400583 C -45.027154,-69.02412 -44.763954,-70.219995 -48.034726,-68.551843 C -48.060572,-68.538662 -47.978173,-68.578989 -47.966082,-68.605364 C -47.932277,-68.679104 -47.923693,-68.761967 -47.9025,-68.840268 C -47.663547,-69.85006 -47.454493,-70.866852 -47.209654,-71.875326 C -47.037107,-72.587311 -46.779634,-73.321645 -46.832359,-74.06016 L -43.645452,-75.68397 z" />
      <path
         inkscape:export-ydpi="10.39"
         inkscape:export-xdpi="10.39"
         inkscape:export-filename="C:\Projects\SQLiteWebSite\Tests\Test1\Images\greenpine_logo.png"
         style="fill:#89a02c;fill-opacity:1;stroke:none;stroke-width:1.48000002;stroke-miterlimit:4;stroke-dasharray:none;stroke-opacity:1"
         id="path7584"
         d="M -42.560779,-77.612277 C -42.624976,-76.625619 -42.618879,-75.635887 -42.628921,-74.647619 C -42.642943,-73.234973 -42.643252,-71.822454 -42.633043,-70.409818 C -42.635798,-69.119512 -42.386669,-67.861061 -42.066719,-66.617979 C -41.697953,-65.309177 -41.304002,-64.01178 -41.042365,-62.676216 C -40.782931,-60.971708 -40.768023,-59.244313 -40.74329,-57.524277 C -40.715053,-56.278751 -40.617428,-55.032778 -40.413493,-53.803078 C -40.320798,-53.244139 -40.171242,-52.536029 -40.058051,-51.980562 C -39.741021,-50.398523 -39.394859,-48.822762 -38.967111,-47.266869 C -38.850196,-46.823296 -38.724963,-46.382001 -38.599806,-45.940706 L -41.680335,-44.275035 C -41.778612,-44.729524 -41.883922,-45.182403 -41.978522,-45.637695 C -42.341819,-47.222259 -42.685475,-48.811118 -43.001589,-50.405895 C -43.101515,-50.902361 -43.275627,-51.748779 -43.36053,-52.246111 C -43.572438,-53.487384 -43.678304,-54.745377 -43.717029,-56.00342 C -43.743816,-57.696024 -43.770688,-59.3978 -44.045339,-61.07212 C -44.307728,-62.408086 -44.700104,-63.681191 -45.073411,-64.988019 C -45.240153,-65.61845 -45.411072,-66.252463 -45.512606,-66.897694 C -45.614625,-67.546004 -45.647318,-68.205054 -45.675424,-68.859648 C -45.665299,-70.270884 -45.665396,-71.682001 -45.679546,-73.093248 C -45.689453,-74.058343 -45.682197,-75.025099 -45.747686,-75.988466 L -42.560779,-77.612277 z" />
      <path
         inkscape:export-ydpi="10.39"
         inkscape:export-xdpi="10.39"
         inkscape:export-filename="C:\Projects\SQLiteWebSite\Tests\Test1\Images\greenpine_logo.png"
         style="fill:#89a02c;fill-opacity:1;stroke:none;stroke-width:1.48000002;stroke-miterlimit:4;stroke-dasharray:none;stroke-opacity:1"
         id="path7586"
         d="M -41.693688,-74.580421 C -41.307613,-73.524066 -41.322329,-72.363167 -41.275243,-71.252796 C -41.215511,-69.244881 -41.269239,-67.236362 -41.246609,-65.228154 C -41.225901,-63.37769 -40.960763,-61.542323 -40.706513,-59.712786 C -40.506494,-58.372956 -40.279317,-57.037406 -40.091473,-55.695748 C -39.941773,-54.4722 -39.74642,-53.257596 -39.43696,-52.064058 C -39.06719,-50.745062 -38.642339,-49.442788 -38.217125,-48.140847 C -37.854722,-47.006607 -37.491241,-45.872583 -37.092446,-44.750538 C -36.827226,-44.015769 -36.534021,-43.291931 -36.234855,-42.570447 C -36.192746,-42.469351 -36.150316,-42.368389 -36.108527,-42.267161 C -36.03439,-42.087575 -35.985936,-41.952554 -35.897796,-41.783124 C -35.81542,-41.62477 -35.7499,-41.560079 -35.752803,-41.576658 C -35.767685,-41.661645 -35.813912,-41.738034 -35.844466,-41.818723 L -38.651032,-39.565092 C -38.713514,-39.629061 -38.781469,-39.688108 -38.838477,-39.756999 C -38.883396,-39.811278 -38.964764,-39.997396 -38.985695,-40.046202 C -39.100324,-40.313501 -39.18586,-40.591289 -39.299107,-40.859178 C -39.583293,-41.59533 -39.898887,-42.319168 -40.127529,-43.075666 C -40.502687,-44.211865 -40.838114,-45.360438 -41.207294,-46.498624 C -41.618898,-47.809518 -42.057674,-49.111629 -42.451893,-50.427929 C -42.778912,-51.630974 -42.973656,-52.861208 -43.124389,-54.098074 C -43.304868,-55.448111 -43.517903,-56.793785 -43.687258,-58.145399 C -43.909374,-59.998423 -44.169509,-61.853362 -44.201916,-63.721928 C -44.184195,-65.716108 -44.167841,-67.711735 -44.276354,-69.703936 C -44.330526,-70.578543 -44.355613,-71.75959 -44.682262,-72.582997 C -44.709714,-72.652199 -44.749652,-72.71577 -44.783347,-72.782157 L -41.693688,-74.580421 z" />
      <path
         inkscape:export-ydpi="10.39"
         inkscape:export-xdpi="10.39"
         inkscape:export-filename="C:\Projects\SQLiteWebSite\Tests\Test1\Images\greenpine_logo.png"
         style="fill:#89a02c;fill-opacity:1;stroke:none;stroke-width:1.48000002;stroke-miterlimit:4;stroke-dasharray:none;stroke-opacity:1"
         id="path7588"
         d="M -37.625129,-64.698987 C -37.794364,-63.81518 -37.9507,-62.929095 -38.076218,-62.037979 C -38.246971,-60.682335 -38.266169,-59.315379 -38.288013,-57.951278 C -38.346036,-56.508333 -38.240675,-55.068262 -38.161262,-53.628547 C -38.090198,-52.371557 -38.061516,-51.113051 -38.045599,-49.854373 C -38.007665,-48.789712 -38.064674,-47.723667 -38.002636,-46.660338 C -37.917909,-45.538944 -37.670095,-44.437378 -37.431929,-43.340553 C -37.200662,-42.474831 -36.935626,-41.616501 -36.641002,-40.770151 C -36.469245,-40.24613 -36.266199,-39.733085 -36.087064,-39.211691 C -36.011085,-38.903935 -35.897916,-38.610089 -35.773151,-38.319512 C -35.712158,-38.188481 -35.679044,-38.048408 -35.640128,-37.910197 C -35.625999,-37.860024 -35.566352,-37.715228 -35.583175,-37.764563 C -35.601361,-37.817897 -35.625431,-37.869038 -35.646559,-37.921275 C -36.665705,-37.352437 -37.68485,-36.7836 -38.703996,-36.214762 L -35.483639,-37.777321 C -36.518382,-37.129475 -37.553125,-36.481628 -38.587867,-35.833781 C -38.628449,-35.888187 -38.673534,-35.939507 -38.709612,-35.996998 C -38.8179,-36.16956 -38.796546,-36.393416 -38.888263,-36.572968 C -39.012488,-36.875631 -39.145292,-37.177474 -39.206639,-37.500944 C -39.356913,-38.033005 -39.548351,-38.552721 -39.700495,-39.084349 C -39.98096,-39.951532 -40.260673,-40.820493 -40.483036,-41.70467 C -40.714463,-42.820157 -40.943393,-43.941097 -41.057234,-45.075405 C -41.074783,-45.272125 -41.09983,-45.468321 -41.109879,-45.665568 C -41.154353,-46.538466 -41.090115,-47.416193 -41.110357,-48.289517 C -41.115862,-49.549373 -41.128298,-50.809578 -41.184834,-52.068348 C -41.253726,-53.514031 -41.371453,-54.958788 -41.329316,-56.407266 C -41.311084,-57.778169 -41.28049,-59.151424 -41.153933,-60.517201 C -41.061651,-61.383987 -40.918566,-62.243538 -40.829595,-63.110647 L -37.625129,-64.698987 z" />
      <path
         inkscape:export-ydpi="10.39"
         inkscape:export-xdpi="10.39"
         inkscape:export-filename="C:\Projects\SQLiteWebSite\Tests\Test1\Images\greenpine_logo.png"
         style="fill:#89a02c;fill-opacity:1;stroke:none;stroke-width:1.48000002;stroke-miterlimit:4;stroke-dasharray:none;stroke-opacity:1"
         id="path7590"
         d="M -36.277595,-49.561488 C -36.04241,-48.805172 -35.810262,-48.047789 -35.558056,-47.29696 C -35.160355,-46.141276 -34.770589,-44.983016 -34.397678,-43.819087 C -34.087367,-42.863833 -33.763821,-41.912752 -33.42924,-40.965739 C -33.18399,-40.2383 -32.995199,-39.495522 -32.815409,-38.750097 C -32.792832,-38.657686 -32.769774,-38.565392 -32.747675,-38.472865 C -32.660413,-38.107505 -32.722086,-38.362155 -32.648393,-38.02533 C -32.631582,-37.948496 -32.547824,-37.730491 -32.590426,-37.796606 C -32.618515,-37.840196 -32.63232,-37.891482 -32.653266,-37.93892 L -35.669177,-35.951716 C -35.697785,-36.002921 -35.733783,-36.050649 -35.754999,-36.105332 C -35.785538,-36.184045 -35.773827,-36.273152 -35.785108,-36.356824 C -35.81799,-36.600716 -35.862445,-36.842821 -35.913093,-37.083619 C -36.071015,-37.824284 -36.245409,-38.559744 -36.483093,-39.279963 C -36.804247,-40.237592 -37.101096,-41.20393 -37.412075,-42.164976 C -37.775076,-43.327607 -38.143734,-44.488274 -38.585478,-45.624211 C -38.854101,-46.367511 -39.094497,-47.123919 -39.410377,-47.848477 L -36.277595,-49.561488 z" />
      <path
         inkscape:export-ydpi="10.39"
         inkscape:export-xdpi="10.39"
         inkscape:export-filename="C:\Projects\SQLiteWebSite\Tests\Test1\Images\greenpine_logo.png"
         style="fill:#89a02c;fill-opacity:1;stroke:none;stroke-width:1.48000002;stroke-miterlimit:4;stroke-dasharray:none;stroke-opacity:1"
         id="path7592"
         d="M -39.044993,-54.658123 C -38.792079,-53.980691 -38.4921,-53.316983 -38.323773,-52.611062 C -38.277005,-52.414931 -38.244594,-52.215651 -38.205005,-52.017945 C -38.170092,-51.810854 -38.132781,-51.604153 -38.100268,-51.396673 C -37.993296,-50.71403 -37.89751,-50.032034 -37.760358,-49.354293 C -37.639654,-48.75783 -37.578178,-48.528765 -37.435438,-47.94049 C -37.131236,-46.702118 -36.728573,-45.492721 -36.340835,-44.27921 C -36.106948,-43.601505 -35.871318,-42.923787 -35.593516,-42.262527 C -35.5781,-42.239529 -35.562683,-42.216532 -35.547266,-42.193534 L -38.665372,-40.424594 C -38.679527,-40.463129 -38.693681,-40.501664 -38.707835,-40.540198 C -38.911284,-41.239181 -39.146182,-41.928633 -39.363452,-42.623352 C -39.729808,-43.854196 -40.127483,-45.076251 -40.427891,-46.325972 C -40.747745,-47.676258 -41.03136,-49.020869 -41.236582,-50.394077 C -41.425929,-51.268711 -41.692573,-52.132651 -42.158031,-52.904285 L -39.044993,-54.658123 z" />
      <path
         inkscape:export-ydpi="10.39"
         inkscape:export-xdpi="10.39"
         inkscape:export-filename="C:\Projects\SQLiteWebSite\Tests\Test1\Images\greenpine_logo.png"
         style="fill:#89a02c;fill-opacity:1;stroke:none;stroke-width:1.48000002;stroke-miterlimit:4;stroke-dasharray:none;stroke-opacity:1"
         id="path7594"
         d="M -40.863614,-66.457969 C -40.775176,-65.910972 -40.588075,-65.386662 -40.474299,-64.845071 C -40.355746,-64.280751 -40.326692,-63.98566 -40.247741,-63.406208 C -40.065469,-61.531539 -39.609133,-59.699364 -39.154484,-57.876146 C -38.607507,-55.861913 -37.985234,-53.868142 -37.299452,-51.89701 C -36.669132,-50.075295 -36.005397,-48.264324 -35.463071,-46.413882 C -35.033665,-44.887918 -34.57397,-43.370005 -34.053062,-41.872708 C -33.664209,-40.769347 -33.279519,-39.659309 -32.813518,-38.585373 C -32.709904,-38.40469 -32.76813,-38.464747 -32.669425,-38.379922 L -35.761796,-36.563112 C -35.851054,-36.742262 -35.805348,-36.637922 -35.888721,-36.880404 C -36.229082,-38.010235 -36.630742,-39.118793 -37.017596,-40.233318 C -37.554833,-41.736448 -37.979693,-43.273196 -38.401092,-44.812297 C -38.9181,-46.666718 -39.573806,-48.476828 -40.196194,-50.297731 C -40.874179,-52.280732 -41.500264,-54.281773 -42.064794,-56.300115 C -42.54393,-58.121551 -42.995806,-59.953864 -43.246585,-61.823168 C -43.340443,-62.427052 -43.356319,-62.622927 -43.500361,-63.202926 C -43.632247,-63.733978 -43.840103,-64.237388 -44.01265,-64.755035 L -40.863614,-66.457969 z" />
      <path
         inkscape:export-ydpi="10.39"
         inkscape:export-xdpi="10.39"
         inkscape:export-filename="C:\Projects\SQLiteWebSite\Tests\Test1\Images\greenpine_logo.png"
         style="fill:#89a02c;fill-opacity:1;stroke:none;stroke-width:1.48000002;stroke-miterlimit:4;stroke-dasharray:none;stroke-opacity:1"
         id="path7596"
         d="M -44.135217,-67.78864 C -44.219865,-66.404039 -44.213814,-65.015952 -44.245933,-63.629604 C -44.303863,-61.661588 -44.344143,-59.693113 -44.33879,-57.724197 C -44.336519,-56.09967 -44.336276,-54.475126 -44.336872,-52.850592 C -44.318496,-51.82549 -44.362083,-50.798766 -44.319006,-49.774038 C -44.300199,-49.326644 -44.248873,-48.756454 -44.212204,-48.31019 C -44.017045,-45.944427 -43.43893,-43.626025 -42.795913,-41.346848 C -42.480949,-40.301766 -42.167626,-39.253029 -41.775018,-38.233822 C -41.590615,-37.797402 -41.41735,-37.358902 -41.282858,-36.904571 C -41.279596,-36.735506 -40.988186,-36.173197 -41.31593,-36.781763 L -44.140962,-34.533885 C -44.201019,-34.620327 -44.269476,-34.701503 -44.321133,-34.793214 C -44.386641,-34.90951 -44.337104,-35.087127 -44.405746,-35.203292 C -44.527521,-35.655117 -44.690242,-36.092962 -44.842893,-36.534918 C -45.196762,-37.591764 -45.4661,-38.675724 -45.726428,-39.758627 C -46.277815,-42.075789 -46.71419,-44.417832 -47.224906,-46.743924 C -47.254342,-47.10275 -47.320909,-47.871894 -47.336174,-48.229379 C -47.38008,-49.257577 -47.331781,-50.28808 -47.347733,-51.316625 C -47.347099,-52.947785 -47.345361,-54.579116 -47.317095,-56.210062 C -47.276475,-58.179074 -47.259653,-60.14852 -47.224864,-62.117647 C -47.213896,-63.469466 -47.222024,-64.823018 -47.306748,-66.172664 L -44.135217,-67.78864 z" />
      <path
         inkscape:export-ydpi="10.39"
         inkscape:export-xdpi="10.39"
         inkscape:export-filename="C:\Projects\SQLiteWebSite\Tests\Test1\Images\greenpine_logo.png"
         style="fill:#89a02c;fill-opacity:1;stroke:none;stroke-width:1.48000002;stroke-miterlimit:4;stroke-dasharray:none;stroke-opacity:1"
         id="path7598"
         d="M -41.845352,-64.414102 C -41.933321,-62.972501 -41.936212,-61.526998 -41.94966,-60.083217 C -41.96237,-58.156272 -41.94795,-56.229352 -41.940741,-54.302396 C -41.937184,-52.787827 -41.917437,-51.273385 -41.907409,-49.758864 C -41.89044,-48.510741 -41.926849,-47.262833 -41.879196,-46.015313 C -41.802855,-44.602889 -41.62414,-43.202721 -41.37728,-41.810952 C -41.087495,-40.482265 -40.88159,-39.142339 -40.765157,-37.788005 C -40.731231,-36.937552 -40.715055,-36.084728 -40.749983,-35.234001 C -40.766124,-35.002062 -40.75618,-35.109455 -40.777834,-34.911645 L -44.027771,-33.406045 C -43.918986,-33.525825 -43.968126,-33.448028 -43.915938,-33.65843 C -43.789424,-34.497951 -43.816518,-35.358894 -43.815126,-36.204972 C -43.902363,-37.554843 -44.076531,-38.895482 -44.369964,-40.217328 C -44.63304,-41.616187 -44.822951,-43.025339 -44.925375,-44.44562 C -44.991933,-45.69734 -44.948678,-46.95292 -44.954826,-48.206128 C -44.944792,-49.73197 -44.925108,-51.257736 -44.921495,-52.783626 C -44.914302,-54.713612 -44.899876,-56.643562 -44.912576,-58.573537 C -44.925819,-59.981854 -44.927092,-61.392139 -45.016884,-62.798126 L -41.845352,-64.414102 z" />
      <path
         inkscape:export-ydpi="10.39"
         inkscape:export-xdpi="10.39"
         inkscape:export-filename="C:\Projects\SQLiteWebSite\Tests\Test1\Images\greenpine_logo.png"
         style="fill:#89a02c;fill-opacity:1;stroke:none;stroke-width:1.48000002;stroke-miterlimit:4;stroke-dasharray:none;stroke-opacity:1"
         id="path7600"
         d="M -40.764523,-53.054506 C -40.847822,-51.682194 -40.620365,-50.308734 -40.429336,-48.953346 C -40.165442,-47.277909 -39.902922,-45.601512 -39.579857,-43.93633 C -39.239611,-42.391244 -39.024088,-40.824282 -38.79099,-39.260737 C -38.71633,-38.574115 -38.544003,-37.894104 -38.528362,-37.201622 C -39.612482,-36.669999 -40.696602,-36.138375 -41.780722,-35.606752 L -38.738864,-37.478225 C -39.752266,-36.878346 -40.765668,-36.278466 -41.779069,-35.678587 C -41.642947,-35.789378 -41.668882,-36.007302 -41.67416,-36.164214 C -41.691092,-36.667619 -41.76567,-37.168602 -41.811326,-37.669487 C -42.008597,-39.237742 -42.185582,-40.81149 -42.540432,-42.354252 C -42.876963,-44.022756 -43.147462,-45.70427 -43.38837,-47.389123 C -43.606637,-48.733773 -43.837128,-50.082178 -43.928367,-51.442448 L -40.764523,-53.054506 z" />
      <path
         inkscape:export-ydpi="10.39"
         inkscape:export-xdpi="10.39"
         inkscape:export-filename="C:\Projects\SQLiteWebSite\Tests\Test1\Images\greenpine_logo.png"
         style="fill:#89a02c;fill-opacity:1;stroke:none;stroke-width:1.48000002;stroke-miterlimit:4;stroke-dasharray:none;stroke-opacity:1"
         id="path7602"
         d="M -41.525221,-45.082228 C -42.027197,-43.906683 -42.516948,-42.726618 -43.052157,-41.565465 C -43.477464,-40.691918 -43.908186,-39.811999 -44.456612,-39.006933 C -44.773725,-38.541425 -44.877371,-38.442829 -45.236157,-38.023774 C -45.698648,-37.545238 -45.46849,-37.771081 -45.924492,-37.344073 L -49.145102,-36.03076 C -48.657584,-36.448788 -48.905707,-36.22881 -48.402219,-36.692365 C -48.047188,-37.069543 -47.891422,-37.21326 -47.578905,-37.636924 C -47.002405,-38.418456 -46.566028,-39.297782 -46.130729,-40.161638 C -45.610221,-41.278078 -45.113539,-42.41123 -44.758061,-43.592688 L -41.525221,-45.082228 z" />
      <path
         inkscape:export-ydpi="10.39"
         inkscape:export-xdpi="10.39"
         inkscape:export-filename="C:\Projects\SQLiteWebSite\Tests\Test1\Images\greenpine_logo.png"
         style="fill:#89a02c;fill-opacity:1;stroke:none;stroke-width:1.48000002;stroke-miterlimit:4;stroke-dasharray:none;stroke-opacity:1"
         id="path7604"
         d="M -44.730125,-50.857014 C -44.795378,-49.794274 -45.016249,-48.754814 -45.262551,-47.721916 C -45.726709,-45.966775 -46.288408,-44.239648 -46.842287,-42.511351 C -47.292795,-41.104505 -47.74992,-39.699789 -48.198092,-38.292194 C -48.478546,-37.482604 -48.805401,-36.684974 -49.236284,-35.943007 C -49.389642,-35.713153 -49.314922,-35.81701 -49.457422,-35.629282 L -52.757981,-34.273991 C -52.562969,-34.403836 -52.660981,-34.32439 -52.472303,-34.522284 C -51.965362,-35.226138 -51.611713,-36.0247 -51.304366,-36.832707 C -50.817439,-38.247179 -50.338788,-39.664707 -49.871624,-41.085804 C -49.309352,-42.794556 -48.745341,-44.505007 -48.314414,-46.252743 C -48.098185,-47.232537 -47.888966,-48.223994 -47.917032,-49.233204 L -44.730125,-50.857014 z" />
      <path
         inkscape:export-ydpi="10.39"
         inkscape:export-xdpi="10.39"
         inkscape:export-filename="C:\Projects\SQLiteWebSite\Tests\Test1\Images\greenpine_logo.png"
         style="fill:#89a02c;fill-opacity:1;stroke:none;stroke-width:1.48000002;stroke-miterlimit:4;stroke-dasharray:none;stroke-opacity:1"
         id="path7606"
         d="M -47.630542,-44.686378 C -47.872617,-43.953764 -48.135412,-43.228588 -48.397313,-42.502917 C -48.689148,-41.656804 -49.081495,-40.850839 -49.45907,-40.040851 C -49.775619,-39.388953 -50.02892,-38.709177 -50.283626,-38.031506 C -50.40964,-37.657974 -50.516692,-37.279212 -50.722331,-36.940465 L -54.013555,-35.557664 C -53.689127,-35.791423 -53.584644,-36.180964 -53.471275,-36.548591 C -53.215282,-37.235509 -52.951358,-37.921667 -52.644885,-38.587135 C -52.273771,-39.402996 -51.829521,-40.188204 -51.532104,-41.035965 C -51.297199,-41.734168 -51.050826,-42.428287 -50.859201,-43.139715 L -47.630542,-44.686378 z" />
      <path
         inkscape:export-ydpi="10.39"
         inkscape:export-xdpi="10.39"
         inkscape:export-filename="C:\Projects\SQLiteWebSite\Tests\Test1\Images\greenpine_logo.png"
         style="fill:#89a02c;fill-opacity:1;stroke:none;stroke-width:1.48000002;stroke-miterlimit:4;stroke-dasharray:none;stroke-opacity:1"
         id="path7608"
         d="M -51.238162,-38.081979 C -51.241323,-37.461093 -51.272116,-36.903736 -51.417599,-36.29619 C -51.569715,-35.755002 -51.832355,-35.253232 -52.132695,-34.780706 L -55.4105,-33.381948 C -55.028169,-33.759278 -54.784118,-34.291638 -54.590238,-34.78483 C -54.420134,-35.332459 -54.363807,-35.886093 -54.425069,-36.458169 L -51.238162,-38.081979 z" />
      <path
         inkscape:export-ydpi="10.39"
         inkscape:export-xdpi="10.39"
         inkscape:export-filename="C:\Projects\SQLiteWebSite\Tests\Test1\Images\greenpine_logo.png"
         style="fill:#89a02c;fill-opacity:1;stroke:none;stroke-width:1.48000002;stroke-miterlimit:4;stroke-dasharray:none;stroke-opacity:1"
         id="path7610"
         d="M -45.323546,-44.449252 C -45.314861,-44.345892 -45.306896,-44.242468 -45.297491,-44.139171 C -45.268332,-43.818901 -45.239706,-43.672661 -45.256891,-43.337335 C -45.288823,-42.714248 -45.445383,-42.106815 -45.584193,-41.501831 C -45.899409,-40.004591 -46.502686,-38.600795 -47.168079,-37.231259 C -47.554745,-36.510894 -47.909078,-35.74264 -48.50856,-35.170095 C -49.573128,-34.572319 -50.637696,-33.974542 -51.702264,-33.376765 L -48.882376,-35.573387 C -49.860474,-35.005684 -50.838572,-34.437981 -51.81667,-33.870278 C -51.752817,-33.901165 -51.684224,-33.92374 -51.62511,-33.962941 C -51.032784,-34.355745 -50.63564,-35.244402 -50.274526,-35.827689 C -49.573668,-37.157871 -48.954978,-38.539217 -48.653092,-40.020719 C -48.462834,-40.931609 -48.232799,-41.854116 -48.471139,-42.779434 L -45.323546,-44.449252 z" />
      <path
         inkscape:export-ydpi="10.39"
         inkscape:export-xdpi="10.39"
         inkscape:export-filename="C:\Projects\SQLiteWebSite\Tests\Test1\Images\greenpine_logo.png"
         style="fill:#89a02c;fill-opacity:1;stroke:none;stroke-width:1.48000002;stroke-miterlimit:4;stroke-dasharray:none;stroke-opacity:1"
         id="path7612"
         d="M -44.24997,-42.284755 C -44.329409,-41.480317 -44.268556,-40.669635 -44.321533,-39.86434 C -44.335594,-39.650603 -44.36339,-39.437989 -44.384319,-39.224815 C -44.539682,-37.880629 -44.912516,-36.577257 -45.315824,-35.290051 C -45.552794,-34.576176 -45.730344,-33.833252 -46.100022,-33.17259 L -49.369673,-31.764683 C -48.823994,-32.312162 -48.694791,-33.139808 -48.41608,-33.831835 C -47.987527,-35.090601 -47.610017,-36.37488 -47.453814,-37.699559 C -47.432643,-37.903107 -47.402994,-38.105951 -47.390303,-38.310203 C -47.341691,-39.092522 -47.394296,-39.881663 -47.433033,-40.662904 L -44.24997,-42.284755 z" />
      <path
         inkscape:export-ydpi="10.39"
         inkscape:export-xdpi="10.39"
         inkscape:export-filename="C:\Projects\SQLiteWebSite\Tests\Test1\Images\greenpine_logo.png"
         style="fill:#89a02c;fill-opacity:1;stroke:none;stroke-width:1.48000002;stroke-miterlimit:4;stroke-dasharray:none;stroke-opacity:1"
         id="path7614"
         d="M -42.305781,-38.153506 C -42.040437,-37.429849 -41.80621,-36.695761 -41.515946,-35.981545 C -41.278018,-35.544553 -41.09151,-34.974296 -40.655615,-34.685348 L -43.69505,-32.808713 C -44.063245,-33.245903 -44.283591,-33.783798 -44.540868,-34.288607 C -44.835778,-34.998466 -45.084689,-35.730024 -45.434111,-36.415473 L -42.305781,-38.153506 z" />
      <path
         inkscape:export-ydpi="10.39"
         inkscape:export-xdpi="10.39"
         inkscape:export-filename="C:\Projects\SQLiteWebSite\Tests\Test1\Images\greenpine_logo.png"
         style="fill:#89a02c;fill-opacity:1;stroke:none;stroke-width:1.48000002;stroke-miterlimit:4;stroke-dasharray:none;stroke-opacity:1"
         id="path7616"
         d="M -38.317928,-38.86177 C -38.040724,-38.579574 -37.787843,-38.274037 -37.506921,-37.995732 L -40.555098,-36.139726 C -40.80994,-36.426485 -41.049721,-36.730721 -41.352368,-36.970067 L -38.317928,-38.86177 z" />
      <path
         inkscape:export-ydpi="10.39"
         inkscape:export-xdpi="10.39"
         inkscape:export-filename="C:\Projects\SQLiteWebSite\Tests\Test1\Images\greenpine_logo.png"
         style="fill:#89a02c;fill-opacity:1;stroke:none;stroke-width:1.48000002;stroke-miterlimit:4;stroke-dasharray:none;stroke-opacity:1"
         id="path7618"
         d="M -49.566335,-37.914306 C -49.725597,-37.141563 -50.060249,-36.434916 -50.459088,-35.760457 C -50.91115,-35.031327 -51.566912,-34.470821 -52.224016,-33.933463 C -52.532703,-33.694454 -52.38247,-33.805116 -52.673371,-33.599663 L -55.970825,-32.317603 C -55.648715,-32.502136 -55.813599,-32.399549 -55.478399,-32.628903 C -54.815938,-33.139597 -54.138098,-33.660501 -53.652963,-34.351496 C -53.25007,-34.96378 -52.871191,-35.615093 -52.780022,-36.355971 L -49.566335,-37.914306 z" />
      <path
         inkscape:export-ydpi="10.39"
         inkscape:export-xdpi="10.39"
         inkscape:export-filename="C:\Projects\SQLiteWebSite\Tests\Test1\Images\greenpine_logo.png"
         style="fill:#89a02c;fill-opacity:1;stroke:none;stroke-width:1.48000002;stroke-miterlimit:4;stroke-dasharray:none;stroke-opacity:1"
         id="path7640"
         d="M -37.147025,-68.255321 C -37.214731,-67.103953 -37.256712,-65.946849 -37.144061,-64.796527 C -37.106931,-64.417373 -37.047941,-64.040679 -36.999881,-63.662754 C -36.305119,-59.981388 -35.209278,-56.389577 -34.131224,-52.806318 C -33.351875,-50.262372 -32.41523,-47.771659 -31.551047,-45.25649 C -31.437531,-44.936083 -31.34485,-44.609673 -31.264994,-44.279597 L -34.395151,-42.615483 C -34.431915,-42.952338 -34.483372,-43.28693 -34.559651,-43.617524 C -35.150251,-46.24125 -35.941029,-48.814372 -36.726983,-51.384689 C -37.359025,-53.398693 -37.968467,-55.418481 -38.575473,-57.440146 C -38.870792,-58.423724 -39.289772,-59.792119 -39.561248,-60.801292 C -39.680085,-61.243052 -39.782743,-61.689004 -39.89349,-62.132861 C -39.960298,-62.509076 -40.038846,-62.883394 -40.093915,-63.261504 C -40.25716,-64.382358 -40.245358,-65.513758 -40.314713,-66.641303 L -37.147025,-68.255321 z" />
      <path
         inkscape:export-ydpi="10.39"
         inkscape:export-xdpi="10.39"
         inkscape:export-filename="C:\Projects\SQLiteWebSite\Tests\Test1\Images\greenpine_logo.png"
         style="fill:#89a02c;fill-opacity:1;stroke:none;stroke-width:1.48000002;stroke-miterlimit:4;stroke-dasharray:none;stroke-opacity:1"
         id="path7642"
         d="M -31.810744,-47.365752 C -31.540798,-46.370057 -31.216304,-45.390312 -30.906903,-44.406462 C -30.733315,-43.87523 -30.540313,-43.350867 -30.344172,-42.82768 L -33.370925,-41.152561 C -33.551843,-41.687354 -33.746167,-42.217326 -33.917924,-42.755202 C -34.222521,-43.729888 -34.540449,-44.703539 -34.929975,-45.647855 L -31.810744,-47.365752 z" />
      <path
         inkscape:export-ydpi="10.39"
         inkscape:export-xdpi="10.39"
         inkscape:export-filename="C:\Projects\SQLiteWebSite\Tests\Test1\Images\greenpine_logo.png"
         style="fill:#89a02c;fill-opacity:1;stroke:none;stroke-width:1.48000002;stroke-miterlimit:4;stroke-dasharray:none;stroke-opacity:1"
         id="path7644"
         d="M -31.912661,-45.149908 C -31.441717,-44.39911 -31.066327,-43.594828 -30.657907,-42.809667 C -30.357968,-42.233414 -30.096436,-41.636848 -29.784675,-41.066838 L -32.865367,-39.306107 C -33.155306,-39.890427 -33.385162,-40.503228 -33.672569,-41.089101 C -34.064113,-41.863741 -34.427017,-42.667051 -34.982599,-43.341634 L -31.912661,-45.149908 z" />
      <path
         inkscape:export-ydpi="10.39"
         inkscape:export-xdpi="10.39"
         inkscape:export-filename="C:\Projects\SQLiteWebSite\Tests\Test1\Images\greenpine_logo.png"
         style="fill:#89a02c;fill-opacity:1;stroke:none;stroke-width:1.48000002;stroke-miterlimit:4;stroke-dasharray:none;stroke-opacity:1"
         id="path7646"
         d="M -47.630274,-67.547602 C -47.665008,-66.756046 -47.66579,-65.963492 -47.665508,-65.171328 C -47.663482,-64.384974 -47.658086,-63.598637 -47.650983,-62.812316 C -47.651149,-62.259551 -47.643864,-61.706873 -47.632904,-61.154234 C -47.626492,-60.863377 -47.623274,-60.572471 -47.621849,-60.28155 C -47.621002,-60.042117 -47.621156,-59.802683 -47.621207,-59.563249 C -47.624763,-59.319369 -47.610254,-59.07497 -47.636635,-58.832182 C -47.676906,-58.679866 -47.648286,-58.75084 -47.720237,-58.618363 L -51.063653,-57.312053 C -50.944634,-57.310326 -51.001473,-57.304898 -50.892908,-57.325751 C -50.729946,-57.466284 -50.83584,-57.746255 -50.810872,-57.938033 C -50.810923,-58.177685 -50.811076,-58.417339 -50.81023,-58.65699 C -50.808794,-58.951664 -50.805533,-59.246325 -50.799174,-59.540939 C -50.788313,-60.09972 -50.780951,-60.658539 -50.781096,-61.217443 C -50.774013,-62.008699 -50.768608,-62.799971 -50.76657,-63.591258 C -50.766294,-64.371447 -50.766488,-65.152074 -50.801805,-65.931625 L -47.630274,-67.547602 z" />
      <path
         inkscape:export-ydpi="10.39"
         inkscape:export-xdpi="10.39"
         inkscape:export-filename="C:\Projects\SQLiteWebSite\Tests\Test1\Images\greenpine_logo.png"
         style="fill:#89a02c;fill-opacity:1;stroke:none;stroke-width:1.48000002;stroke-miterlimit:4;stroke-dasharray:none;stroke-opacity:1"
         id="path7648"
         d="M -47.751062,-63.96945 C -47.930819,-63.445008 -48.113381,-62.92156 -48.289211,-62.395771 C -48.423098,-62.009645 -48.53917,-61.617598 -48.669799,-61.230455 C -48.734307,-60.972701 -48.901459,-60.764596 -49.029094,-60.53746 C -49.176548,-60.327709 -49.353282,-60.136682 -49.532646,-59.953824 C -49.689742,-59.800224 -49.790414,-59.601895 -49.936558,-59.440411 C -50.04531,-59.302552 -50.153559,-59.1534 -50.291296,-59.042827 C -51.164616,-57.90182 -48.618457,-59.852785 -53.578607,-57.188573 L -50.679898,-59.318005 C -51.701454,-58.749071 -52.729227,-58.191159 -53.744567,-57.611203 C -53.766119,-57.598892 -53.693916,-57.60297 -53.670115,-57.610007 C -53.644164,-57.61768 -53.62441,-57.638995 -53.601557,-57.653488 C -53.453195,-57.869055 -53.646605,-57.609172 -53.48035,-57.77342 C -53.45829,-57.795212 -53.449319,-57.82798 -53.427375,-57.849888 C -53.40769,-57.869542 -53.377341,-57.876131 -53.357722,-57.895852 C -53.174341,-58.080192 -53.43225,-57.880977 -53.232461,-58.026014 C -53.03786,-58.317374 -53.315043,-57.918697 -53.103113,-58.173467 C -53.002186,-58.294794 -52.931041,-58.436594 -52.82899,-58.557955 C -52.677746,-58.759579 -52.493735,-58.934927 -52.314358,-59.112862 C -52.150899,-59.290938 -52.050223,-59.525353 -51.900823,-59.716148 C -51.764057,-60.110696 -51.618696,-60.502242 -51.489635,-60.89956 C -51.303049,-61.40158 -51.14066,-61.912183 -50.979721,-62.422787 L -47.751062,-63.96945 z" />
      <path
         inkscape:export-ydpi="10.39"
         inkscape:export-xdpi="10.39"
         inkscape:export-filename="C:\Projects\SQLiteWebSite\Tests\Test1\Images\greenpine_logo.png"
         style="fill:#89a02c;fill-opacity:1;stroke:none;stroke-width:1.48000002;stroke-miterlimit:4;stroke-dasharray:none;stroke-opacity:1"
         id="path7650"
         d="M -49.449279,-63.218365 C -49.654477,-62.7311 -49.828128,-62.232129 -49.996481,-61.731203 C -50.137323,-61.361474 -50.197651,-60.96986 -50.304036,-60.590339 C -50.356397,-60.417156 -50.430405,-60.252638 -50.50248,-60.087179 L -53.737244,-58.568159 C -53.691817,-58.749505 -53.611389,-58.907115 -53.539167,-59.078427 C -53.375876,-59.448751 -53.333644,-59.85182 -53.202951,-60.233167 C -53.02062,-60.71835 -52.869813,-61.214466 -52.684873,-61.698809 L -49.449279,-63.218365 z" />
      <path
         inkscape:export-ydpi="10.39"
         inkscape:export-xdpi="10.39"
         inkscape:export-filename="C:\Projects\SQLiteWebSite\Tests\Test1\Images\greenpine_logo.png"
         style="fill:#89a02c;fill-opacity:1;stroke:none;stroke-width:1.48000002;stroke-miterlimit:4;stroke-dasharray:none;stroke-opacity:1"
         id="path7654"
         d="M -47.403185,-63.692309 C -47.946169,-62.728793 -48.556033,-61.803866 -49.142675,-60.866263 C -49.28368,-60.649048 -49.424686,-60.431834 -49.56569,-60.214621 L -52.662631,-58.861065 C -52.510566,-59.079707 -52.358503,-59.298348 -52.206439,-59.516989 C -51.824093,-60.114956 -51.616942,-60.416819 -51.275453,-61.038882 C -51.166582,-61.237202 -51.071838,-61.442954 -50.97003,-61.64499 C -50.934334,-61.718273 -50.901685,-61.79312 -50.862943,-61.864838 C -50.828007,-61.929509 -50.787121,-61.990784 -50.74921,-62.053756 C -50.720189,-62.108455 -50.691168,-62.163153 -50.662147,-62.217851 L -47.403185,-63.692309 z" />
      <path
         inkscape:export-ydpi="10.39"
         inkscape:export-xdpi="10.39"
         inkscape:export-filename="C:\Projects\SQLiteWebSite\Tests\Test1\Images\greenpine_logo.png"
         style="fill:#786721;fill-opacity:1;stroke:none;stroke-width:1.48000002;stroke-miterlimit:4;stroke-dasharray:none;stroke-opacity:1"
         id="path7748"
         d="M -40.837895,-53.582029 C -41.226766,-51.124194 -41.373172,-48.649645 -41.54378,-46.180865 C -41.59238,-45.268489 -41.777001,-41.884342 -41.803841,-41.034332 C -41.922524,-37.275769 -41.738161,-39.743802 -41.935563,-36.045024 C -42.009794,-34.654135 -42.167672,-32.800737 -42.279843,-31.403936 C -42.541611,-28.296102 -42.650864,-25.18318 -42.732567,-22.070914 C -42.754852,-21.393874 -42.749507,-20.716845 -42.731319,-20.03986 L -47.663652,-18.315027 C -47.560594,-19.029518 -47.46336,-19.744385 -47.36269,-20.45904 C -46.894343,-23.658584 -46.464207,-26.86034 -46.122615,-30.067847 C -45.939909,-31.736675 -45.780403,-33.065011 -45.655021,-34.741535 C -45.404433,-38.092224 -45.330831,-41.448499 -45.45572,-44.802701 C -45.534629,-47.120263 -45.580929,-49.447736 -46.024341,-51.749056 L -40.837895,-53.582029 z" />
    </g>
    <text
       xml:space="preserve"
       style="font-size:7.06078672px;font-style:normal;font-variant:normal;font-weight:normal;font-stretch:normal;fill:#000000;fill-opacity:1;stroke:none;stroke-width:1px;stroke-linecap:butt;stroke-linejoin:miter;stroke-opacity:1;font-family:Courier New;-inkscape-font-specification:Courier New"
       x="80.935593"
       y="39.308979"
       id="text8522"
       inkscape:export-filename="C:\Projects\SQLiteWebSite\Tests\Test1\Images\greenpine_logo.png"
       inkscape:export-xdpi="10.39"
       inkscape:export-ydpi="10.39"
       transform="scale(0.8558808,1.168387)"><tspan
         sodipodi:role="line"
         id="tspan8524"
         x="80.935593"
         y="39.308979"
         style="font-size:21.1823616px;font-weight:bold;fill:#786721;-inkscape-font-specification:Courier New Bold">A product of Green Pine Software Ltd.</tspan></text>
  </g>
</svg>
