<?xml version="1.0" encoding="UTF-8" standalone="no"?>
<!-- Created with Inkscape (http://www.inkscape.org/) -->
<svg
   xmlns:dc="http://purl.org/dc/elements/1.1/"
   xmlns:cc="http://creativecommons.org/ns#"
   xmlns:rdf="http://www.w3.org/1999/02/22-rdf-syntax-ns#"
   xmlns:svg="http://www.w3.org/2000/svg"
   xmlns="http://www.w3.org/2000/svg"
   xmlns:sodipodi="http://sodipodi.sourceforge.net/DTD/sodipodi-0.dtd"
   xmlns:inkscape="http://www.inkscape.org/namespaces/inkscape"
   width="744.09448819"
   height="1052.3622047"
   id="svg2"
   sodipodi:version="0.32"
   inkscape:version="0.46"
   sodipodi:docname="feather.svg"
   inkscape:output_extension="org.inkscape.output.svg.inkscape">
  <defs
     id="defs4">
    <inkscape:perspective
       sodipodi:type="inkscape:persp3d"
       inkscape:vp_x="0 : 526.18109 : 1"
       inkscape:vp_y="0 : 1000 : 0"
       inkscape:vp_z="744.09448 : 526.18109 : 1"
       inkscape:persp3d-origin="372.04724 : 350.78739 : 1"
       id="perspective10" />
    <inkscape:perspective
       id="perspective3219"
       inkscape:persp3d-origin="372.04724 : 350.78739 : 1"
       inkscape:vp_z="744.09448 : 526.18109 : 1"
       inkscape:vp_y="0 : 1000 : 0"
       inkscape:vp_x="0 : 526.18109 : 1"
       sodipodi:type="inkscape:persp3d" />
  </defs>
  <sodipodi:namedview
     id="base"
     pagecolor="#ffffff"
     bordercolor="#666666"
     borderopacity="1.0"
     gridtolerance="10000"
     guidetolerance="10"
     objecttolerance="10"
     inkscape:pageopacity="0.0"
     inkscape:pageshadow="2"
     inkscape:zoom="0.62085723"
     inkscape:cx="432.15226"
     inkscape:cy="576.90655"
     inkscape:document-units="px"
     inkscape:current-layer="layer1"
     showgrid="false"
     inkscape:window-width="1038"
     inkscape:window-height="667"
     inkscape:window-x="299"
     inkscape:window-y="276" />
  <metadata
     id="metadata7">
    <rdf:RDF>
      <cc:Work
         rdf:about="">
        <dc:format>image/svg+xml</dc:format>
        <dc:type
           rdf:resource="http://purl.org/dc/dcmitype/StillImage" />
      </cc:Work>
    </rdf:RDF>
  </metadata>
  <g
     inkscape:label="Layer 1"
     inkscape:groupmode="layer"
     id="layer1">
    <path
       style="fill:#d3bc5f;stroke:#000000;stroke-opacity:1"
       d="M 147.39858,662.23229 C 147.78686,634.99685 148.00933,634.48073 182.52965,580.72355 C 201.63685,550.96869 223.47366,518.46149 231.05593,508.48533 C 241.00616,495.39356 242.67957,491.36544 237.07028,494.00777 C 227.71425,498.41509 222.86212,484.58648 229.36911,472.05936 C 234.10141,462.94887 251.91256,460.92579 255.08915,469.13795 C 256.21002,472.03557 274.5248,456.17652 295.78874,433.8956 C 335.22571,392.57248 389.65991,345.71077 420.6125,326.43645 C 430.09033,320.53456 435.13081,315.58983 431.81357,315.44817 C 427.79504,315.27656 425.78223,310.79405 425.78223,302.01634 C 425.78223,292.66377 430.82174,282.70163 443.15464,267.67448 C 452.70946,256.03229 459.07801,245.73515 457.30704,244.79194 C 455.53603,243.84873 445.00433,248.26436 433.90328,254.60445 C 408.24314,269.25959 399.06555,269.1918 403.38009,260.58961 C 418.30441,230.83397 499.02914,188.21785 496.92126,211.2093 C 495.51529,226.54477 500.36554,240.09831 477.47947,266.56348 C 465.1583,280.81154 451.20004,297.70843 446.46113,304.11213 L 437.84492,315.75521 L 446.46113,311.76602 C 475.83057,298.16837 473.02944,314.36153 441.2914,341.65217 C 424.7367,355.88707 417.4377,364.46455 423.0247,363.11838 C 434.93036,360.24975 439.09551,374.21841 428.30126,380.8144 C 356.71071,424.56082 295.24926,493.15493 237.02358,594.29008 C 195.46499,666.47534 176.78781,689.64128 160.14819,689.64128 L 147.00782,689.64128 L 147.39858,662.23229 z M 268.29911,559.43923 C 266.96742,553.89458 268.60116,547.48893 272.51247,542.91935 C 291.82049,535.16044 301.13897,538.46463 322.38773,523.08941 C 338.50004,510.69568 360.21288,496.15129 370.6385,490.76853 C 381.06411,485.38577 386.88005,480.84844 383.56281,480.68556 C 374.70317,480.25057 376.14491,473.89278 388.73264,457.88738 C 403.00125,439.74471 413.68631,430.65633 430.95195,421.97685 C 440.21327,417.32117 442.19279,414.92574 436.9833,414.67827 C 431.60323,414.4227 429.22871,410.93757 429.22871,403.29665 C 429.22871,393.50708 431.52638,392.28339 449.90761,392.28339 C 465.84649,392.28339 470.58651,390.41939 470.58651,384.1515 C 470.58651,365.45907 538.92793,297.38338 578.04227,277.11352 C 585.01488,273.50017 600.02297,260.93655 611.39361,249.19438 C 627.22097,232.84982 632.32848,224.30543 633.18097,212.74621 C 635.11769,186.48454 642.91067,190.16031 642.91067,217.33549 C 642.91067,249.49219 632.66682,264.64513 594.95017,288.2797 C 578.9975,298.27621 546.04205,325.49851 521.71588,348.77371 C 482.35508,386.434 478.45914,391.48232 486.32291,394.63578 C 498.93883,399.69489 496.58095,420.63897 482.6492,427.26783 C 456.47478,439.72188 391.22141,476.56496 392.29633,478.28247 C 392.95678,479.33771 398.81243,477.76549 405.30884,474.78863 C 411.80526,471.81178 424.10989,469.70238 432.65245,470.10108 L 430.01498,473.89384 C 404.16715,481.99643 384.21437,508.27508 345.70891,538.98877 C 319.36092,561.11929 279.62697,573.00293 268.29911,559.43923 z M 202.5277,460.80399 C 196.88484,454.48904 194.86785,446.69153 194.86785,431.1918 C 194.86785,407.03568 198.63427,400.61888 215.68778,395.72118 C 231.12396,391.28798 274.33297,358.41391 280.5903,346.34234 C 288.35916,331.35485 308.6018,336.14728 308.6018,352.97403 C 308.6018,367.45659 283.08094,433.5831 277.49153,433.5831 C 269.15587,433.5831 269.43097,408.72385 277.9708,390.26858 L 285.85353,373.23342 L 276.69195,384.74763 C 271.65309,391.08044 256.22177,401.93432 242.40016,408.86736 C 228.57856,415.80041 215.90005,423.41292 214.22572,425.78407 C 212.55134,428.15521 215.51398,436.0496 220.80933,443.32716 C 226.37515,450.97644 229.39138,459.26289 227.95833,462.96762 C 224.45788,472.01705 211.56731,470.92032 202.5277,460.80399 z M 328.13188,383.10568 C 324.21954,376.85471 325.80533,357.01443 331.11354,345.80123 C 339.06874,328.99656 337.09222,325.1621 325.43821,334.79099 C 317.68631,341.19584 313.65806,341.99182 310.94382,337.65509 C 302.81319,324.6644 360.75543,265.63095 381.6366,265.63095 C 398.74915,265.63095 397.5606,280.48501 378.29327,307.41446 C 368.70891,320.81025 356.10095,344.14687 350.27554,359.27361 C 340.42928,384.84112 333.73042,392.05077 328.13188,383.10568 z M 480.92596,289.36635 C 480.92596,281.25675 486.31467,275.88177 504.18972,266.16187 C 516.98479,259.2043 531.6403,250.84819 536.75754,247.59272 C 542.70351,243.81005 548.64132,243.51287 553.20905,246.76937 C 559.34362,251.14294 556.07156,254.87031 530.11906,273.07217 C 491.50408,300.15492 480.92596,303.65869 480.92596,289.36635 z M 496.55641,199.86497 C 493.32041,191.49918 499.52328,180.23864 511.868,172.0688 C 526.16339,162.60794 582.4162,167.19576 599.49718,179.21558 C 606.89661,184.42251 612.08336,190.06849 611.02329,191.76219 C 609.96325,193.45588 589.17548,195.61386 564.82821,196.55769 C 540.48098,197.50152 515.70814,200.04986 509.77743,202.22066 C 502.89805,204.73871 498.11178,203.88591 496.55641,199.86497 z"
       id="path3225"
       sodipodi:nodetypes="cssssssssssssssscccssssccccccsssssssssssssssssscccccssssscccssssccssssssccssssccsssssc" />
  </g>
</svg>
