<?xml version="1.0" encoding="UTF-8" standalone="no"?>
<!-- Created with Inkscape (http://www.inkscape.org/) -->
<svg
   xmlns:dc="http://purl.org/dc/elements/1.1/"
   xmlns:cc="http://creativecommons.org/ns#"
   xmlns:rdf="http://www.w3.org/1999/02/22-rdf-syntax-ns#"
   xmlns:svg="http://www.w3.org/2000/svg"
   xmlns="http://www.w3.org/2000/svg"
   xmlns:sodipodi="http://sodipodi.sourceforge.net/DTD/sodipodi-0.dtd"
   xmlns:inkscape="http://www.inkscape.org/namespaces/inkscape"
   width="164"
   height="314"
   id="svg3827"
   sodipodi:version="0.32"
   inkscape:version="0.46"
   version="1.0"
   sodipodi:docname="finish_page_banner.svg"
   inkscape:output_extension="org.inkscape.output.svg.inkscape"
   inkscape:export-filename="C:\Projects\SQLiteTurboDiff\Setup\finish_banner.png"
   inkscape:export-xdpi="90"
   inkscape:export-ydpi="90">
  <defs
     id="defs3829">
    <inkscape:perspective
       sodipodi:type="inkscape:persp3d"
       inkscape:vp_x="0 : 526.18109 : 1"
       inkscape:vp_y="0 : 1000 : 0"
       inkscape:vp_z="744.09448 : 526.18109 : 1"
       inkscape:persp3d-origin="372.04724 : 350.78739 : 1"
       id="perspective3835" />
  </defs>
  <sodipodi:namedview
     id="base"
     pagecolor="#ffffff"
     bordercolor="#666666"
     borderopacity="1.0"
     gridtolerance="10000"
     guidetolerance="10"
     objecttolerance="10"
     inkscape:pageopacity="0.0"
     inkscape:pageshadow="2"
     inkscape:zoom="2.6082803"
     inkscape:cx="25.641026"
     inkscape:cy="150.80179"
     inkscape:document-units="px"
     inkscape:current-layer="layer1"
     showgrid="false"
     inkscape:window-width="1680"
     inkscape:window-height="1024"
     inkscape:window-x="-4"
     inkscape:window-y="164" />
  <metadata
     id="metadata3832">
    <rdf:RDF>
      <cc:Work
         rdf:about="">
        <dc:format>image/svg+xml</dc:format>
        <dc:type
           rdf:resource="http://purl.org/dc/dcmitype/StillImage" />
      </cc:Work>
    </rdf:RDF>
  </metadata>
  <g
     inkscape:label="Layer 1"
     inkscape:groupmode="layer"
     id="layer1">
    <rect
       style="opacity:1;fill:#ffffff;fill-opacity:1;stroke:none;stroke-width:50;stroke-miterlimit:4;stroke-dasharray:none;stroke-opacity:1"
       id="rect4372"
       width="163.7094"
       height="314"
       x="0.76678956"
       y="0.76678878" />
    <path
       style="opacity:0.69230769;fill:#d4aa00;stroke:none;stroke-width:4.48199987000000010;stroke-miterlimit:4;stroke-dasharray:none;stroke-opacity:1"
       d="M 6.8096194,291.95306 C 7.0841119,275.99035 7.1538154,275.69083 17.814261,244.64976 C 23.714864,227.46836 30.449728,208.71094 32.780645,202.96657 C 35.839452,195.42829 36.364505,193.08974 34.667635,194.5615 C 31.837332,197.01635 30.463047,188.84175 32.486404,181.58698 C 33.957943,176.31084 39.309013,175.37057 40.213648,180.22914 C 40.532856,181.94348 46.115229,172.89819 52.619002,160.12846 C 64.681164,136.44525 81.271264,109.72178 90.662036,98.848536 C 93.537507,95.519102 95.077257,92.689586 94.083658,92.560755 C 92.879966,92.404685 92.302602,89.748831 92.35354,84.602503 C 92.407852,79.119126 93.976404,73.347928 97.760748,64.707817 C 100.69264,58.013915 102.66157,52.064691 102.13614,51.487244 C 101.61072,50.909791 98.427927,53.353298 95.063271,56.91724 C 87.285922,65.155308 84.535066,64.988885 85.878413,60.005023 C 90.525061,42.765461 114.97186,18.893994 114.20651,32.344676 C 113.69602,41.316359 115.07132,49.329669 108.05699,64.530181 C 104.28069,72.713688 99.99821,82.427599 98.540461,86.116674 L 95.889945,92.824015 L 98.496021,90.604079 C 107.3792,83.037221 106.44552,92.492512 96.772787,108.05483 C 91.727442,116.17222 89.489561,121.10039 91.172211,120.38827 C 94.757907,118.8707 95.925419,127.11796 92.651284,130.83615 C 70.936171,155.49637 52.113269,194.86446 34.071474,253.35584 C 21.194194,295.10418 15.460734,308.42828 10.472539,308.19873 L 6.5333595,308.01728 L 6.8096194,291.95306 z M 43.649477,233.35464 C 43.282454,230.08546 43.809429,226.35241 45.00843,223.72726 C 50.841582,219.44476 53.615867,221.51062 60.075023,212.78946 C 64.977017,205.74545 71.570463,197.51784 74.727076,194.50584 C 77.883653,191.49385 79.653491,188.91392 78.660005,188.77262 C 76.006627,188.39532 76.475726,184.68768 80.342119,175.47752 C 84.724853,165.03752 87.980739,159.8565 93.206975,155.00608 C 96.010301,152.4043 96.617618,151.02721 95.057388,150.8102 C 93.446045,150.58611 92.754457,148.51002 92.79883,144.0302 C 92.855674,138.29064 93.551529,137.60489 99.061789,137.8586 C 103.8399,138.07857 105.27165,137.05113 105.30805,133.37631 C 105.41656,122.41702 126.29887,83.447841 138.14213,72.103587 C 140.25328,70.081345 144.8253,62.922469 148.30212,56.195034 C 153.14171,46.830785 154.72242,41.891717 155.04505,35.126394 C 155.77811,19.756048 158.09293,22.018701 157.93514,37.951357 C 157.74852,56.804641 154.58966,65.547358 143.14587,78.883619 C 138.30563,84.524327 128.26834,100.02979 120.84079,113.34015 C 108.82273,134.87695 107.62553,137.78298 109.96457,139.74038 C 113.71721,142.88064 112.88876,155.12749 108.67386,158.82166 C 100.7551,165.76216 80.979794,186.46246 81.292055,187.48425 C 81.483908,188.11204 83.248441,187.27108 85.213189,185.61543 C 87.177938,183.95979 90.878798,182.89287 93.437385,183.24455 L 92.62471,185.4318 C 84.829092,189.82557 78.695181,204.95723 66.973827,222.43303 C 58.946881,235.04441 46.96659,241.46336 43.649477,233.35464 z M 24.505302,174.61756 C 22.850369,170.83724 22.290964,166.23775 22.380941,157.15034 C 22.521173,142.98773 23.687561,139.27756 28.828207,136.64145 C 33.481314,134.25535 46.625227,115.5778 48.571104,108.58666 C 50.987025,99.906816 57.02746,102.99597 56.929806,112.86141 C 56.845726,121.35247 48.811307,159.76985 47.135747,159.69271 C 44.636894,159.57767 44.86368,145.0066 47.530871,134.30424 L 49.99281,124.42542 L 47.179542,131.04968 C 45.632232,134.69304 40.943279,140.84363 36.75963,144.71768 C 32.575977,148.59172 28.731067,152.87991 28.215372,154.24699 C 27.699675,155.61408 28.542011,160.2834 30.087157,164.62328 C 31.71127,169.18484 32.567353,174.08478 32.116271,176.23705 C 31.014377,181.49437 27.156454,180.67344 24.505302,174.61756 z M 62.609559,130.79699 C 61.473011,127.07808 62.063541,115.46772 63.719897,108.96676 C 66.202261,99.224044 65.632003,96.948643 62.082495,102.43316 C 59.721499,106.08131 58.509298,106.4924 57.720788,103.91232 C 55.358884,96.183715 73.071259,62.372437 79.330935,62.660657 C 84.460886,62.896819 84.018335,71.589273 78.086121,87.111966 C 75.135211,94.833535 71.220165,108.34167 69.386029,117.13001 C 66.285958,131.98421 64.235933,136.11873 62.609559,130.79699 z M 108.95778,77.946976 C 109.00486,73.19235 110.65151,70.115404 116.06643,64.663381 C 119.94249,60.760773 124.38436,56.063924 125.93728,54.22588 C 127.7417,52.090181 129.52346,51.99793 130.87387,53.970219 C 132.68747,56.619074 131.68492,58.759245 123.79932,69.072723 C 112.06623,84.418244 108.87481,86.326498 108.95778,77.946976 z M 114.16297,25.688507 C 113.24146,20.739011 115.1663,14.222616 118.91438,9.6030855 C 123.25472,4.2535245 140.09136,7.719752 145.14211,15.002657 C 147.33004,18.15758 148.85215,21.539378 148.52452,22.517748 C 148.19693,23.496114 141.9527,24.474418 134.64845,24.691729 C 127.34425,24.909057 119.90314,26.06124 118.11268,27.252115 C 116.03578,28.633489 114.60589,28.067427 114.16297,25.688507 z"
       id="path3225"
       sodipodi:nodetypes="cssssssssssssssscccssssccccccsssssssssssssssssscccccssssscccssssccssssssccssssccsssssc"
       inkscape:export-filename="C:\Projects\SQLiteWebSite\Tests\Test2\Images\appicon.png"
       inkscape:export-xdpi="90"
       inkscape:export-ydpi="90" />
    <text
       xml:space="preserve"
       style="font-size:17.08254623px;font-style:normal;font-variant:normal;font-weight:normal;font-stretch:normal;opacity:0.97000002;fill:#aa4400;fill-opacity:1;stroke:none;stroke-width:1px;stroke-linecap:butt;stroke-linejoin:miter;stroke-opacity:1;font-family:Bauhaus 93;-inkscape-font-specification:'Bauhaus 93,'"
       x="76.602928"
       y="243.30115"
       id="text3270"
       inkscape:export-filename="C:\Projects\SQLiteWebSite\Tests\Test2\Images\installer_banner.png"
       inkscape:export-xdpi="90"
       inkscape:export-ydpi="90"
       transform="scale(0.9105436,1.0982451)"><tspan
         sodipodi:role="line"
         id="tspan3272"
         x="76.602928"
         y="243.30115"
         style="font-size:34.16509247px;fill:#aa4400">SQLite</tspan></text>
    <text
       xml:space="preserve"
       style="font-size:34.35803604px;font-style:normal;font-variant:normal;font-weight:normal;font-stretch:normal;fill:#aa4400;fill-opacity:0.97254902;stroke:none;stroke-width:1px;stroke-linecap:butt;stroke-linejoin:miter;stroke-opacity:1;font-family:Bauhaus 93;-inkscape-font-specification:'Bauhaus 93,'"
       x="23.397957"
       y="265.89355"
       id="text3269"
       transform="scale(0.8840445,1.1311648)"><tspan
         sodipodi:role="line"
         id="tspan3271"
         x="23.397957"
         y="265.89355"> Compare</tspan></text>
  </g>
</svg>
