<?xml version="1.0" encoding="UTF-8" standalone="no"?>
<!-- Created with Inkscape (http://www.inkscape.org/) -->
<svg
   xmlns:dc="http://purl.org/dc/elements/1.1/"
   xmlns:cc="http://creativecommons.org/ns#"
   xmlns:rdf="http://www.w3.org/1999/02/22-rdf-syntax-ns#"
   xmlns:svg="http://www.w3.org/2000/svg"
   xmlns="http://www.w3.org/2000/svg"
   xmlns:sodipodi="http://sodipodi.sourceforge.net/DTD/sodipodi-0.dtd"
   xmlns:inkscape="http://www.inkscape.org/namespaces/inkscape"
   width="1282.9498"
   height="748.7666"
   id="svg7394"
   sodipodi:version="0.32"
   inkscape:version="0.46"
   version="1.0"
   sodipodi:docname="greenpinesoftware_logo.svg"
   inkscape:output_extension="org.inkscape.output.svg.inkscape"
   inkscape:export-filename="C:\Projects\SQLiteWebSite\Tests\Test1\Images\greenpine_logo.png"
   inkscape:export-xdpi="10.39"
   inkscape:export-ydpi="10.39">
  <defs
     id="defs7396">
    <inkscape:perspective
       sodipodi:type="inkscape:persp3d"
       inkscape:vp_x="0 : 526.18109 : 1"
       inkscape:vp_y="0 : 1000 : 0"
       inkscape:vp_z="744.09448 : 526.18109 : 1"
       inkscape:persp3d-origin="372.04724 : 350.78739 : 1"
       id="perspective7402" />
  </defs>
  <sodipodi:namedview
     id="base"
     pagecolor="#ffffff"
     bordercolor="#666666"
     borderopacity="1.0"
     gridtolerance="10000"
     guidetolerance="10"
     objecttolerance="10"
     inkscape:pageopacity="0.0"
     inkscape:pageshadow="2"
     inkscape:zoom="0.17774813"
     inkscape:cx="641.47491"
     inkscape:cy="374.3833"
     inkscape:document-units="px"
     inkscape:current-layer="layer1"
     showgrid="false"
     inkscape:window-width="640"
     inkscape:window-height="667"
     inkscape:window-x="532"
     inkscape:window-y="358" />
  <metadata
     id="metadata7399">
    <rdf:RDF>
      <cc:Work
         rdf:about="">
        <dc:format>image/svg+xml</dc:format>
        <dc:type
           rdf:resource="http://purl.org/dc/dcmitype/StillImage" />
      </cc:Work>
    </rdf:RDF>
  </metadata>
  <g
     inkscape:label="Layer 1"
     inkscape:groupmode="layer"
     id="layer1"
     transform="translate(-39.525887,-23.786783)">
    <g
       id="g8459" />
    <flowRoot
       xml:space="preserve"
       id="flowRoot8320"
       style="font-size:48px;font-style:normal;font-variant:normal;font-weight:normal;font-stretch:normal;fill:#000000;fill-opacity:1;stroke:none;stroke-width:1px;stroke-linecap:butt;stroke-linejoin:miter;stroke-opacity:1;font-family:Courier New;-inkscape-font-specification:Courier New"><flowRegion
         id="flowRegion8322"><rect
           id="rect8324"
           width="8.9945488"
           height="233.85826"
           x="-325.08868"
           y="-188.60786"
           style="font-style:normal;font-variant:normal;font-weight:normal;font-stretch:normal;font-family:Courier New;-inkscape-font-specification:Courier New" /></flowRegion><flowPara
         id="flowPara8326" /></flowRoot>    <text
       xml:space="preserve"
       style="font-size:48px;font-style:normal;font-variant:normal;font-weight:normal;font-stretch:normal;fill:#000000;fill-opacity:1;stroke:none;stroke-width:1px;stroke-linecap:butt;stroke-linejoin:miter;stroke-opacity:1;font-family:Courier New;-inkscape-font-specification:Courier New"
       x="-291.68036"
       y="31.1161"
       id="text8328"
       transform="translate(53.031727,23.786783)"><tspan
         sodipodi:role="line"
         id="tspan8330"
         x="-291.68036"
         y="31.1161" /></text>
    <g
       id="g2489">
      <path
         inkscape:export-ydpi="10.39"
         inkscape:export-xdpi="10.39"
         inkscape:export-filename="C:\Projects\SQLiteWebSite\Tests\Test1\Images\greenpine_logo.png"
         transform="translate(53.031727,23.786783)"
         id="path8516"
         d="M 444.587,295.15631 L 542.89929,295.15631 L 542.89929,723.7666 L 11.49416,723.7666 L 11.49416,295.15631 L 11.49416,295.15631 L 89.931495,295.15631"
         style="fill:none;fill-opacity:1;stroke:#d45500;stroke-width:50;stroke-miterlimit:4;stroke-dasharray:none;stroke-opacity:1" />
      <path
         inkscape:export-ydpi="10.39"
         inkscape:export-xdpi="10.39"
         inkscape:export-filename="C:\Projects\SQLiteWebSite\Tests\Test1\Images\greenpine_logo.png"
         style="fill:#89a02c;fill-opacity:1;stroke:none;stroke-width:1.48000002000000010;stroke-miterlimit:4;stroke-dasharray:none;stroke-opacity:1"
         id="path7468"
         d="M 231.86567,391.46184 C 233.72994,408.24947 235.90761,425.17036 235.04164,442.09884 C 234.7978,446.86568 234.19227,451.60714 233.76758,456.36128 C 232.99776,461.17556 232.39876,466.02028 231.45811,470.80411 C 228.40574,486.32754 223.5065,503.8821 216.20718,518.01281 C 214.88144,520.57929 213.24715,522.97426 211.76714,525.45498 C 207.08291,531.57419 201.81474,537.7391 195.01968,541.63522 C 144.79534,570.43261 163.35207,565.8343 141.02697,570.9333 C 139.81002,571.05727 138.59308,571.18124 137.37613,571.30521 L 181.26681,538.16791 C 182.35258,537.86399 183.43835,537.56007 184.52412,537.25615 C 203.14126,529.48876 186.78602,536.15605 144.12872,561.26115 C 142.77616,562.05717 146.95421,559.88674 148.30754,559.09201 C 154.01614,555.73971 158.9906,551.4101 163.48528,546.56574 C 165.25416,544.19906 167.20722,541.95947 168.79191,539.46571 C 177.65095,525.52461 182.97035,508.92018 186.3563,492.87271 C 187.33341,488.24178 187.91287,483.53579 188.69115,478.86734 C 189.02866,474.30421 189.53322,469.75038 189.70368,465.17797 C 190.29981,449.18728 188.55694,432.93251 183.11317,417.8262 L 231.86567,391.46184 z" />
      <path
         inkscape:export-ydpi="10.39"
         inkscape:export-xdpi="10.39"
         inkscape:export-filename="C:\Projects\SQLiteWebSite\Tests\Test1\Images\greenpine_logo.png"
         style="fill:#89a02c;fill-opacity:1;stroke:none;stroke-width:1.48000002000000010;stroke-miterlimit:4;stroke-dasharray:none;stroke-opacity:1"
         id="path7470"
         d="M 280.31864,267.92366 C 278.93924,282.62848 278.13662,297.41037 276.09538,312.05175 C 274.34315,324.62005 272.77282,330.88627 270.11586,343.3854 C 265.25701,363.09713 259.30294,382.75653 249.16297,400.47817 C 243.59895,410.20241 241.62371,412.00741 234.79434,420.50723 C 228.49817,426.91039 221.80143,433.19117 213.96732,437.71421 C 196.90801,447.56342 179.83818,457.4017 162.54812,466.83997 C 160.96171,467.70596 159.16662,468.14163 157.4145,468.58517 C 156.02265,468.9375 154.57417,469.00706 153.154,469.21801 C 151.99762,469.13242 150.84123,469.04683 149.68485,468.96123 L 194.30445,436.43024 C 195.14949,436.31152 195.99454,436.1928 196.83959,436.07408 C 214.14373,431.06858 235.5131,414.70778 164.3672,456.89972 C 162.08604,458.25253 169.06172,454.41935 171.30446,453.00375 C 178.95425,448.1753 180.37585,446.53695 187.53112,440.52305 C 194.72141,432.57734 197.29943,430.36823 203.20693,421.11307 C 214.15334,403.96356 220.66697,384.53158 225.60103,364.93068 C 226.6555,359.72482 227.83171,354.54215 228.76444,349.3131 C 232.07653,330.74485 233.72709,311.77394 231.08569,293.0091 L 280.31864,267.92366 z" />
      <path
         inkscape:export-ydpi="10.39"
         inkscape:export-xdpi="10.39"
         inkscape:export-filename="C:\Projects\SQLiteWebSite\Tests\Test1\Images\greenpine_logo.png"
         style="fill:#89a02c;fill-opacity:1;stroke:none;stroke-width:1.48000002000000010;stroke-miterlimit:4;stroke-dasharray:none;stroke-opacity:1"
         id="path7472"
         d="M 301.26535,144.33448 C 302.71911,159.3154 303.45998,174.46151 302.3022,189.49292 C 301.9528,194.02928 301.33324,198.54078 300.84876,203.06471 C 297.23004,223.41942 290.34461,243.1114 279.35807,260.6962 C 272.40303,271.82828 270.26218,273.46903 261.76254,283.0655 C 254.26742,290.48548 246.12969,297.42256 236.95941,302.71584 C 219.7465,312.65149 202.5088,322.54939 185.09083,332.12101 C 183.30347,333.10321 181.34797,333.76925 179.39297,334.35008 C 177.82379,334.81628 176.17426,334.94887 174.5649,335.24827 L 217.93685,302.13425 C 235.18506,296.75634 255.70756,281.35219 187.92311,321.66167 C 185.22289,323.26742 193.45551,318.67428 196.11925,317.00871 C 205.87702,310.90743 206.03543,310.2089 215.19269,302.54467 C 218.43307,299.24539 221.89055,296.14614 224.91383,292.64684 C 241.36971,273.59999 251.28677,250.30255 255.47619,225.61819 C 255.87588,221.27242 256.44503,216.93891 256.67525,212.58087 C 257.41049,198.6631 256.2781,184.35561 252.48652,170.92353 L 301.26535,144.33448 z" />
      <path
         inkscape:export-ydpi="10.39"
         inkscape:export-xdpi="10.39"
         inkscape:export-filename="C:\Projects\SQLiteWebSite\Tests\Test1\Images\greenpine_logo.png"
         style="fill:#89a02c;fill-opacity:1;stroke:none;stroke-width:1.48000002000000010;stroke-miterlimit:4;stroke-dasharray:none;stroke-opacity:1"
         id="path7476"
         d="M 353.36423,26.356654 C 345.57299,41.214406 340.49509,57.329183 334.06844,72.787677 C 331.69609,78.494068 329.10119,84.105376 326.61757,89.764225 C 323.55727,96.13571 320.62439,102.56998 317.43667,108.87868 C 311.31697,120.98998 301.78045,138.27164 295.18378,150.12025 C 285.843,166.8977 276.20496,183.44597 266.20582,199.83655 C 261.15876,208.21983 255.64653,216.29001 249.86575,224.17643 L 200.84865,245.0404 C 208.15275,236.99759 215.06019,228.63352 221.16674,219.62236 C 224.39862,214.86823 227.71326,210.16931 230.86238,205.35997 C 250.64625,175.14598 268.20887,143.32854 282.43403,110.12458 C 284.55318,104.72122 286.80166,99.366811 288.79149,93.914496 C 294.12866,79.290089 298.45436,64.262313 302.67835,49.288545 L 353.36423,26.356654 z" />
      <path
         inkscape:export-ydpi="10.39"
         inkscape:export-xdpi="10.39"
         inkscape:export-filename="C:\Projects\SQLiteWebSite\Tests\Test1\Images\greenpine_logo.png"
         d="M 411.78202,388.89197 C 409.91775,405.6796 407.74008,422.60049 408.60605,439.52897 C 408.84989,444.29581 409.45542,449.03727 409.88011,453.79141 C 410.64993,458.60569 411.24893,463.45041 412.18958,468.23424 C 415.24195,483.75767 420.14119,501.31223 427.44051,515.44294 C 428.76625,518.00942 430.40054,520.40439 431.88055,522.88511 C 436.56478,529.00432 441.83295,535.16923 448.62801,539.06535 C 498.85235,567.86274 480.29562,563.26443 502.62072,568.36343 C 503.83767,568.4874 505.05461,568.61137 506.27156,568.73534 L 462.38088,535.59804 C 461.29511,535.29412 460.20934,534.9902 459.12357,534.68628 C 440.50643,526.91889 456.86167,533.58618 499.51897,558.69128 C 500.87153,559.4873 496.69348,557.31687 495.34015,556.52214 C 489.63155,553.16984 484.65709,548.84023 480.16241,543.99587 C 478.39353,541.62919 476.44047,539.3896 474.85578,536.89584 C 465.99674,522.95474 460.67734,506.35031 457.29139,490.30284 C 456.31428,485.67191 455.73482,480.96592 454.95654,476.29747 C 454.61903,471.73434 454.11447,467.18051 453.94401,462.6081 C 453.34788,446.61741 455.09075,430.36264 460.53452,415.25633 L 411.78202,388.89197 z"
         id="path7478"
         style="fill:#89a02c;fill-opacity:1;stroke:none;stroke-width:1.48000002000000010;stroke-miterlimit:4;stroke-dasharray:none;stroke-opacity:1" />
      <path
         inkscape:export-ydpi="10.39"
         inkscape:export-xdpi="10.39"
         inkscape:export-filename="C:\Projects\SQLiteWebSite\Tests\Test1\Images\greenpine_logo.png"
         d="M 363.32905,265.35379 C 364.70845,280.05861 365.51107,294.8405 367.55231,309.48188 C 369.30454,322.05018 370.87487,328.3164 373.53183,340.81553 C 378.39068,360.52726 384.34475,380.18666 394.48472,397.9083 C 400.04874,407.63254 402.02398,409.43754 408.85335,417.93736 C 415.14952,424.34052 421.84626,430.6213 429.68037,435.14434 C 446.73968,444.99355 463.80951,454.83183 481.09957,464.2701 C 482.68598,465.13609 484.48107,465.57176 486.23319,466.0153 C 487.62504,466.36763 489.07352,466.43719 490.49369,466.64814 C 491.65007,466.56255 492.80646,466.47696 493.96284,466.39136 L 449.34324,433.86037 C 448.4982,433.74165 447.65315,433.62293 446.8081,433.50421 C 429.50396,428.49871 408.13459,412.13791 479.28049,454.32985 C 481.56165,455.68266 474.58597,451.84948 472.34323,450.43388 C 464.69344,445.60543 463.27184,443.96708 456.11657,437.95318 C 448.92628,430.00747 446.34826,427.79836 440.44076,418.5432 C 429.49435,401.39369 422.98072,381.96171 418.04666,362.36081 C 416.99219,357.15495 415.81598,351.97228 414.88325,346.74323 C 411.57116,328.17498 409.9206,309.20407 412.562,290.43923 L 363.32905,265.35379 z"
         id="path7480"
         style="fill:#89a02c;fill-opacity:1;stroke:none;stroke-width:1.48000002000000010;stroke-miterlimit:4;stroke-dasharray:none;stroke-opacity:1" />
      <path
         inkscape:export-ydpi="10.39"
         inkscape:export-xdpi="10.39"
         inkscape:export-filename="C:\Projects\SQLiteWebSite\Tests\Test1\Images\greenpine_logo.png"
         d="M 342.38234,141.76461 C 340.92858,156.74553 340.18771,171.89164 341.34549,186.92305 C 341.69489,191.45941 342.31445,195.97091 342.79893,200.49484 C 346.41765,220.84955 353.30308,240.54153 364.28962,258.12633 C 371.24466,269.25841 373.38551,270.89916 381.88515,280.49563 C 389.38027,287.91561 397.518,294.85269 406.68828,300.14597 C 423.90119,310.08162 441.13889,319.97952 458.55686,329.55114 C 460.34422,330.53334 462.29972,331.19938 464.25472,331.78021 C 465.8239,332.24641 467.47343,332.379 469.08279,332.6784 L 425.71084,299.56438 C 408.46263,294.18647 387.94013,278.78232 455.72458,319.0918 C 458.4248,320.69755 450.19218,316.10441 447.52844,314.43884 C 437.77067,308.33756 437.61226,307.63903 428.455,299.9748 C 425.21462,296.67552 421.75714,293.57627 418.73386,290.07697 C 402.27798,271.03012 392.36092,247.73268 388.1715,223.04832 C 387.77181,218.70255 387.20266,214.36904 386.97244,210.011 C 386.2372,196.09323 387.36959,181.78574 391.16117,168.35366 L 342.38234,141.76461 z"
         id="path7482"
         style="fill:#89a02c;fill-opacity:1;stroke:none;stroke-width:1.48000002000000010;stroke-miterlimit:4;stroke-dasharray:none;stroke-opacity:1" />
      <path
         inkscape:export-ydpi="10.39"
         inkscape:export-xdpi="10.39"
         inkscape:export-filename="C:\Projects\SQLiteWebSite\Tests\Test1\Images\greenpine_logo.png"
         d="M 290.28346,23.786783 C 298.0747,38.644535 303.1526,54.759312 309.57925,70.217806 C 311.9516,75.924197 314.5465,81.535505 317.03012,87.194354 C 320.09042,93.565839 323.0233,100.00011 326.21102,106.30881 C 332.33072,118.42011 341.86724,135.70177 348.46391,147.55038 C 357.80469,164.32783 367.44273,180.8761 377.44187,197.26668 C 382.48893,205.64996 388.00116,213.72014 393.78194,221.60656 L 442.79904,242.47053 C 435.49494,234.42772 428.5875,226.06365 422.48095,217.05249 C 419.24907,212.29836 415.93443,207.59944 412.78531,202.7901 C 393.00144,172.57611 375.43882,140.75867 361.21366,107.55471 C 359.09451,102.15135 356.84603,96.79694 354.8562,91.344625 C 349.51903,76.720218 345.19333,61.692442 340.96934,46.718674 L 290.28346,23.786783 z"
         id="path7484"
         style="fill:#89a02c;fill-opacity:1;stroke:none;stroke-width:1.48000002000000010;stroke-miterlimit:4;stroke-dasharray:none;stroke-opacity:1" />
      <path
         inkscape:export-ydpi="10.39"
         inkscape:export-xdpi="10.39"
         inkscape:export-filename="C:\Projects\SQLiteWebSite\Tests\Test1\Images\greenpine_logo.png"
         style="fill:#89a02c;fill-opacity:1;stroke:none;stroke-width:1.48000002000000010;stroke-miterlimit:4;stroke-dasharray:none;stroke-opacity:1"
         id="path7544"
         d="M 262.04468,284.87014 C 259.73881,292.1523 257.03903,299.30025 254.55442,306.52035 C 251.40436,315.67419 251.72749,315.69584 248.15754,324.93763 C 246.9022,328.18743 245.51549,331.38495 244.19447,334.60861 C 237.73262,349.27246 230.42225,363.53921 222.64875,377.54539 C 220.89219,380.63733 219.00488,383.65684 216.44732,386.14313 L 164.69017,406.92005 C 165.83596,406.15712 167.09273,405.5554 168.17697,404.70726 C 170.29508,403.05037 171.24428,401.59983 172.98972,399.46305 C 182.30307,385.89242 190.0902,371.33 196.95941,356.38549 C 203.3725,341.05308 209.09048,325.23299 212.15185,308.85614 L 262.04468,284.87014 z" />
      <path
         inkscape:export-ydpi="10.39"
         inkscape:export-xdpi="10.39"
         inkscape:export-filename="C:\Projects\SQLiteWebSite\Tests\Test1\Images\greenpine_logo.png"
         style="fill:#89a02c;fill-opacity:1;stroke:none;stroke-width:1.48000002000000010;stroke-miterlimit:4;stroke-dasharray:none;stroke-opacity:1"
         id="path7558"
         d="M 240.17536,338.272 C 236.42768,351.85272 231.61721,365.10462 225.77168,377.92646 C 223.95898,381.90252 221.99048,385.80569 220.09987,389.74531 C 213.37685,404.19823 205.22495,417.95253 195.45461,430.55768 C 191.04706,436.24407 188.33139,439.1002 183.65307,444.31287 C 167.94801,461.53064 160.47273,462.76719 135.37866,477.26292 L 164.84563,453.56349 C 97.357714,492.97509 132.73195,473.6243 141.06491,466.83602 C 144.92448,463.69189 146.70771,461.79795 150.42301,458.21137 C 155.34627,453.13174 158.48503,450.07852 163.08088,444.5046 C 173.24998,432.17134 181.6884,418.54765 188.52946,404.11057 C 195.92287,388.27103 203.19604,372.13907 206.05999,354.75705 L 240.17536,338.272 z" />
      <path
         inkscape:export-ydpi="10.39"
         inkscape:export-xdpi="10.39"
         inkscape:export-filename="C:\Projects\SQLiteWebSite\Tests\Test1\Images\greenpine_logo.png"
         style="fill:#89a02c;fill-opacity:1;stroke:none;stroke-width:1.48000002000000010;stroke-miterlimit:4;stroke-dasharray:none;stroke-opacity:1"
         id="path7560"
         d="M 262.39106,190.77125 C 261.62748,206.48501 257.16213,221.62522 252.43078,236.51949 C 245.10198,257.24474 235.43171,277.0518 223.5398,295.52542 C 220.98033,299.52609 218.00044,303.19078 214.82224,306.70227 L 180.19551,321.0025 C 183.97133,317.70526 187.41974,314.13698 190.31833,310.01287 C 191.85752,307.88931 193.46533,305.81383 194.93591,303.6422 C 205.85098,287.52371 214.28964,269.83974 220.72956,251.49585 C 224.43802,239.06671 223.5974,242.88141 226.0804,230.98944 C 227.64787,223.48226 229.29283,215.77111 228.4543,208.06289 L 262.39106,190.77125 z" />
      <path
         inkscape:export-ydpi="10.39"
         inkscape:export-xdpi="10.39"
         inkscape:export-filename="C:\Projects\SQLiteWebSite\Tests\Test1\Images\greenpine_logo.png"
         style="fill:#89a02c;fill-opacity:1;stroke:none;stroke-width:1.48000002000000010;stroke-miterlimit:4;stroke-dasharray:none;stroke-opacity:1"
         id="path7562"
         d="M 424.31343,184.18243 C 423.85206,194.77877 423.0712,205.40137 423.14268,216.01312 C 423.17067,220.16823 423.42134,224.31886 423.56068,228.47173 C 424.5973,234.81951 425.20701,241.25192 426.67055,247.51506 C 434.03288,279.0217 448.27096,310.83032 462.97004,339.58199 C 465.93328,345.37815 469.14705,351.04277 472.23555,356.77316 C 478.49477,368.38286 486.04263,379.17851 493.69566,389.88492 L 462.9841,407.8203 C 456.32613,396.35683 449.70853,384.86288 443.84444,372.9639 C 441.01143,367.04773 438.09731,361.16971 435.34541,355.21537 C 424.91546,332.64785 415.23616,309.74192 406.3988,286.50474 C 403.43588,278.71394 400.38095,270.95025 397.78523,263.02954 C 395.78618,256.92951 394.34537,250.66048 392.62544,244.47595 C 392.25244,240.3615 391.76145,236.25604 391.50643,232.13259 C 390.87599,221.93886 391.25865,211.67937 390.33569,201.49496 L 424.31343,184.18243 z" />
      <path
         inkscape:export-ydpi="10.39"
         inkscape:export-xdpi="10.39"
         inkscape:export-filename="C:\Projects\SQLiteWebSite\Tests\Test1\Images\greenpine_logo.png"
         style="fill:#89a02c;fill-opacity:1;stroke:none;stroke-width:1.48000002000000010;stroke-miterlimit:4;stroke-dasharray:none;stroke-opacity:1"
         id="path7564"
         d="M 436.2764,309.61674 C 443.05193,328.89662 449.33539,348.33989 456.02929,367.64882 C 465.3251,392.46421 476.43421,416.71935 490.30303,439.33755 C 492.21687,442.45877 494.29001,445.47947 496.28349,448.55043 C 498.01291,450.91719 499.74233,453.28395 501.47175,455.6507 L 470.50867,473.81621 C 468.93779,471.28899 467.36691,468.76177 465.79603,466.23455 C 450.90038,439.73871 437.73359,412.28243 426.45916,384.04815 C 418.7645,364.14077 423.00282,374.9792 415.64589,356.40739 C 411.90406,346.96154 408.23511,337.45481 403.34596,328.52281 L 436.2764,309.61674 z" />
      <path
         inkscape:export-ydpi="10.39"
         inkscape:export-xdpi="10.39"
         inkscape:export-filename="C:\Projects\SQLiteWebSite\Tests\Test1\Images\greenpine_logo.png"
         style="fill:#89a02c;fill-opacity:1;stroke:none;stroke-width:1.48000002000000010;stroke-miterlimit:4;stroke-dasharray:none;stroke-opacity:1"
         id="path7566"
         d="M 479.78667,449.47093 C 482.6495,460.00698 486.79709,470.04572 491.38077,479.9295 C 495.96789,489.31318 501.81624,498.06946 508.98539,505.68613 C 513.5335,510.51816 516.18897,512.56633 521.18376,516.84571 C 525.6741,520.58918 530.62436,523.68478 535.57792,526.75758 L 504.20464,546.78074 C 499.57326,543.25104 494.88675,539.78443 490.53016,535.91099 C 485.87185,531.74583 482.45358,528.86499 478.14403,524.27945 C 470.75948,516.42199 464.55836,507.48225 459.60765,497.91499 C 454.96541,488.12335 450.83233,478.13483 446.5965,468.16976 L 479.78667,449.47093 z" />
      <path
         inkscape:export-ydpi="10.39"
         inkscape:export-xdpi="10.39"
         inkscape:export-filename="C:\Projects\SQLiteWebSite\Tests\Test1\Images\greenpine_logo.png"
         style="fill:#89a02c;fill-opacity:1;stroke:none;stroke-width:1.48000002000000010;stroke-miterlimit:4;stroke-dasharray:none;stroke-opacity:1"
         id="path7568"
         d="M 295.81988,325.52534 C 294.79747,337.37726 295.13654,349.29543 294.47213,361.16373 C 294.26087,364.93731 293.88435,368.69982 293.59047,372.46786 C 292.49465,384.91408 289.62692,397.05558 286.63043,409.14667 C 283.83409,420.43012 280.73196,431.53816 277.27905,442.63657 C 271.51351,459.78566 264.11384,476.40484 255.18665,492.14012 C 244.66294,508.90259 240.47843,505.57868 214.88676,520.30461 L 244.75844,496.75153 C 177.80556,536.3666 210.97176,519.70843 218.60787,510.83626 C 219.67097,509.60108 220.61282,508.26652 221.6153,506.98166 C 231.69106,491.67632 239.39609,474.8911 245.47792,457.62816 C 252.79813,434.99083 259.61928,411.9574 262.11021,388.21564 C 262.36763,384.54404 262.75518,380.87926 262.88248,377.20085 C 263.27856,365.7563 262.47499,354.25749 261.84214,342.83786 L 295.81988,325.52534 z" />
      <path
         inkscape:export-ydpi="10.39"
         inkscape:export-xdpi="10.39"
         inkscape:export-filename="C:\Projects\SQLiteWebSite\Tests\Test1\Images\greenpine_logo.png"
         style="fill:#89a02c;fill-opacity:1;stroke:none;stroke-width:1.48000002000000010;stroke-miterlimit:4;stroke-dasharray:none;stroke-opacity:1"
         id="path7570"
         d="M 295.73505,293.65951 C 292.50703,305.79435 290.97107,318.31786 288.82686,330.67179 C 288.13084,334.6819 287.32654,338.67246 286.57638,342.67279 C 285.48651,347.34966 284.48441,352.04785 283.30678,356.70339 C 281.73733,362.90789 276.02146,383.3561 274.36224,389.22987 C 269.64265,405.9377 264.6696,422.53708 259.43323,439.08929 C 250.79196,463.56242 243.19488,488.38297 234.93503,512.98336 L 201.94693,528.30053 C 212.39431,503.86498 220.69079,478.56744 229.08665,453.37461 C 239.42581,422.073 248.7847,390.35521 255.17284,357.98811 C 257.79965,342.12048 260.0813,326.19449 261.31216,310.14952 L 295.73505,293.65951 z" />
      <path
         inkscape:export-ydpi="10.39"
         inkscape:export-xdpi="10.39"
         inkscape:export-filename="C:\Projects\SQLiteWebSite\Tests\Test1\Images\greenpine_logo.png"
         style="fill:#89a02c;fill-opacity:1;stroke:none;stroke-width:1.48000002000000010;stroke-miterlimit:4;stroke-dasharray:none;stroke-opacity:1"
         id="path7572"
         d="M 276.46388,378.86426 C 275.96315,393.4202 272.63261,407.62308 268.65384,421.56476 C 262.567,438.34182 256.68081,455.20715 249.76006,471.66476 L 216.00917,486.99964 C 224.569,471.09595 230.78557,454.05345 236.33917,436.90226 C 240.18922,423.70919 243.67394,409.95161 242.65007,396.09326 L 276.46388,378.86426 z" />
      <path
         inkscape:export-ydpi="10.39"
         inkscape:export-xdpi="10.39"
         inkscape:export-filename="C:\Projects\SQLiteWebSite\Tests\Test1\Images\greenpine_logo.png"
         style="fill:#89a02c;fill-opacity:1;stroke:none;stroke-width:1.48000002000000010;stroke-miterlimit:4;stroke-dasharray:none;stroke-opacity:1"
         id="path7574"
         d="M 319.91299,261.20413 C 314.60958,281.61582 308.02118,301.66446 301.17995,321.60316 C 291.15019,350.74792 281.20289,379.92053 270.23843,408.72885 C 266.97332,417.14524 263.5868,425.51338 260.18582,433.87545 L 227.21806,449.00892 C 231.12638,440.50123 234.98322,431.97014 238.64793,423.35376 C 241.7873,415.70213 245.70586,406.24976 248.66781,398.60352 C 256.64148,378.01962 263.61909,357.07516 270.39454,336.07207 C 276.45121,316.95508 282.57376,297.74852 285.96177,277.94005 L 319.91299,261.20413 z" />
      <path
         inkscape:export-ydpi="10.39"
         inkscape:export-xdpi="10.39"
         inkscape:export-filename="C:\Projects\SQLiteWebSite\Tests\Test1\Images\greenpine_logo.png"
         style="fill:#89a02c;fill-opacity:1;stroke:none;stroke-width:1.48000002000000010;stroke-miterlimit:4;stroke-dasharray:none;stroke-opacity:1"
         id="path7576"
         d="M 277.76931,322.16296 C 277.68349,323.46521 277.58036,324.76645 277.51184,326.06973 C 277.22926,331.4449 277.31599,333.78269 276.62699,339.41294 C 275.35262,349.82677 273.01116,360.14798 271.07198,370.44898 C 265.71461,396.23101 259.66685,421.86491 253.13213,447.37232 C 249.2958,460.06347 247.36922,473.2985 243.14049,485.87155 C 242.96518,486.36415 242.78987,486.85675 242.61456,487.34934 L 207.68536,502.57023 C 208.07413,502.24337 208.4629,501.9165 208.85167,501.58964 C 212.16851,495.51787 213.91477,488.90494 215.87543,482.2998 C 216.77722,479.26179 217.69243,476.22773 218.57911,473.18528 C 219.62712,469.58929 220.646,465.98489 221.67945,462.38469 C 228.60631,437.10448 234.7929,411.61154 239.54194,385.82525 C 242.0746,370.5024 245.60567,355.0227 243.91451,339.41284 L 277.76931,322.16296 z" />
      <path
         inkscape:export-ydpi="10.39"
         inkscape:export-xdpi="10.39"
         inkscape:export-filename="C:\Projects\SQLiteWebSite\Tests\Test1\Images\greenpine_logo.png"
         style="fill:#89a02c;fill-opacity:1;stroke:none;stroke-width:1.48000002000000010;stroke-miterlimit:4;stroke-dasharray:none;stroke-opacity:1"
         id="path7578"
         d="M 335.63239,103.39564 C 334.56372,116.88494 332.80623,130.31988 330.89255,143.71449 C 325.48582,172.82403 321.94021,202.20903 318.79698,231.63339 C 316.28296,251.1829 315.72421,270.89882 313.9522,290.50923 C 313.3032,302.99886 310.07154,314.99678 306.15546,326.79481 C 302.7771,337.14098 298.73546,347.24813 294.88434,357.42257 C 294.11952,360.87145 291.78351,363.91658 291.1507,367.37949 L 255.39987,381.28183 C 255.69654,381.37794 255.98987,381.65523 256.28989,381.57014 C 258.42119,380.96565 260.1759,374.6117 261.0635,373.05703 C 265.3477,362.98359 269.46815,352.82227 272.85696,342.40744 C 276.95573,330.66071 280.28449,319.02729 281.57007,306.5887 C 283.90277,286.7291 284.74319,266.70431 287.8913,246.93028 C 289.7406,232.34926 291.59475,217.76741 293.48131,203.19143 C 294.80291,192.98047 296.37204,182.80204 297.64034,172.58433 C 298.18335,168.20975 298.60316,163.82076 299.08457,159.43897 C 299.91769,151.11193 300.15176,149.10285 300.83153,141.16345 C 301.33282,135.30859 301.9146,129.37113 301.87603,123.48552 C 301.8699,122.55085 301.75576,121.62003 301.69563,120.68728 L 335.63239,103.39564 z" />
      <path
         inkscape:export-ydpi="10.39"
         inkscape:export-xdpi="10.39"
         inkscape:export-filename="C:\Projects\SQLiteWebSite\Tests\Test1\Images\greenpine_logo.png"
         style="fill:#89a02c;fill-opacity:1;stroke:none;stroke-width:1.48000002000000010;stroke-miterlimit:4;stroke-dasharray:none;stroke-opacity:1"
         id="path7580"
         d="M 304.79393,204.90554 C 304.09012,216.88164 304.02464,228.88613 303.88225,240.87894 C 303.82263,243.78547 303.75957,246.69193 303.7034,249.59853 C 303.6504,252.3407 303.68006,255.08541 303.55474,257.82523 C 303.05506,268.74936 301.54985,279.67208 300.42038,290.54357 C 298.88633,306.03104 295.32904,321.19017 292.21118,336.40512 C 291.49232,340.73617 290.13158,344.9658 289.55947,349.32118 L 254.62384,364.80329 C 254.9524,364.59148 255.40386,364.5003 255.60951,364.16785 C 257.48003,361.14409 257.91097,355.55733 259.16282,352.34021 C 262.80612,337.21703 266.61416,322.0875 268.17525,306.56761 C 269.77589,290.15789 271.95068,273.75925 271.76886,257.24153 C 271.62845,245.55858 271.57504,233.86226 270.85718,222.19718 L 304.79393,204.90554 z" />
      <path
         inkscape:export-ydpi="10.39"
         inkscape:export-xdpi="10.39"
         inkscape:export-filename="C:\Projects\SQLiteWebSite\Tests\Test1\Images\greenpine_logo.png"
         style="fill:#89a02c;fill-opacity:1;stroke:none;stroke-width:1.48000002000000010;stroke-miterlimit:4;stroke-dasharray:none;stroke-opacity:1"
         id="path7582"
         d="M 326.65833,101.94656 C 326.59529,110.39173 324.0865,118.50277 321.97174,126.60127 C 319.05494,137.11888 316.69601,147.79139 314.96958,158.56823 C 312.65296,174.27657 322.98069,161.73769 280.19987,177.96429 C 279.24402,178.32685 280.46978,175.93758 280.60473,174.92422 L 314.52202,158.27627 C 311.92709,172.95166 314.73323,160.20164 279.86136,177.98691 C 279.58579,178.12745 280.4643,177.69749 280.59321,177.41629 C 280.95363,176.6301 281.04515,175.74664 281.27111,174.91182 C 283.81874,164.14576 286.04761,153.30506 288.658,142.55305 C 290.49764,134.9621 293.24273,127.13288 292.68059,119.25908 L 326.65833,101.94656 z" />
      <path
         inkscape:export-ydpi="10.39"
         inkscape:export-xdpi="10.39"
         inkscape:export-filename="C:\Projects\SQLiteWebSite\Tests\Test1\Images\greenpine_logo.png"
         style="fill:#89a02c;fill-opacity:1;stroke:none;stroke-width:1.48000002000000010;stroke-miterlimit:4;stroke-dasharray:none;stroke-opacity:1"
         id="path7584"
         d="M 338.22275,81.387592 C 337.5383,91.907004 337.60331,102.4592 337.49625,112.99578 C 337.34675,128.05695 337.34345,143.11675 337.4523,158.1778 C 337.42292,171.93462 340.07906,185.3518 343.49026,198.60513 C 347.42191,212.55914 351.62209,226.39155 354.41158,240.63089 C 357.17757,258.80379 357.33652,277.2207 357.60021,295.55915 C 357.90127,308.83853 358.94211,322.12268 361.1164,335.23333 C 362.10468,341.19255 363.6992,348.74218 364.906,354.66439 C 368.28607,371.53156 371.97674,388.3318 376.53724,404.92021 C 377.78375,409.64943 379.11894,414.35438 380.45332,419.05931 L 347.60975,436.81814 C 346.56196,431.97253 345.43918,427.14409 344.43058,422.28992 C 340.55723,405.39582 336.89329,388.45594 333.52298,371.45296 C 332.45761,366.1598 330.60128,357.13558 329.69607,351.83319 C 327.43678,338.59915 326.30807,325.18685 325.8952,311.77401 C 325.60961,293.72804 325.32311,275.58427 322.39487,257.73323 C 319.59737,243.4896 315.41398,229.91618 311.43391,215.98322 C 309.65616,209.26177 307.83388,202.50214 306.75136,195.6229 C 305.66367,188.71084 305.3151,181.68426 305.01545,174.7052 C 305.1234,159.65907 305.12236,144.61421 304.9715,129.56797 C 304.86587,119.27845 304.94323,108.97122 304.24501,98.700116 L 338.22275,81.387592 z" />
      <path
         inkscape:export-ydpi="10.39"
         inkscape:export-xdpi="10.39"
         inkscape:export-filename="C:\Projects\SQLiteWebSite\Tests\Test1\Images\greenpine_logo.png"
         style="fill:#89a02c;fill-opacity:1;stroke:none;stroke-width:1.48000002000000010;stroke-miterlimit:4;stroke-dasharray:none;stroke-opacity:1"
         id="path7586"
         d="M 347.46739,113.71223 C 351.58359,124.97473 351.42669,137.35185 351.92871,149.19026 C 352.56555,170.59797 351.99272,192.01213 352.23399,213.42298 C 352.45478,233.15201 355.28159,252.72008 357.99232,272.22599 C 360.12485,286.51081 362.54694,300.75 364.54967,315.05431 C 366.14572,328.09937 368.22851,341.04907 371.52787,353.77418 C 375.47023,367.83687 379.99985,381.72128 384.53334,395.60215 C 388.39716,407.69503 392.27248,419.78562 396.52429,431.74849 C 399.35198,439.58235 402.47804,447.29967 405.66764,454.99189 C 406.1166,456.06974 406.56897,457.14617 407.01451,458.22543 C 407.80493,460.14011 408.32154,461.57966 409.26125,463.38607 C 410.13952,465.07438 410.83807,465.7641 410.80712,465.58734 C 410.64845,464.68124 410.1556,463.8668 409.82984,463.00652 L 379.90717,487.03398 C 379.24101,486.35197 378.5165,485.72243 377.90869,484.98794 C 377.42978,484.40923 376.56226,482.4249 376.33911,481.90455 C 375.11697,479.0547 374.20501,476.09302 372.99761,473.23687 C 369.96771,465.38826 366.60296,457.67095 364.16525,449.60542 C 360.16544,437.49164 356.58923,425.24594 352.65316,413.11098 C 348.26477,399.13467 343.58669,385.25199 339.38366,371.21804 C 335.89709,358.39158 333.8208,345.27523 332.21373,332.08818 C 330.28952,317.69453 328.01822,303.34741 326.21261,288.93695 C 323.84448,269.18063 321.07101,249.40389 320.7255,229.48186 C 320.91443,208.22058 321.08879,186.94387 319.93186,165.70368 C 319.3543,156.37892 319.08683,143.78699 315.60421,135.0081 C 315.31152,134.27029 314.88572,133.59251 314.52647,132.88472 L 347.46739,113.71223 z" />
      <path
         inkscape:export-ydpi="10.39"
         inkscape:export-xdpi="10.39"
         inkscape:export-filename="C:\Projects\SQLiteWebSite\Tests\Test1\Images\greenpine_logo.png"
         style="fill:#89a02c;fill-opacity:1;stroke:none;stroke-width:1.48000002000000010;stroke-miterlimit:4;stroke-dasharray:none;stroke-opacity:1"
         id="path7588"
         d="M 390.84501,219.06478 C 389.04068,228.48764 387.37388,237.93478 386.03565,247.43556 C 384.21513,261.88898 384.01045,276.46301 383.77756,291.0066 C 383.15894,306.3908 384.28226,321.74436 385.12894,337.09412 C 385.8866,350.49573 386.19239,363.9135 386.36209,377.3331 C 386.76654,388.68416 386.15872,400.04998 386.82015,411.38684 C 387.72348,423.34277 390.36559,435.0873 392.90484,446.78128 C 395.37053,456.01132 398.19626,465.16255 401.33744,474.18605 C 403.16866,479.77298 405.33346,485.2429 407.24334,490.80183 C 408.05341,494.08302 409.25997,497.21591 410.59018,500.31394 C 411.24047,501.71095 411.59352,503.20436 412.00843,504.67792 C 412.15906,505.21285 412.795,506.75662 412.61564,506.23062 C 412.42175,505.662 412.16512,505.11675 411.93986,504.55981 C 401.07407,510.62457 390.20828,516.68933 379.34249,522.75409 L 413.67686,506.0946 C 402.64477,513.00172 391.61269,519.90885 380.58061,526.81598 C 380.14794,526.23592 379.66726,525.68876 379.28261,525.07581 C 378.12808,523.23601 378.35575,520.84934 377.37789,518.93501 C 376.05345,515.70812 374.63753,512.48997 373.98347,509.04124 C 372.3813,503.36859 370.34025,497.82755 368.71815,492.15951 C 365.72792,482.91389 362.74572,473.64932 360.37495,464.22252 C 357.90756,452.32957 355.46678,440.37848 354.25305,428.28487 C 354.06595,426.1875 353.7989,424.09573 353.69176,421.99275 C 353.2176,412.6862 353.90248,403.32816 353.68667,394.01708 C 353.62798,380.58491 353.49539,367.14903 352.89262,353.72844 C 352.15812,338.31505 350.90295,322.91153 351.3522,307.46834 C 351.54658,292.85223 351.87277,278.21105 353.22207,263.64959 C 354.20595,254.4082 355.73148,245.24396 356.68006,235.99913 L 390.84501,219.06478 z" />
      <path
         inkscape:export-ydpi="10.39"
         inkscape:export-xdpi="10.39"
         inkscape:export-filename="C:\Projects\SQLiteWebSite\Tests\Test1\Images\greenpine_logo.png"
         style="fill:#89a02c;fill-opacity:1;stroke:none;stroke-width:1.48000002000000010;stroke-miterlimit:4;stroke-dasharray:none;stroke-opacity:1"
         id="path7590"
         d="M 405.21196,380.45575 C 407.71943,388.51933 410.19451,396.5943 412.88345,404.59939 C 417.1236,416.92091 421.27916,429.26989 425.25501,441.67931 C 428.56344,451.86391 432.01298,462.00402 435.58018,472.10075 C 438.19495,479.85647 440.20778,487.77572 442.12464,495.72319 C 442.36535,496.70844 442.61118,497.69245 442.84679,498.67894 C 443.77715,502.57429 443.11961,499.8593 443.90531,503.45041 C 444.08454,504.26959 444.97754,506.59389 444.52333,505.88899 C 444.22385,505.42425 444.07667,504.87746 443.85335,504.37169 L 411.69871,525.55859 C 411.39371,525.01266 411.00991,524.5038 410.78371,523.92079 C 410.45811,523.08158 410.58297,522.13155 410.4627,521.23947 C 410.11212,518.63917 409.63816,516.05793 409.09816,513.49062 C 407.41445,505.5939 405.55512,497.75267 403.02101,490.07393 C 399.59698,479.86401 396.43207,469.56124 393.11652,459.31489 C 389.24632,446.91931 385.31581,434.54466 380.60609,422.43368 C 377.74212,414.50886 375.1791,406.44429 371.81129,398.7193 L 405.21196,380.45575 z" />
      <path
         inkscape:export-ydpi="10.39"
         inkscape:export-xdpi="10.39"
         inkscape:export-filename="C:\Projects\SQLiteWebSite\Tests\Test1\Images\greenpine_logo.png"
         style="fill:#89a02c;fill-opacity:1;stroke:none;stroke-width:1.48000002000000010;stroke-miterlimit:4;stroke-dasharray:none;stroke-opacity:1"
         id="path7592"
         d="M 375.70689,326.11712 C 378.40337,333.33968 381.60165,340.41591 383.3963,347.9422 C 383.89492,350.03329 384.24048,352.15795 384.66256,354.26582 C 385.03479,356.47375 385.43259,358.67753 385.77923,360.88962 C 386.91973,368.16773 387.94097,375.43894 389.40324,382.66479 C 390.69015,389.02408 391.34558,391.46629 392.86743,397.73829 C 396.11073,410.94139 400.40379,423.83558 404.53772,436.77363 C 407.03135,443.9991 409.54355,451.2247 412.50539,458.27483 C 412.66975,458.52003 412.83412,458.76522 412.99849,459.01041 L 379.75428,477.87026 C 379.60337,477.45941 379.45246,477.04857 379.30156,476.63773 C 377.13245,469.18541 374.62805,461.8347 372.31159,454.42784 C 368.40562,441.30499 364.16574,428.27585 360.96289,414.95174 C 357.55272,400.55544 354.52891,386.21964 352.3409,371.57896 C 350.32214,362.2539 347.47928,353.04286 342.51672,344.81596 L 375.70689,326.11712 z" />
      <path
         inkscape:export-ydpi="10.39"
         inkscape:export-xdpi="10.39"
         inkscape:export-filename="C:\Projects\SQLiteWebSite\Tests\Test1\Images\greenpine_logo.png"
         style="fill:#89a02c;fill-opacity:1;stroke:none;stroke-width:1.48000002000000010;stroke-miterlimit:4;stroke-dasharray:none;stroke-opacity:1"
         id="path7594"
         d="M 356.31736,200.3111 C 357.26026,206.143 359.25506,211.73302 360.46811,217.50728 C 361.73208,223.52387 362.04184,226.67004 362.88359,232.84796 C 364.82691,252.83505 369.69222,272.36909 374.53953,291.80763 C 380.37122,313.28272 387.00569,334.53964 394.31727,355.55519 C 401.03753,374.97771 408.11405,394.28567 413.89615,414.01447 C 418.47433,430.28379 423.37545,446.46727 428.92919,462.43095 C 433.07501,474.19462 437.17645,486.02948 442.1448,497.47942 C 443.2495,499.4058 442.62871,498.7655 443.68107,499.66987 L 410.71124,519.04009 C 409.7596,517.13006 410.2469,518.2425 409.35801,515.65723 C 405.72919,503.61135 401.44683,491.79228 397.32232,479.90958 C 391.59448,463.88371 387.06476,447.49942 382.57195,431.09004 C 377.05978,411.31882 370.06886,392.02003 363.43317,372.60617 C 356.20472,351.46407 349.52961,330.12964 343.51078,308.61075 C 338.40239,289.19121 333.58464,269.6557 330.91092,249.7258 C 329.91024,243.28739 329.74097,241.19904 328.20524,235.01528 C 326.79912,229.35338 324.58303,223.98619 322.74339,218.46722 L 356.31736,200.3111 z" />
      <path
         inkscape:export-ydpi="10.39"
         inkscape:export-xdpi="10.39"
         inkscape:export-filename="C:\Projects\SQLiteWebSite\Tests\Test1\Images\greenpine_logo.png"
         style="fill:#89a02c;fill-opacity:1;stroke:none;stroke-width:1.48000002000000010;stroke-miterlimit:4;stroke-dasharray:none;stroke-opacity:1"
         id="path7596"
         d="M 321.43662,186.12393 C 320.53413,200.88608 320.59864,215.6854 320.2562,230.46619 C 319.63857,251.44851 319.20912,272.43574 319.26619,293.42766 C 319.29041,310.74783 319.293,328.06818 319.28664,345.38842 C 319.48256,356.31771 319.01785,367.2643 319.47712,378.18961 C 319.67764,382.95957 320.22486,389.03875 320.61581,393.79667 C 322.69653,419.01964 328.8602,443.73767 335.71583,468.0375 C 339.07387,479.17981 342.41442,490.3611 346.60027,501.22754 C 348.56632,505.88051 350.41361,510.55565 351.84752,515.39957 C 351.8823,517.20209 354.98921,523.19724 351.49492,516.70891 L 321.37537,540.67504 C 320.73506,539.75342 320.0052,538.88795 319.45444,537.91016 C 318.75602,536.67025 319.28417,534.77655 318.55233,533.53804 C 317.25401,528.72083 315.51913,524.05268 313.89161,519.34069 C 310.11878,508.07295 307.24719,496.51613 304.47166,484.97058 C 298.59295,460.26577 293.94047,435.29569 288.49539,410.49567 C 288.18155,406.66999 287.47183,398.46963 287.30908,394.65825 C 286.84097,383.69594 287.35592,372.70906 287.18585,361.74306 C 287.19261,344.35218 287.21114,326.95947 287.5125,309.57087 C 287.94557,288.57792 288.12493,267.58034 288.49583,246.58617 C 288.61277,232.17352 288.52611,217.7424 287.62281,203.35293 L 321.43662,186.12393 z" />
      <path
         inkscape:export-ydpi="10.39"
         inkscape:export-xdpi="10.39"
         inkscape:export-filename="C:\Projects\SQLiteWebSite\Tests\Test1\Images\greenpine_logo.png"
         style="fill:#89a02c;fill-opacity:1;stroke:none;stroke-width:1.48000002000000010;stroke-miterlimit:4;stroke-dasharray:none;stroke-opacity:1"
         id="path7598"
         d="M 345.8504,222.10213 C 344.9125,237.472 344.88168,252.88347 344.7383,268.27658 C 344.60279,288.82103 344.75653,309.3652 344.83339,329.90977 C 344.87131,346.05759 345.08185,362.20407 345.18876,378.35139 C 345.36968,391.65846 344.9815,404.96324 345.48956,418.26388 C 346.30348,433.32267 348.20888,448.2508 350.84082,463.08937 C 353.93042,477.25539 356.1257,491.54124 357.36707,505.98069 C 357.72878,515.04794 357.90125,524.14047 357.52886,533.21063 C 357.35677,535.68349 357.46278,534.5385 357.23192,536.64748 L 322.58217,552.69969 C 323.742,551.42263 323.21809,552.25208 323.7745,550.00885 C 325.12335,541.05815 324.83448,531.87906 324.84932,522.85846 C 323.91923,508.46659 322.06231,494.17314 318.93383,480.08006 C 316.129,465.16589 314.10423,450.14199 313.01222,434.99942 C 312.3026,421.654 312.76377,408.26743 312.69822,394.90614 C 312.8052,378.63812 313.01506,362.37091 313.05359,346.10239 C 313.13028,325.52552 313.28408,304.94904 313.14868,284.37229 C 313.00748,269.35728 312.99391,254.32129 312.03658,239.33113 L 345.8504,222.10213 z" />
      <path
         inkscape:export-ydpi="10.39"
         inkscape:export-xdpi="10.39"
         inkscape:export-filename="C:\Projects\SQLiteWebSite\Tests\Test1\Images\greenpine_logo.png"
         style="fill:#89a02c;fill-opacity:1;stroke:none;stroke-width:1.48000002000000010;stroke-miterlimit:4;stroke-dasharray:none;stroke-opacity:1"
         id="path7600"
         d="M 357.37383,343.21435 C 356.48573,357.84548 358.9108,372.48886 360.94749,386.93955 C 363.76104,404.8025 366.55994,422.67569 370.00435,440.4293 C 373.63194,456.9025 375.92977,473.60892 378.41499,490.27892 C 379.21098,497.59945 381.04828,504.8495 381.21504,512.23251 C 369.65651,517.9005 358.09799,523.5685 346.53946,529.23649 L 378.97073,509.28346 C 368.16618,515.67917 357.36163,522.07489 346.55708,528.4706 C 348.00837,527.28939 347.73186,524.96596 347.67559,523.29301 C 347.49506,517.92588 346.69994,512.58456 346.21317,507.24429 C 344.10993,490.52408 342.22298,473.7453 338.43968,457.29689 C 334.8517,439.50786 331.96773,421.58012 329.39925,403.61678 C 327.07216,389.28057 324.61474,374.90432 323.64199,360.40158 L 357.37383,343.21435 z" />
      <path
         inkscape:export-ydpi="10.39"
         inkscape:export-xdpi="10.39"
         inkscape:export-filename="C:\Projects\SQLiteWebSite\Tests\Test1\Images\greenpine_logo.png"
         style="fill:#89a02c;fill-opacity:1;stroke:none;stroke-width:1.48000002000000010;stroke-miterlimit:4;stroke-dasharray:none;stroke-opacity:1"
         id="path7602"
         d="M 349.26353,428.21212 C 343.91163,440.74539 338.69006,453.32685 332.98384,465.70668 C 328.44936,475.02014 323.85715,484.40154 318.01001,492.98489 C 314.62906,497.94798 313.52402,498.99918 309.69876,503.467 C 304.76784,508.56899 307.22171,506.16113 302.35997,510.71375 L 268.0229,524.71585 C 273.22065,520.25898 270.57525,522.60431 275.94327,517.66204 C 279.72849,513.6407 281.38922,512.10843 284.72117,507.59147 C 290.86762,499.25904 295.52012,489.88395 300.16114,480.67381 C 305.71062,468.7707 311.00608,456.68941 314.79606,444.0931 L 349.26353,428.21212 z" />
      <path
         inkscape:export-ydpi="10.39"
         inkscape:export-xdpi="10.39"
         inkscape:export-filename="C:\Projects\SQLiteWebSite\Tests\Test1\Images\greenpine_logo.png"
         style="fill:#89a02c;fill-opacity:1;stroke:none;stroke-width:1.48000002000000010;stroke-miterlimit:4;stroke-dasharray:none;stroke-opacity:1"
         id="path7604"
         d="M 315.09391,366.64328 C 314.3982,377.97386 312.04335,389.05623 309.41736,400.06865 C 304.46866,418.78138 298.48001,437.19543 292.57474,455.62195 C 287.77158,470.62128 282.89786,485.59789 278.1196,500.6052 C 275.12949,509.23678 271.64468,517.74084 267.05075,525.65145 C 265.41569,528.10207 266.21233,526.99478 264.69305,528.99628 L 229.50359,543.44594 C 231.58274,542.06157 230.53777,542.9086 232.54939,540.79872 C 237.95423,533.29447 241.72471,524.78046 245.00154,516.16576 C 250.193,501.08513 255.29621,485.97192 260.27696,470.82066 C 266.27172,452.60252 272.28502,434.36626 276.87941,415.73248 C 279.18478,405.28624 281.4154,394.71566 281.11617,383.9558 L 315.09391,366.64328 z" />
      <path
         inkscape:export-ydpi="10.39"
         inkscape:export-xdpi="10.39"
         inkscape:export-filename="C:\Projects\SQLiteWebSite\Tests\Test1\Images\greenpine_logo.png"
         style="fill:#89a02c;fill-opacity:1;stroke:none;stroke-width:1.48000002000000010;stroke-miterlimit:4;stroke-dasharray:none;stroke-opacity:1"
         id="path7606"
         d="M 284.17063,432.43254 C 281.58971,440.24343 278.78788,447.97501 275.99557,455.71188 C 272.88413,464.73285 268.70105,473.32578 264.67547,481.9616 C 261.30054,488.91192 258.59992,496.15946 255.88433,503.38457 C 254.54081,507.36704 253.39946,511.40527 251.20701,515.01688 L 216.11708,529.75985 C 219.57602,527.26759 220.68998,523.11443 221.89868,519.19491 C 224.62799,511.87122 227.44186,504.55563 230.70938,497.46064 C 234.66607,488.7622 239.40252,480.39057 242.57348,471.35203 C 245.07796,463.90802 247.7047,456.50755 249.74774,448.92255 L 284.17063,432.43254 z" />
      <path
         inkscape:export-ydpi="10.39"
         inkscape:export-xdpi="10.39"
         inkscape:export-filename="C:\Projects\SQLiteWebSite\Tests\Test1\Images\greenpine_logo.png"
         style="fill:#89a02c;fill-opacity:1;stroke:none;stroke-width:1.48000002000000010;stroke-miterlimit:4;stroke-dasharray:none;stroke-opacity:1"
         id="path7608"
         d="M 245.70739,502.84644 C 245.67369,509.46612 245.34538,515.40848 243.79429,521.88593 C 242.17248,527.65589 239.3723,533.0056 236.17018,538.04351 L 201.22331,552.9566 C 205.2996,548.93364 207.90159,543.25779 209.96867,537.99954 C 211.78226,532.16091 212.3828,526.25824 211.72965,520.15896 L 245.70739,502.84644 z" />
      <path
         inkscape:export-ydpi="10.39"
         inkscape:export-xdpi="10.39"
         inkscape:export-filename="C:\Projects\SQLiteWebSite\Tests\Test1\Images\greenpine_logo.png"
         style="fill:#89a02c;fill-opacity:1;stroke:none;stroke-width:1.48000002000000010;stroke-miterlimit:4;stroke-dasharray:none;stroke-opacity:1"
         id="path7610"
         d="M 308.76705,434.9607 C 308.85965,436.06269 308.94457,437.16536 309.04484,438.26668 C 309.35572,441.68129 309.66093,443.24045 309.47771,446.81559 C 309.13726,453.45873 307.46807,459.93498 305.98812,466.38512 C 302.62739,482.34819 296.19546,497.315 289.10126,511.91653 C 284.97875,519.59683 281.20097,527.78769 274.8095,533.89198 C 263.45943,540.26527 252.10936,546.63856 240.75929,553.01186 L 270.82399,529.59221 C 260.39584,535.64487 249.96768,541.69753 239.53953,547.75019 C 240.22031,547.42088 240.95162,547.1802 241.58188,546.76225 C 247.89706,542.57431 252.13128,533.09974 255.98136,526.88093 C 263.45367,512.69897 270.04994,497.97152 273.26854,482.17624 C 275.29701,472.46464 277.74957,462.62917 275.20847,452.76374 L 308.76705,434.9607 z" />
      <path
         inkscape:export-ydpi="10.39"
         inkscape:export-xdpi="10.39"
         inkscape:export-filename="C:\Projects\SQLiteWebSite\Tests\Test1\Images\greenpine_logo.png"
         style="fill:#89a02c;fill-opacity:1;stroke:none;stroke-width:1.48000002000000010;stroke-miterlimit:4;stroke-dasharray:none;stroke-opacity:1"
         id="path7612"
         d="M 320.21316,458.03784 C 319.36621,466.61449 320.015,475.25772 319.45018,483.8435 C 319.30027,486.1223 319.00391,488.38911 318.78078,490.66191 C 317.12435,504.99317 313.14932,518.88929 308.84938,532.61305 C 306.32289,540.22414 304.42991,548.14495 300.48852,555.18871 L 265.6286,570.19934 C 271.44644,564.36231 272.82396,555.53822 275.79549,548.16006 C 280.36457,534.73952 284.38946,521.04696 286.05484,506.92368 C 286.28056,504.75351 286.59667,502.59086 286.73198,500.41319 C 287.25026,492.07237 286.68941,483.65881 286.2764,475.32948 L 320.21316,458.03784 z" />
      <path
         inkscape:export-ydpi="10.39"
         inkscape:export-xdpi="10.39"
         inkscape:export-filename="C:\Projects\SQLiteWebSite\Tests\Test1\Images\greenpine_logo.png"
         style="fill:#89a02c;fill-opacity:1;stroke:none;stroke-width:1.48000002000000010;stroke-miterlimit:4;stroke-dasharray:none;stroke-opacity:1"
         id="path7614"
         d="M 340.94146,502.08384 C 343.77047,509.79923 346.26771,517.62584 349.36241,525.24057 C 351.89912,529.89963 353.88761,535.97952 358.53497,539.06019 L 326.12953,559.06824 C 322.20396,554.40707 319.85471,548.67221 317.1117,543.29011 C 313.96747,535.72183 311.31367,527.9222 307.58824,520.61417 L 340.94146,502.08384 z" />
      <path
         inkscape:export-ydpi="10.39"
         inkscape:export-xdpi="10.39"
         inkscape:export-filename="C:\Projects\SQLiteWebSite\Tests\Test1\Images\greenpine_logo.png"
         style="fill:#89a02c;fill-opacity:1;stroke:none;stroke-width:1.48000002000000010;stroke-miterlimit:4;stroke-dasharray:none;stroke-opacity:1"
         id="path7616"
         d="M 383.45861,494.53257 C 386.41407,497.54125 389.1102,500.79878 392.1053,503.76598 L 359.60665,523.55409 C 356.88961,520.49677 354.33315,517.2531 351.10643,514.70128 L 383.45861,494.53257 z" />
      <path
         inkscape:export-ydpi="10.39"
         inkscape:export-xdpi="10.39"
         inkscape:export-filename="C:\Projects\SQLiteWebSite\Tests\Test1\Images\greenpine_logo.png"
         style="fill:#89a02c;fill-opacity:1;stroke:none;stroke-width:1.48000002000000010;stroke-miterlimit:4;stroke-dasharray:none;stroke-opacity:1"
         id="path7618"
         d="M 263.53185,504.63411 C 261.83385,512.87284 258.26591,520.40688 254.01362,527.59773 C 249.19388,535.37148 242.20237,541.3474 235.19654,547.07654 C 231.90543,549.62477 233.50716,548.44493 230.40567,550.6354 L 195.24931,564.30429 C 198.68354,562.33687 196.92561,563.43061 200.4994,560.98532 C 207.56233,555.54047 214.78924,549.98676 219.96159,542.61961 C 224.2571,536.09164 228.29658,529.14756 229.26859,521.24856 L 263.53185,504.63411 z" />
      <path
         inkscape:export-ydpi="10.39"
         inkscape:export-xdpi="10.39"
         inkscape:export-filename="C:\Projects\SQLiteWebSite\Tests\Test1\Images\greenpine_logo.png"
         style="fill:#89a02c;fill-opacity:1;stroke:none;stroke-width:1.48000002000000010;stroke-miterlimit:4;stroke-dasharray:none;stroke-opacity:1"
         id="path7640"
         d="M 395.94239,181.14833 C 395.22053,193.42384 394.77295,205.76049 395.97399,218.02484 C 396.36986,222.06725 396.99879,226.08344 397.51119,230.11275 C 404.91851,269.36225 416.602,307.65694 428.09586,345.86045 C 436.40502,372.98315 446.39121,399.53831 455.60484,426.3542 C 456.81511,429.77027 457.80325,433.25034 458.65464,436.76951 L 425.28195,454.51173 C 424.88999,450.9203 424.34137,447.35299 423.52811,443.82831 C 417.23133,415.85501 408.80032,388.42125 400.42074,361.01738 C 393.68212,339.54475 387.18445,318.01044 380.71276,296.45612 C 377.56416,285.96954 373.09714,271.38017 370.20275,260.6207 C 368.93575,255.91081 367.84125,251.15621 366.6605,246.42396 C 365.94821,242.41288 365.11076,238.42203 364.52363,234.39074 C 362.78317,222.44057 362.909,210.37796 362.16956,198.35645 L 395.94239,181.14833 z" />
      <path
         inkscape:export-ydpi="10.39"
         inkscape:export-xdpi="10.39"
         inkscape:export-filename="C:\Projects\SQLiteWebSite\Tests\Test1\Images\greenpine_logo.png"
         style="fill:#89a02c;fill-opacity:1;stroke:none;stroke-width:1.48000002000000010;stroke-miterlimit:4;stroke-dasharray:none;stroke-opacity:1"
         id="path7642"
         d="M 452.83604,403.86595 C 455.71411,414.48172 459.17376,424.92743 462.47249,435.41691 C 464.32323,441.08073 466.38095,446.67131 468.47214,452.24936 L 436.20191,470.10892 C 434.27302,464.40714 432.20121,458.75675 430.36999,453.0221 C 427.12248,442.63032 423.73284,432.24958 419.57984,422.18159 L 452.83604,403.86595 z" />
      <path
         inkscape:export-ydpi="10.39"
         inkscape:export-xdpi="10.39"
         inkscape:export-filename="C:\Projects\SQLiteWebSite\Tests\Test1\Images\greenpine_logo.png"
         style="fill:#89a02c;fill-opacity:1;stroke:none;stroke-width:1.48000002000000010;stroke-miterlimit:4;stroke-dasharray:none;stroke-opacity:1"
         id="path7644"
         d="M 451.74943,427.49054 C 456.77048,435.4953 460.77277,444.07028 465.1272,452.44141 C 468.32505,458.58523 471.11342,464.94561 474.43731,471.02287 L 441.592,489.7952 C 438.50077,483.56537 436.05012,477.03189 432.98588,470.78551 C 428.81137,462.52656 424.94221,453.96193 419.01878,446.76975 L 451.74943,427.49054 z" />
      <path
         inkscape:export-ydpi="10.39"
         inkscape:export-xdpi="10.39"
         inkscape:export-filename="C:\Projects\SQLiteWebSite\Tests\Test1\Images\greenpine_logo.png"
         style="fill:#89a02c;fill-opacity:1;stroke:none;stroke-width:1.48000002000000010;stroke-miterlimit:4;stroke-dasharray:none;stroke-opacity:1"
         id="path7646"
         d="M 284.17349,188.6938 C 283.80317,197.1331 283.79483,205.58305 283.79783,214.02884 C 283.81944,222.41268 283.87697,230.79635 283.9527,239.17984 C 283.95093,245.07323 284.0286,250.9657 284.14545,256.85775 C 284.21381,259.95878 284.24812,263.06032 284.26331,266.16202 C 284.27234,268.71477 284.2707,271.26754 284.27016,273.82031 C 284.23224,276.42047 284.38693,279.02617 284.10567,281.6147 C 283.67631,283.23864 283.98145,282.48194 283.21433,283.89437 L 247.56795,297.82181 C 248.83689,297.84022 248.23089,297.89809 249.38837,297.67576 C 251.12582,296.17745 249.99681,293.19249 250.26301,291.14782 C 250.26247,288.59273 250.26084,286.03762 250.26986,283.48254 C 250.28517,280.34082 250.31993,277.19924 250.38773,274.05817 C 250.50353,268.10063 250.58202,262.14269 250.58047,256.18384 C 250.65599,247.74773 250.71362,239.31146 250.73535,230.87502 C 250.73829,222.5569 250.73622,214.23412 250.35968,205.9228 L 284.17349,188.6938 z" />
      <path
         inkscape:export-ydpi="10.39"
         inkscape:export-xdpi="10.39"
         inkscape:export-filename="C:\Projects\SQLiteWebSite\Tests\Test1\Images\greenpine_logo.png"
         style="fill:#89a02c;fill-opacity:1;stroke:none;stroke-width:1.48000002000000010;stroke-miterlimit:4;stroke-dasharray:none;stroke-opacity:1"
         id="path7648"
         d="M 282.88569,226.84286 C 280.96918,232.43429 279.02276,238.01511 277.14812,243.6209 C 275.72066,247.73765 274.48314,251.91752 273.09042,256.04511 C 272.40266,258.7932 270.62054,261.01195 269.25974,263.43359 C 267.68763,265.66989 265.80335,267.70655 263.89103,269.65613 C 262.21613,271.29376 261.1428,273.40827 259.58466,275.12996 C 258.42518,276.59977 257.27106,278.18998 255.80256,279.36887 C 246.49151,291.53391 273.63781,270.73337 220.75435,299.13831 L 251.65941,276.43502 C 240.76792,282.5008 229.81015,288.44907 218.98494,294.63237 C 218.75516,294.76362 219.52496,294.72015 219.77872,294.64512 C 220.0554,294.56331 220.26601,294.33606 220.50966,294.18154 C 222.09145,291.88324 220.02937,294.65402 221.80193,292.90287 C 222.03712,292.67053 222.13277,292.32117 222.36673,292.08759 C 222.57661,291.87804 222.90018,291.8078 223.10935,291.59754 C 225.06449,289.63216 222.31475,291.75613 224.44484,290.20979 C 226.51961,287.10341 223.56438,291.35397 225.8239,288.6377 C 226.89995,287.34415 227.65848,285.83233 228.74651,284.53842 C 230.35902,282.38877 232.32089,280.51927 234.23335,278.62218 C 235.97609,276.72359 237.04947,274.22434 238.64232,272.19015 C 240.10047,267.98361 241.65026,263.80908 243.02627,259.573 C 245.01559,254.22063 246.74692,248.77676 248.4628,243.33287 L 282.88569,226.84286 z" />
      <path
         inkscape:export-ydpi="10.39"
         inkscape:export-xdpi="10.39"
         inkscape:export-filename="C:\Projects\SQLiteWebSite\Tests\Test1\Images\greenpine_logo.png"
         style="fill:#89a02c;fill-opacity:1;stroke:none;stroke-width:1.48000002000000010;stroke-miterlimit:4;stroke-dasharray:none;stroke-opacity:1"
         id="path7650"
         d="M 264.77986,234.85068 C 262.59211,240.04573 260.7407,245.3656 258.94578,250.7063 C 257.44417,254.64823 256.80097,258.82349 255.66673,262.86982 C 255.10847,264.71623 254.31943,266.47027 253.55099,268.23434 L 219.06301,284.42962 C 219.54734,282.49617 220.40483,280.81579 221.17484,278.98932 C 222.9158,275.04105 223.36606,270.74366 224.75946,266.67786 C 226.70342,261.505 228.31127,256.21558 230.28304,251.05168 L 264.77986,234.85068 z" />
      <path
         inkscape:export-ydpi="10.39"
         inkscape:export-xdpi="10.39"
         inkscape:export-filename="C:\Projects\SQLiteWebSite\Tests\Test1\Images\greenpine_logo.png"
         style="fill:#89a02c;fill-opacity:1;stroke:none;stroke-width:1.48000002000000010;stroke-miterlimit:4;stroke-dasharray:none;stroke-opacity:1"
         id="path7654"
         d="M 286.59464,229.79765 C 280.80552,240.07033 274.30335,249.93159 268.04877,259.92801 C 266.54542,262.24388 265.04207,264.55974 263.53873,266.8756 L 230.52018,281.30676 C 232.14144,278.97567 233.76269,276.64459 235.38394,274.31351 C 239.46039,267.93819 241.66896,264.71983 245.30981,258.0876 C 246.47055,255.97318 247.48068,253.77952 248.56612,251.62548 C 248.9467,250.84416 249.29479,250.04616 249.70785,249.28153 C 250.08033,248.59203 250.51624,247.93874 250.92043,247.26735 C 251.22984,246.68417 251.53926,246.101 251.84867,245.51782 L 286.59464,229.79765 z" />
      <path
         inkscape:export-ydpi="10.39"
         inkscape:export-xdpi="10.39"
         inkscape:export-filename="C:\Projects\SQLiteWebSite\Tests\Test1\Images\greenpine_logo.png"
         style="fill:#786721;fill-opacity:1;stroke:none;stroke-width:1.48000002000000010;stroke-miterlimit:4;stroke-dasharray:none;stroke-opacity:1"
         id="path7748"
         d="M 356.59157,337.59008 C 352.44555,363.7947 350.88462,390.17751 349.06566,416.49882 C 348.5475,426.22627 346.57913,462.30692 346.29297,471.36944 C 345.02761,511.44198 346.99323,485.12864 344.8886,524.56378 C 344.09717,539.39297 342.41393,559.15328 341.218,574.04551 C 338.42711,607.1802 337.2623,640.36913 336.39121,673.55108 C 336.15361,680.76945 336.2106,687.98771 336.40451,695.2055 L 283.81762,713.59509 C 284.91639,705.97743 285.95307,698.35575 287.02638,690.73634 C 292.01974,656.62387 296.6057,622.48781 300.24765,588.29044 C 302.1956,570.49796 303.8962,556.33568 305.23298,538.46114 C 307.90466,502.73721 308.68938,466.95373 307.35786,431.19235 C 306.51656,406.48327 306.02292,381.66853 301.29541,357.13263 L 356.59157,337.59008 z" />
      <text
         inkscape:export-ydpi="10.39"
         inkscape:export-xdpi="10.39"
         inkscape:export-filename="C:\Projects\SQLiteWebSite\Tests\Test1\Images\greenpine_logo.png"
         id="text8332"
         y="449.13492"
         x="639.87921"
         style="font-size:48px;font-style:normal;font-variant:normal;font-weight:normal;font-stretch:normal;fill:#000000;fill-opacity:1;stroke:none;stroke-width:1px;stroke-linecap:butt;stroke-linejoin:miter;stroke-opacity:1;font-family:Courier New;-inkscape-font-specification:Courier New"
         xml:space="preserve"><tspan
           style="font-size:144px;font-weight:bold;fill:#786721;-inkscape-font-specification:Courier New Bold"
           y="449.13492"
           x="639.87921"
           id="tspan8334"
           sodipodi:role="line">Green</tspan></text>
      <text
         inkscape:export-ydpi="10.39"
         inkscape:export-xdpi="10.39"
         inkscape:export-filename="C:\Projects\SQLiteWebSite\Tests\Test1\Images\greenpine_logo.png"
         xml:space="preserve"
         style="font-size:48px;font-style:normal;font-variant:normal;font-weight:normal;font-stretch:normal;fill:#000000;fill-opacity:1;stroke:none;stroke-width:1px;stroke-linecap:butt;stroke-linejoin:miter;stroke-opacity:1;font-family:Courier New;-inkscape-font-specification:Courier New"
         x="638.61639"
         y="570.3681"
         id="text8518"><tspan
           sodipodi:role="line"
           id="tspan8520"
           x="638.61639"
           y="570.3681"
           style="font-size:144px;font-weight:bold;fill:#786721;-inkscape-font-specification:Courier New Bold">Pine</tspan></text>
      <text
         inkscape:export-ydpi="10.39"
         inkscape:export-xdpi="10.39"
         inkscape:export-filename="C:\Projects\SQLiteWebSite\Tests\Test1\Images\greenpine_logo.png"
         id="text8522"
         y="696.65259"
         x="638.61639"
         style="font-size:48px;font-style:normal;font-variant:normal;font-weight:normal;font-stretch:normal;fill:#000000;fill-opacity:1;stroke:none;stroke-width:1px;stroke-linecap:butt;stroke-linejoin:miter;stroke-opacity:1;font-family:Courier New;-inkscape-font-specification:Courier New"
         xml:space="preserve"><tspan
           style="font-size:144px;font-weight:bold;fill:#786721;-inkscape-font-specification:Courier New Bold"
           y="696.65259"
           x="638.61639"
           id="tspan8524"
           sodipodi:role="line">Software</tspan></text>
    </g>
  </g>
</svg>
