<?xml version="1.0" encoding="UTF-8" standalone="no"?>
<!-- Created with Inkscape (http://www.inkscape.org/) -->
<svg
   xmlns:dc="http://purl.org/dc/elements/1.1/"
   xmlns:cc="http://creativecommons.org/ns#"
   xmlns:rdf="http://www.w3.org/1999/02/22-rdf-syntax-ns#"
   xmlns:svg="http://www.w3.org/2000/svg"
   xmlns="http://www.w3.org/2000/svg"
   xmlns:xlink="http://www.w3.org/1999/xlink"
   xmlns:sodipodi="http://sodipodi.sourceforge.net/DTD/sodipodi-0.dtd"
   xmlns:inkscape="http://www.inkscape.org/namespaces/inkscape"
   width="24"
   height="24"
   id="svg4557"
   sodipodi:version="0.32"
   inkscape:version="0.46"
   version="1.0"
   sodipodi:docname="redo.svg"
   inkscape:output_extension="org.inkscape.output.svg.inkscape"
   inkscape:export-filename="C:\Projects\TEMP\redo24x24.png"
   inkscape:export-xdpi="90"
   inkscape:export-ydpi="90">
  <defs
     id="defs4559">
    <linearGradient
       inkscape:collect="always"
       id="linearGradient5258">
      <stop
         style="stop-color:#ccff00;stop-opacity:1;"
         offset="0"
         id="stop5260" />
      <stop
         style="stop-color:#ccff00;stop-opacity:0;"
         offset="1"
         id="stop5262" />
    </linearGradient>
    <linearGradient
       id="linearGradient5142">
      <stop
         style="stop-color:#aa0000;stop-opacity:1;"
         offset="0"
         id="stop5144" />
      <stop
         style="stop-color:#ffffff;stop-opacity:1;"
         offset="1"
         id="stop5146" />
    </linearGradient>
    <linearGradient
       id="linearGradient5134">
      <stop
         style="stop-color:#ff7f2a;stop-opacity:1;"
         offset="0"
         id="stop5136" />
      <stop
         style="stop-color:#ffffff;stop-opacity:1;"
         offset="1"
         id="stop5138" />
    </linearGradient>
    <inkscape:perspective
       sodipodi:type="inkscape:persp3d"
       inkscape:vp_x="0 : 526.18109 : 1"
       inkscape:vp_y="0 : 1000 : 0"
       inkscape:vp_z="744.09448 : 526.18109 : 1"
       inkscape:persp3d-origin="372.04724 : 350.78739 : 1"
       id="perspective4565" />
    <filter
       inkscape:collect="always"
       id="filter5207"
       x="-0.07272188"
       width="1.1454438"
       y="-0.17268347"
       height="1.3453669">
      <feGaussianBlur
         inkscape:collect="always"
         stdDeviation="0.57561155"
         id="feGaussianBlur5209" />
    </filter>
    <linearGradient
       inkscape:collect="always"
       xlink:href="#linearGradient5258"
       id="linearGradient5266"
       x1="0.3319844"
       y1="8.1111107"
       x2="21.174089"
       y2="-0.77777779"
       gradientUnits="userSpaceOnUse"
       gradientTransform="translate(-0.4736849,-1.7777769)" />
    <filter
       inkscape:collect="always"
       id="filter5320"
       x="-0.043893808"
       width="1.0877876"
       y="-0.12163205"
       height="1.2432641">
      <feGaussianBlur
         inkscape:collect="always"
         stdDeviation="0.22524453"
         id="feGaussianBlur5322" />
    </filter>
    <filter
       inkscape:collect="always"
       id="filter5352"
       x="-0.11116499"
       width="1.22233"
       y="-0.21213065"
       height="1.4242613">
      <feGaussianBlur
         inkscape:collect="always"
         stdDeviation="0.89861575"
         id="feGaussianBlur5354" />
    </filter>
  </defs>
  <sodipodi:namedview
     id="base"
     pagecolor="#ffffff"
     bordercolor="#666666"
     borderopacity="1.0"
     gridtolerance="10000"
     guidetolerance="10"
     objecttolerance="10"
     inkscape:pageopacity="0.0"
     inkscape:pageshadow="2"
     inkscape:zoom="24.130019"
     inkscape:cx="7.5750916"
     inkscape:cy="13.705495"
     inkscape:document-units="px"
     inkscape:current-layer="g5227"
     showgrid="true"
     inkscape:window-width="1680"
     inkscape:window-height="1024"
     inkscape:window-x="-4"
     inkscape:window-y="164">
    <inkscape:grid
       type="xygrid"
       id="grid4567"
       visible="true"
       enabled="true" />
  </sodipodi:namedview>
  <metadata
     id="metadata4562">
    <rdf:RDF>
      <cc:Work
         rdf:about="">
        <dc:format>image/svg+xml</dc:format>
        <dc:type
           rdf:resource="http://purl.org/dc/dcmitype/StillImage" />
      </cc:Work>
    </rdf:RDF>
  </metadata>
  <g
     inkscape:label="Layer 1"
     inkscape:groupmode="layer"
     id="layer1">
    <g
       transform="matrix(-1.0555556,0,0,1.125,24.350428,4.875)"
       style="fill:#d4aa00;fill-opacity:1;stroke:none"
       id="g5217">
      <g
         id="g5227"
         style="fill:#ffcc00">
        <g
           id="g5374"
           transform="matrix(-1,0,0,1,24.196789,0)">
          <g
             transform="translate(-0.2368417,2.6666663)"
             style="fill:#6c6753;filter:url(#filter5352)"
             id="g5328">
            <path
               style="opacity:1;fill:#6c6753;stroke-width:0.2;stroke-miterlimit:4;stroke-opacity:1"
               d="M 3.706656,3.4282726 C 7.6836955,0.42560656 12.80943,-1.6608059 18.68972,4.2725074 L 17.556364,8.4936812 C 12.644464,4.5197511 7.9381422,4.5240965 3.706656,8.4936812 C 2.4988797,6.7597392 2.2895489,5.0633883 3.706656,3.4282726 z"
               id="path5324"
               sodipodi:nodetypes="ccccc" />
            <path
               sodipodi:nodetypes="ccccc"
               id="path5326"
               d="M 18.235207,3.638599 C 18.732497,2.4699925 19.229787,1.3013858 19.229787,1.3013858 L 22.121457,8.1111111 L 15.251467,10.650239 L 18.235207,3.638599 z"
               style="fill:#6c6753;fill-opacity:1;fill-rule:evenodd;stroke:none;stroke-width:0.1;stroke-linecap:butt;stroke-linejoin:miter;stroke-miterlimit:4;stroke-dasharray:none;stroke-opacity:1" />
          </g>
          <path
             style="fill:#aad400;stroke-width:0.2;stroke-miterlimit:4;stroke-opacity:1"
             d="M 3.2980655,3.0457021 C 7.275105,0.043036133 12.400839,-2.0433764 18.281129,3.8899369 L 17.147773,8.1111107 C 12.235873,4.1371806 7.5295517,4.141526 3.2980655,8.1111107 C 2.0902892,6.3771687 1.8809584,4.6808178 3.2980655,3.0457021 z"
             id="path5229"
             sodipodi:nodetypes="ccccc" />
          <path
             sodipodi:nodetypes="ccccc"
             id="path5231"
             d="M 17.826616,3.2560285 C 18.323906,2.087422 19.04251,0.99999965 19.04251,0.99999965 L 21.712866,7.7285406 L 14.842876,10.267669 L 17.826616,3.2560285 z"
             style="fill:#aad400;fill-opacity:1;fill-rule:evenodd;stroke:none;stroke-width:0.1;stroke-linecap:butt;stroke-linejoin:miter;stroke-miterlimit:4;stroke-dasharray:none;stroke-opacity:1" />
          <path
             transform="translate(-0.2368418,1.7777774)"
             d="M 10.34375,-1.34375 C 7.9446877,-1.1955531 5.7332104,0.0034055289 3.78125,1.46875 C 3.7796792,1.4791074 3.7796792,1.4896426 3.78125,1.5 C 3.7708926,1.4984292 3.7603574,1.4984292 3.75,1.5 C 3.0815134,2.2713269 2.851345,2.9865578 2.875,3.75 C 2.8949189,4.3928625 3.151301,5.0961647 3.5625,5.78125 C 3.5728574,5.7828208 3.5833926,5.7828208 3.59375,5.78125 C 3.5921792,5.7916074 3.5921792,5.8021426 3.59375,5.8125 C 3.6041074,5.8140708 3.6146426,5.8140708 3.625,5.8125 C 3.6353574,5.8140708 3.6458926,5.8140708 3.65625,5.8125 C 3.6666074,5.8140708 3.6771426,5.8140708 3.6875,5.8125 C 3.6978574,5.8140708 3.7083926,5.8140708 3.71875,5.8125 C 5.7632349,4.0239132 7.9290039,3.0630293 10.1875,3.0625 C 12.433412,3.0619737 14.73545,4.0177387 17.0625,5.78125 C 17.072857,5.7828208 17.083393,5.7828208 17.09375,5.78125 C 17.104107,5.7828208 17.114643,5.7828208 17.125,5.78125 C 17.135357,5.7828208 17.145893,5.7828208 17.15625,5.78125 C 17.166607,5.7828208 17.177143,5.7828208 17.1875,5.78125 C 17.200031,5.7731875 17.210688,5.7625312 17.21875,5.75 C 17.220321,5.7396426 17.220321,5.7291074 17.21875,5.71875 L 18.15625,2.28125 C 18.157821,2.2708926 18.157821,2.2603574 18.15625,2.25 C 18.157821,2.2396426 18.157821,2.2291074 18.15625,2.21875 C 18.157821,2.2083926 18.157821,2.1978574 18.15625,2.1875 C 18.145893,2.1859292 18.135357,2.1859292 18.125,2.1875 C 15.302664,-0.58539843 12.712859,-1.4900966 10.34375,-1.34375 z"
             id="path5366"
             style="fill:#88aa00;stroke-width:0.2;stroke-miterlimit:4;stroke-opacity:1"
             inkscape:original="M 10.34375 -1.25 C 7.9759477 -1.1037341 5.7877454 0.10313492 3.84375 1.5625 C 3.1875368 2.3196654 2.9458604 3.0112612 2.96875 3.75 C 2.9878247 4.3656157 3.2506411 5.0429782 3.65625 5.71875 C 5.7145943 3.9180385 7.9002074 2.969286 10.1875 2.96875 C 12.46233 2.9682169 14.78571 3.914713 17.125 5.6875 L 18.0625 2.25 C 15.254907 -0.50841321 12.681993 -1.3944399 10.34375 -1.25 z "
             inkscape:radius="0.1041921"
             sodipodi:type="inkscape:offset" />
          <path
             transform="matrix(1.1153847,0,0,1,-1.3682659,1.7777774)"
             sodipodi:nodetypes="ccsccc"
             id="path5255"
             d="M 9.8056682,0.11111111 C 7.1665702,0.11111111 4.5061992,2.0338846 3.6477732,4.5555559 C 5.3780272,3.302795 7.8666242,1.8893786 9.8056682,1.8888893 C 11.717313,1.8884069 14.112666,3.3650103 15.963562,4.5555559 L 15.083863,1.8888893 C 12.444765,0.11111111 12.444765,0.11111111 9.8056682,0.11111111 z"
             style="fill:url(#linearGradient5266);fill-opacity:1;stroke-width:0.2;stroke-miterlimit:4;stroke-opacity:1;filter:url(#filter5320)" />
          <path
             sodipodi:nodetypes="cccc"
             id="path5370"
             d="M 19.04251,1.8888885 L 15.721692,9.3206999 L 20.663268,7.3011316 L 19.04251,1.8888885 z"
             style="fill:#88aa00;fill-opacity:1;fill-rule:evenodd;stroke:none;stroke-width:0.1;stroke-linecap:butt;stroke-linejoin:miter;stroke-miterlimit:4;stroke-opacity:1" />
        </g>
      </g>
    </g>
  </g>
</svg>
