<?xml version="1.0" encoding="UTF-8" standalone="no"?>
<!-- Created with Inkscape (http://www.inkscape.org/) -->
<svg
   xmlns:dc="http://purl.org/dc/elements/1.1/"
   xmlns:cc="http://creativecommons.org/ns#"
   xmlns:rdf="http://www.w3.org/1999/02/22-rdf-syntax-ns#"
   xmlns:svg="http://www.w3.org/2000/svg"
   xmlns="http://www.w3.org/2000/svg"
   xmlns:xlink="http://www.w3.org/1999/xlink"
   xmlns:sodipodi="http://sodipodi.sourceforge.net/DTD/sodipodi-0.dtd"
   xmlns:inkscape="http://www.inkscape.org/namespaces/inkscape"
   width="48"
   height="48"
   id="svg2"
   sodipodi:version="0.32"
   inkscape:version="0.46"
   version="1.0"
   sodipodi:docname="reject.svg"
   inkscape:output_extension="org.inkscape.output.svg.inkscape"
   inkscape:export-filename="C:\Projects\TEMP\accept48x48.png"
   inkscape:export-xdpi="90"
   inkscape:export-ydpi="90">
  <defs
     id="defs4">
    <linearGradient
       id="linearGradient3213">
      <stop
         style="stop-color:#71c837;stop-opacity:1;"
         offset="0"
         id="stop3215" />
      <stop
         style="stop-color:#f3fbee;stop-opacity:1;"
         offset="1"
         id="stop3217" />
    </linearGradient>
    <linearGradient
       id="linearGradient3166">
      <stop
         style="stop-color:#891919;stop-opacity:1;"
         offset="0"
         id="stop3168" />
      <stop
         style="stop-color:#ffffff;stop-opacity:1;"
         offset="1"
         id="stop3170" />
    </linearGradient>
    <inkscape:perspective
       sodipodi:type="inkscape:persp3d"
       inkscape:vp_x="0 : 526.18109 : 1"
       inkscape:vp_y="0 : 1000 : 0"
       inkscape:vp_z="744.09448 : 526.18109 : 1"
       inkscape:persp3d-origin="372.04724 : 350.78739 : 1"
       id="perspective10" />
    <linearGradient
       inkscape:collect="always"
       xlink:href="#linearGradient3166"
       id="linearGradient3206"
       gradientUnits="userSpaceOnUse"
       x1="-30.1875"
       y1="39.5"
       x2="-26.1875"
       y2="57.5" />
    <linearGradient
       inkscape:collect="always"
       xlink:href="#linearGradient3166"
       id="linearGradient3219"
       x1="-22"
       y1="37"
       x2="-42"
       y2="58"
       gradientUnits="userSpaceOnUse" />
  </defs>
  <sodipodi:namedview
     id="base"
     pagecolor="#ffffff"
     bordercolor="#666666"
     borderopacity="1.0"
     gridtolerance="10000"
     guidetolerance="10"
     objecttolerance="10"
     inkscape:pageopacity="0.0"
     inkscape:pageshadow="2"
     inkscape:zoom="17.0625"
     inkscape:cx="19.703192"
     inkscape:cy="24.378999"
     inkscape:document-units="px"
     inkscape:current-layer="layer1"
     showgrid="true"
     inkscape:window-width="1680"
     inkscape:window-height="1024"
     inkscape:window-x="-4"
     inkscape:window-y="164">
    <inkscape:grid
       type="xygrid"
       id="grid2383"
       visible="true"
       enabled="true" />
  </sodipodi:namedview>
  <metadata
     id="metadata7">
    <rdf:RDF>
      <cc:Work
         rdf:about="">
        <dc:format>image/svg+xml</dc:format>
        <dc:type
           rdf:resource="http://purl.org/dc/dcmitype/StillImage" />
      </cc:Work>
    </rdf:RDF>
  </metadata>
  <g
     inkscape:label="Layer 1"
     inkscape:groupmode="layer"
     id="layer1">
    <path
       sodipodi:type="arc"
       style="opacity:1;fill:#800000;fill-opacity:1;stroke:none;stroke-width:0.10000000000000001;stroke-miterlimit:4;stroke-dasharray:none;stroke-opacity:1"
       id="path2385"
       sodipodi:cx="24.5"
       sodipodi:cy="25"
       sodipodi:rx="22.5"
       sodipodi:ry="22"
       d="M 47,25 A 22.5,22 0 1 1 2,25 A 22.5,22 0 1 1 47,25 z"
       transform="matrix(1.0666667,0,0,1.0909091,-2.133334,-3.2727273)" />
    <path
       sodipodi:type="inkscape:offset"
       inkscape:radius="-2.6965523"
       inkscape:original="M -25 28 C -33.239916 28 -40.521493 32.167626 -44.84375 38.5 C -40.521493 44.832374 -33.239916 49 -25 49 C -16.760084 49 -9.478507 44.832374 -5.15625 38.5 C -9.478508 32.167626 -16.760084 28 -25 28 z "
       style="opacity:0.81944444000000005;fill:url(#linearGradient3219);fill-opacity:1.0;stroke:none;stroke-width:0.10000000000000001;stroke-miterlimit:4;stroke-dasharray:none;stroke-opacity:1"
       id="path2392"
       d="M -25,30.6875 C -31.59782,30.6875 -37.372906,33.801243 -41.28125,38.5 C -37.372906,43.198757 -31.59782,46.3125 -25,46.3125 C -18.40218,46.3125 -12.627094,43.198757 -8.71875,38.5 C -12.627095,33.801243 -18.40218,30.6875 -25,30.6875 z"
       transform="translate(49,-1)" />
    <path
       sodipodi:type="inkscape:offset"
       inkscape:radius="-1.3311001"
       inkscape:original="M -25 29.25 C -32.471924 29.25 -39.041145 32.937655 -43.1875 38.5 C -39.041145 44.062345 -32.471924 47.75 -25 47.75 C -17.528076 47.75 -10.958855 44.062345 -6.8125 38.5 C -10.958855 32.937655 -17.528076 29.25 -25 29.25 z "
       style="opacity:0.9212963;fill:url(#linearGradient3206);fill-opacity:1;stroke:none;stroke-width:0.10000000000000001;stroke-miterlimit:4;stroke-dasharray:none;stroke-opacity:1"
       id="path3204"
       d="M -25,30.59375 C -31.651906,30.59375 -37.478082,33.724598 -41.40625,38.5 C -37.478082,43.275402 -31.651906,46.40625 -25,46.40625 C -18.348094,46.40625 -12.521918,43.275402 -8.59375,38.5 C -12.521918,33.724598 -18.348094,30.59375 -25,30.59375 z"
       transform="matrix(1,0,0,-1,49.1875,48.5)" />
    <path
       sodipodi:type="inkscape:offset"
       inkscape:radius="1.7087039"
       inkscape:original="M 17.1875 14 L 23.53125 23.5 L 16.25 34.40625 L 19.21875 34.40625 L 25 25.71875 L 30.75 34.40625 L 33.71875 34.40625 L 26.71875 23.78125 L 33.28125 14 L 30.3125 14 L 25.21875 21.59375 L 20.15625 14 L 17.1875 14 z "
       style="font-size:28px;font-style:normal;font-weight:normal;fill:#ffffff;fill-opacity:1;stroke:#6e1e00;stroke-width:1.41481495;stroke-linecap:butt;stroke-linejoin:miter;stroke-miterlimit:4;stroke-dasharray:none;stroke-opacity:1;font-family:Bitstream Vera Sans"
       id="path3246"
       d="M 17.1875,12.28125 C 16.560259,12.287097 15.986637,12.636117 15.693146,13.190489 C 15.399655,13.744861 15.433474,14.415468 15.78125,14.9375 L 21.5,23.5 L 14.84375,33.46875 C 14.495974,33.990782 14.462155,34.661389 14.755646,35.215761 C 15.049137,35.770133 15.622759,36.119153 16.25,36.125 L 19.21875,36.125 C 19.799544,36.125785 20.340979,35.831527 20.65625,35.34375 L 25,28.8125 L 29.3125,35.34375 C 29.627771,35.831527 30.169206,36.125785 30.75,36.125 L 33.71875,36.125 C 34.351598,36.130673 34.93576,35.786127 35.236976,35.229533 C 35.538192,34.672938 35.507131,33.995448 35.15625,33.46875 L 28.75,23.78125 L 34.6875,14.9375 C 35.035276,14.415468 35.069095,13.744861 34.775604,13.190489 C 34.482113,12.636117 33.908491,12.287097 33.28125,12.28125 L 30.3125,12.28125 C 29.742821,12.290952 29.21545,12.583936 28.90625,13.0625 L 25.21875,18.5625 L 21.5625,13.0625 C 21.2533,12.583936 20.725929,12.290952 20.15625,12.28125 L 17.1875,12.28125 z"
       transform="matrix(1.2667568,0,0,1.1491441,-7.8034213,-3.4604166)" />
  </g>
</svg>
