<?xml version="1.0" encoding="UTF-8" standalone="no"?>
<!-- Created with Inkscape (http://www.inkscape.org/) -->
<svg
   xmlns:dc="http://purl.org/dc/elements/1.1/"
   xmlns:cc="http://creativecommons.org/ns#"
   xmlns:rdf="http://www.w3.org/1999/02/22-rdf-syntax-ns#"
   xmlns:svg="http://www.w3.org/2000/svg"
   xmlns="http://www.w3.org/2000/svg"
   xmlns:sodipodi="http://sodipodi.sourceforge.net/DTD/sodipodi-0.dtd"
   xmlns:inkscape="http://www.inkscape.org/namespaces/inkscape"
   width="24"
   height="24"
   id="svg4557"
   sodipodi:version="0.32"
   inkscape:version="0.46"
   version="1.0"
   sodipodi:docname="reorder_columns.svg"
   inkscape:output_extension="org.inkscape.output.svg.inkscape"
   inkscape:export-filename="C:\Projects\TEMP\reorder_columns24x24.png"
   inkscape:export-xdpi="90"
   inkscape:export-ydpi="90">
  <defs
     id="defs4559">
    <linearGradient
       id="linearGradient5142">
      <stop
         style="stop-color:#aa0000;stop-opacity:1;"
         offset="0"
         id="stop5144" />
      <stop
         style="stop-color:#ffffff;stop-opacity:1;"
         offset="1"
         id="stop5146" />
    </linearGradient>
    <linearGradient
       id="linearGradient5134">
      <stop
         style="stop-color:#ff7f2a;stop-opacity:1;"
         offset="0"
         id="stop5136" />
      <stop
         style="stop-color:#ffffff;stop-opacity:1;"
         offset="1"
         id="stop5138" />
    </linearGradient>
    <inkscape:perspective
       sodipodi:type="inkscape:persp3d"
       inkscape:vp_x="0 : 526.18109 : 1"
       inkscape:vp_y="0 : 1000 : 0"
       inkscape:vp_z="744.09448 : 526.18109 : 1"
       inkscape:persp3d-origin="372.04724 : 350.78739 : 1"
       id="perspective4565" />
    <filter
       inkscape:collect="always"
       id="filter5207"
       x="-0.07272188"
       width="1.1454438"
       y="-0.17268347"
       height="1.3453669">
      <feGaussianBlur
         inkscape:collect="always"
         stdDeviation="0.57561155"
         id="feGaussianBlur5209" />
    </filter>
  </defs>
  <sodipodi:namedview
     id="base"
     pagecolor="#ffffff"
     bordercolor="#666666"
     borderopacity="1.0"
     gridtolerance="10000"
     guidetolerance="10"
     objecttolerance="10"
     inkscape:pageopacity="0.0"
     inkscape:pageshadow="2"
     inkscape:zoom="17.0625"
     inkscape:cx="7.5750916"
     inkscape:cy="13.705495"
     inkscape:document-units="px"
     inkscape:current-layer="g5227"
     showgrid="true"
     inkscape:window-width="1680"
     inkscape:window-height="1024"
     inkscape:window-x="-4"
     inkscape:window-y="164">
    <inkscape:grid
       type="xygrid"
       id="grid4567"
       visible="true"
       enabled="true" />
  </sodipodi:namedview>
  <metadata
     id="metadata4562">
    <rdf:RDF>
      <cc:Work
         rdf:about="">
        <dc:format>image/svg+xml</dc:format>
        <dc:type
           rdf:resource="http://purl.org/dc/dcmitype/StillImage" />
      </cc:Work>
    </rdf:RDF>
  </metadata>
  <g
     inkscape:label="Layer 1"
     inkscape:groupmode="layer"
     id="layer1">
    <g
       id="g5211"
       style="fill:#241f1c;fill-opacity:1;stroke:none;filter:url(#filter5207)"
       transform="matrix(-0.9188035,0,0,1.125,23.064103,12.625)">
      <path
         style="opacity:1;fill:#241f1c;stroke-width:0.2;stroke-miterlimit:4;stroke-opacity:1"
         d="M 3,3 L 17,3 L 17,7 L 3,7 C 1.7791174,5.6307584 1.567515,4.2912014 3,3 z"
         id="path5213"
         sodipodi:nodetypes="ccccc" />
      <path
         id="path5215"
         d="M 17,3 C 17,2 17,1 17,1 L 21,5 L 17,9 L 17,3 z"
         style="fill:#241f1c;fill-opacity:1;fill-rule:evenodd;stroke:none;stroke-width:0.1;stroke-linecap:butt;stroke-linejoin:miter;stroke-miterlimit:4;stroke-dasharray:none;stroke-opacity:1" />
    </g>
    <g
       transform="matrix(0.9188035,0,0,1.125,1.3803411,1.625)"
       style="fill:#241f1c;fill-opacity:1;stroke:none;filter:url(#filter5207)"
       id="g5165">
      <path
         sodipodi:nodetypes="ccccc"
         id="path5167"
         d="M 3,3 L 17,3 L 17,7 L 3,7 C 1.7791174,5.6307584 1.567515,4.2912014 3,3 z"
         style="opacity:1;fill:#241f1c;stroke-width:0.2;stroke-miterlimit:4;stroke-opacity:1" />
      <path
         style="fill:#241f1c;fill-opacity:1;fill-rule:evenodd;stroke:none;stroke-width:0.1;stroke-linecap:butt;stroke-linejoin:miter;stroke-miterlimit:4;stroke-dasharray:none;stroke-opacity:1"
         d="M 17,3 C 17,2 17,1 17,1 L 21,5 L 17,9 L 17,3 z"
         id="path5169" />
    </g>
    <g
       id="g5102"
       style="fill:#d4aa00;fill-opacity:1;stroke:none"
       transform="matrix(0.8728633,0,0,1.125,2.3450839,0.375)">
      <path
         style="opacity:1;fill:#d4aa00;stroke-width:0.2;stroke-miterlimit:4;stroke-opacity:1"
         d="M 3,3 L 17,3 L 17,7 L 3,7 C 1.7791174,5.6307584 1.567515,4.2912014 3,3 z"
         id="rect4589"
         sodipodi:nodetypes="ccccc" />
      <path
         id="path4591"
         d="M 17,3 C 17,2 17,1 17,1 L 21,5 L 17,9 L 17,3 z"
         style="fill:#d4aa00;fill-opacity:1;fill-rule:evenodd;stroke:none;stroke-width:0.1;stroke-linecap:butt;stroke-linejoin:miter;stroke-miterlimit:4;stroke-dasharray:none;stroke-opacity:1" />
    </g>
    <g
       id="g5106"
       transform="matrix(-0.8728633,0,0,1.1666667,22.466881,10.833333)"
       style="fill:#a02c2c;fill-opacity:1">
      <path
         style="opacity:1;fill:#a02c2c;stroke:none;stroke-width:0.2;stroke-miterlimit:4;stroke-opacity:1"
         d="M 3,3 L 17,3 L 17,7 L 3,7 C 1.5529961,5.6666667 1.4779195,4.3333333 3,3 z"
         id="rect5108"
         sodipodi:nodetypes="ccccc" />
      <path
         style="fill:#a02c2c;fill-opacity:1;fill-rule:evenodd;stroke:none;stroke-width:0.1;stroke-linecap:butt;stroke-linejoin:miter;stroke-miterlimit:4;stroke-dasharray:none;stroke-opacity:1"
         d="M 17,3 C 17,2 17,1 17,1 L 21,5 L 17,9 L 17,3 z"
         id="path5110" />
    </g>
    <g
       transform="matrix(1.0555556,0,0,1.125,-0.1666676,-0.625)"
       style="fill:#d4aa00;fill-opacity:1;stroke:none"
       id="g5217">
      <g
         id="g5223"
         transform="matrix(0.8269231,0,0,1,2.379554,0.8888889)">
        <path
           style="opacity:1;fill:#d4aa00;stroke-width:0.2;stroke-miterlimit:4;stroke-opacity:1"
           d="M 3,3 L 17,3 L 17,7 L 3,7 C 1.7791174,5.6307584 1.567515,4.2912014 3,3 z"
           id="path5219"
           sodipodi:nodetypes="ccccc" />
        <path
           id="path5221"
           d="M 17,3 C 17,2 17,1 17,1 L 21,5 L 17,9 L 17,3 z"
           style="fill:#d4aa00;fill-opacity:1;fill-rule:evenodd;stroke:none;stroke-width:0.1;stroke-linecap:butt;stroke-linejoin:miter;stroke-miterlimit:4;stroke-dasharray:none;stroke-opacity:1" />
      </g>
      <g
         id="g5227"
         style="fill:#ffcc00">
        <path
           sodipodi:nodetypes="ccccc"
           id="path5229"
           d="M 4.8603234,3.8888889 L 16.437247,3.8888889 L 16.437247,7.8888889 L 4.8603234,7.8888889 C 3.8507473,6.5196473 3.6757684,5.1800903 4.8603234,3.8888889 z"
           style="opacity:1;fill:#ffcc00;stroke-width:0.2;stroke-miterlimit:4;stroke-opacity:1" />
        <path
           style="fill:#ffcc00;fill-opacity:1;fill-rule:evenodd;stroke:none;stroke-width:0.1;stroke-linecap:butt;stroke-linejoin:miter;stroke-miterlimit:4;stroke-dasharray:none;stroke-opacity:1"
           d="M 16.437247,3.8888889 C 16.437247,2.8888889 16.437247,1.8888889 16.437247,1.8888889 L 19.744939,5.8888889 L 16.437247,9.8888889 L 16.437247,3.8888889 z"
           id="path5231" />
      </g>
    </g>
  </g>
</svg>
