<?xml version="1.0" encoding="UTF-8" standalone="no"?>
<!-- Created with Inkscape (http://www.inkscape.org/) -->
<svg
   xmlns:dc="http://purl.org/dc/elements/1.1/"
   xmlns:cc="http://creativecommons.org/ns#"
   xmlns:rdf="http://www.w3.org/1999/02/22-rdf-syntax-ns#"
   xmlns:svg="http://www.w3.org/2000/svg"
   xmlns="http://www.w3.org/2000/svg"
   xmlns:xlink="http://www.w3.org/1999/xlink"
   xmlns:sodipodi="http://sodipodi.sourceforge.net/DTD/sodipodi-0.dtd"
   xmlns:inkscape="http://www.inkscape.org/namespaces/inkscape"
   width="744.09448819"
   height="1052.3622047"
   id="svg3724"
   sodipodi:version="0.32"
   inkscape:version="0.46"
   sodipodi:docname="sqlite_feather.svg"
   inkscape:output_extension="org.inkscape.output.svg.inkscape">
  <defs
     id="defs3726">
    <inkscape:perspective
       sodipodi:type="inkscape:persp3d"
       inkscape:vp_x="0 : 526.18109 : 1"
       inkscape:vp_y="0 : 1000 : 0"
       inkscape:vp_z="744.09448 : 526.18109 : 1"
       inkscape:persp3d-origin="372.04724 : 350.78739 : 1"
       id="perspective3732" />
    <filter
       inkscape:collect="always"
       id="filter4293">
      <feGaussianBlur
         inkscape:collect="always"
         stdDeviation="1.5373107"
         id="feGaussianBlur4295" />
    </filter>
    <inkscape:perspective
       id="perspective4358"
       inkscape:persp3d-origin="372.04724 : 350.78739 : 1"
       inkscape:vp_z="744.09448 : 526.18109 : 1"
       inkscape:vp_y="0 : 1000 : 0"
       inkscape:vp_x="0 : 526.18109 : 1"
       sodipodi:type="inkscape:persp3d" />
    <filter
       inkscape:collect="always"
       id="filter4490">
      <feGaussianBlur
         inkscape:collect="always"
         stdDeviation="1.2321017"
         id="feGaussianBlur4492" />
    </filter>
  </defs>
  <sodipodi:namedview
     id="base"
     pagecolor="#ffffff"
     bordercolor="#666666"
     borderopacity="1.0"
     gridtolerance="10000"
     guidetolerance="10"
     objecttolerance="10"
     inkscape:pageopacity="0.0"
     inkscape:pageshadow="2"
     inkscape:zoom="0.50838011"
     inkscape:cx="2.75238"
     inkscape:cy="526.18109"
     inkscape:document-units="px"
     inkscape:current-layer="layer1"
     showgrid="false"
     inkscape:window-width="1280"
     inkscape:window-height="740"
     inkscape:window-x="1676"
     inkscape:window-y="164" />
  <metadata
     id="metadata3729">
    <rdf:RDF>
      <cc:Work
         rdf:about="">
        <dc:format>image/svg+xml</dc:format>
        <dc:type
           rdf:resource="http://purl.org/dc/dcmitype/StillImage" />
      </cc:Work>
    </rdf:RDF>
  </metadata>
  <g
     inkscape:label="Layer 1"
     inkscape:groupmode="layer"
     id="layer1">
    <image
       y="314.86218"
       x="-766.35718"
       id="image4360"
       height="275"
       width="927"
       sodipodi:absref="C:\Projects\SQLiteWebSite\Tests\Test1\Images\home-panel.jpg"
       xlink:href="home-panel.jpg" />
    <g
       inkscape:export-ydpi="61.790001"
       inkscape:export-xdpi="61.790001"
       inkscape:export-filename="C:\Projects\SQLiteWebSite\Tests\Test1\Images\sqlite_compare_logo.png"
       transform="matrix(1.698367,0,0,2.5256817,1234.3904,373.59685)"
       id="g3744"
       style="opacity:0.9375;fill:#ffffff;fill-opacity:1;filter:url(#filter4490)">
      <path
         d="M -967.77598,73.808636 C -968.59067,73.058592 -969.01183,72.676489 -969.88199,71.841688 C -970.5141,71.235378 -971.09893,70.592027 -971.76478,70.012589 C -975.28957,66.945016 -979.38862,64.415553 -983.37512,61.816097 C -1003.6882,49.661573 -1025.9987,40.216341 -1048.08,30.663909 C -1065.7257,23.07109 -1083.3026,15.319067 -1101.3074,8.3528938 C -1104.6452,7.061471 -1119.8785,1.4378519 -1123.629,0.050050676 C -1134.7881,-3.9478328 -1145.9725,-7.8956746 -1157.103,-11.951444 L -1150.0768,-7.2316976 C -1139.3998,-3.6377787 -1128.7572,0.02898816 -1118.1398,3.7489909 C -1112.7234,5.7136886 -1101.446,9.7802787 -1096.2889,11.755726 C -1078.3294,18.635324 -1060.7966,26.30208 -1043.2748,33.945813 C -1015.8518,45.924646 -1044.1287,33.516863 -1017.9427,45.169083 C -1016.38,45.864437 -1014.7661,46.476774 -1013.2271,47.209459 C -1005.6098,50.836061 -998.27476,54.84375 -991.17261,59.161348 C -987.48406,61.620868 -983.55541,64.019526 -980.30974,66.925333 C -978.70616,68.36107 -978.85918,68.555644 -977.54179,69.89631 C -977.33833,70.103376 -977.09295,70.277759 -976.86853,70.468483 L -967.77598,73.808636 z"
         id="path3746"
         style="opacity:1;fill:#ffffff;fill-opacity:1;stroke:none;stroke-width:1.48000002;stroke-miterlimit:4;stroke-dasharray:none;stroke-opacity:1" />
      <path
         d="M -1014.5237,41.891639 C -1016.3961,38.424241 -1018.1813,34.944786 -1020.9771,31.916359 C -1021.8978,30.919085 -1022.9414,30.008894 -1023.9235,29.055198 C -1032.046,22.033391 -1042.0986,17.14558 -1052.2306,12.532744 C -1054.0943,11.684215 -1056.0708,11.029388 -1057.9909,10.277747 C -1064.5945,7.832171 -1071.2117,5.4128868 -1077.8354,3.0069665 L -1070.8294,7.7178524 C -1064.3462,9.9761173 -1057.8775,12.26801 -1051.478,14.694484 C -1049.5421,15.478445 -1047.6675,16.383407 -1045.6703,17.046368 C -1044.9166,17.296576 -1048.4044,15.572065 -1047.7214,15.941458 C -1042.1656,18.946425 -1036.6874,22.073845 -1032.0789,26.126128 C -1031.1228,27.037845 -1030.1036,27.904168 -1029.2105,28.861132 C -1026.558,31.70341 -1024.7784,34.981028 -1023.5116,38.425258 L -1014.5237,41.891639 z"
         id="path3748"
         style="opacity:1;fill:#ffffff;fill-opacity:1;stroke:none;stroke-width:1.48000002;stroke-miterlimit:4;stroke-dasharray:none;stroke-opacity:1" />
      <path
         d="M -1043.2896,30.993189 C -1045.6738,27.130832 -1049.5183,24.275554 -1053.2768,21.411778 C -1063.0319,14.263451 -1074.621,9.2576167 -1086.0721,4.3906503 C -1092.5269,1.7459972 -1099.1758,-0.52519569 -1105.7427,-2.9531228 L -1098.2778,2.0659296 C -1091.9062,4.2334077 -1085.5484,6.4421394 -1079.358,8.9682613 C -1077.772,9.644005 -1076.1777,10.306094 -1074.5998,10.995637 C -1072.9667,11.709294 -1071.3963,12.530659 -1069.7255,13.177641 C -1068.7894,13.540062 -1073.2022,11.315497 -1072.3889,11.85172 C -1071.0846,12.711724 -1069.606,13.361321 -1068.2444,14.154143 C -1064.6507,16.246668 -1064.8864,16.190598 -1061.7114,18.482708 C -1058.1587,21.163386 -1054.2955,23.818207 -1052.2739,27.579246 L -1043.2896,30.993189 z"
         id="path3750"
         style="opacity:1;fill:#ffffff;fill-opacity:1;stroke:none;stroke-width:1.48000002;stroke-miterlimit:4;stroke-dasharray:none;stroke-opacity:1" />
      <path
         d="M -1088.4938,14.701533 C -1090.7341,10.596957 -1094.5746,7.3339154 -1098.2367,4.138216 C -1107.0712,-3.1961515 -1117.8214,-8.3944168 -1128.7152,-13.181041 C -1132.7968,-14.823481 -1130.8644,-14.040682 -1134.5137,-15.526824 L -1127.255,-10.602916 C -1123.798,-9.2493952 -1125.631,-9.9740183 -1121.7588,-8.4245798 C -1120.5565,-7.8931362 -1118.8949,-5.8649974 -1118.152,-6.8302345 C -1117.4122,-7.7913752 -1122.6941,-9.2981295 -1121.63,-8.5919832 C -1120.3294,-7.728943 -1118.8069,-7.1394177 -1117.4384,-6.3566329 C -1113.5248,-4.1181305 -1109.9173,-1.5397952 -1106.4909,1.2132063 C -1103.0951,4.189013 -1099.3736,7.2619106 -1097.4729,11.16165 L -1088.4938,14.701533 z"
         id="path3752"
         style="opacity:1;fill:#ffffff;fill-opacity:1;stroke:none;stroke-width:1.48000002;stroke-miterlimit:4;stroke-dasharray:none;stroke-opacity:1" />
      <path
         d="M -1019.8668,45.319052 C -1023.5674,42.473288 -1027.9854,40.034249 -1032.9429,39.463527 C -1038.8065,39.303525 -1044.6838,39.450962 -1050.5514,39.477472 C -1057.3633,39.380439 -1064.1528,38.749944 -1070.7807,37.406082 C -1073.7808,36.238783 -1076.8,36.174143 -1080.0298,35.990609 C -1085.6527,35.483002 -1091.1918,34.349258 -1096.4955,32.688079 L -1089.0135,37.651352 C -1083.6325,39.100162 -1078.0992,40.188949 -1072.4902,40.744491 C -1071.4565,40.835786 -1069.3459,41.003415 -1068.2261,41.163345 C -1066.9826,41.340924 -1065.8259,41.705015 -1064.618,41.992482 C -1064.1568,42.102225 -1063.6902,42.195045 -1063.2263,42.296363 C -1056.6986,43.357551 -1050.052,43.788896 -1043.4128,43.900019 C -1037.3362,43.942144 -1031.2166,43.859492 -1025.1732,44.455997 C -1024.3648,44.608882 -1024.0171,44.642074 -1023.2606,44.90688 C -1022.9943,45.000136 -1022.2392,45.35849 -1022.4866,45.233204 C -1036.1402,38.318453 -1031.6799,40.407201 -1029.0013,42.093727 L -1019.8668,45.319052 z"
         id="path3754"
         style="opacity:1;fill:#ffffff;fill-opacity:1;stroke:none;stroke-width:1.48000002;stroke-miterlimit:4;stroke-dasharray:none;stroke-opacity:1" />
      <path
         d="M -1054.7487,27.866332 C -1062.4128,28.14886 -1070.0863,28.17152 -1077.756,28.230059 C -1086.5921,28.406258 -1095.4425,28.115232 -1104.2127,27.148318 C -1107.8627,26.745951 -1111.0034,26.21612 -1114.5955,25.653024 C -1117.5287,25.146362 -1120.4429,24.522112 -1123.1921,23.497603 C -1124.7296,22.924629 -1126.1469,22.148367 -1127.6219,21.471606 C -1129.1687,20.745531 -1130.8433,20.257897 -1132.4779,19.70083 L -1124.97,24.734989 C -1123.3415,25.294889 -1121.6989,25.83881 -1120.1718,26.586965 C -1119.6058,26.851409 -1117.8992,27.659265 -1117.2933,27.901629 C -1114.2411,29.122602 -1110.89,29.638125 -1107.5978,30.142754 C -1103.9546,30.628426 -1101.2513,31.019318 -1097.5276,31.376073 C -1088.7101,32.220825 -1079.8409,32.50132 -1070.9714,32.431886 C -1062.9103,32.491951 -1054.846,32.523399 -1046.7898,32.795614 L -1054.7487,27.866332 z"
         id="path3756"
         style="opacity:1;fill:#ffffff;fill-opacity:1;stroke:none;stroke-width:1.48000002;stroke-miterlimit:4;stroke-dasharray:none;stroke-opacity:1" />
      <path
         d="M -1094.6308,13.071072 C -1097.7214,13.143702 -1100.8257,13.348771 -1103.9183,13.214167 C -1107.237,13.069714 -1109.9933,12.680581 -1113.3027,12.293662 C -1122.3905,11.181859 -1131.1572,8.8391336 -1139.9194,6.58872 C -1143.2557,5.6419962 -1146.6084,4.7357487 -1149.9299,3.7519622 L -1142.4554,8.7034329 C -1139.2267,9.5894385 -1135.9918,10.459952 -1132.7484,11.305758 C -1124.0656,13.477027 -1115.3329,15.561715 -1106.368,16.716427 C -1102.4948,17.194459 -1100.4788,17.508465 -1096.6395,17.742288 C -1093.3119,17.944931 -1089.9675,17.856912 -1086.6377,18.021417 L -1094.6308,13.071072 z"
         id="path3758"
         style="opacity:1;fill:#ffffff;fill-opacity:1;stroke:none;stroke-width:1.48000002;stroke-miterlimit:4;stroke-dasharray:none;stroke-opacity:1" />
      <path
         d="M -987.04331,60.001285 C -990.44661,59.020353 -993.86251,58.074864 -997.25098,57.055874 C -998.36619,56.762742 -999.48676,56.48399 -1000.5966,56.176478 C -1004.9586,54.967925 -1003.9982,55.091976 -1008.6178,53.97835 C -1013.2263,52.867484 -1017.8682,51.845371 -1022.5325,50.922251 C -1031.4483,49.346993 -1040.555,48.933006 -1049.6274,48.601816 C -1053.716,48.270481 -1057.9488,48.799803 -1061.9812,47.999791 C -1062.0328,47.93072 -1062.0842,47.86165 -1062.1357,47.792579 L -1054.3516,53.075785 C -1054.2748,53.058281 -1054.198,53.040777 -1054.1214,53.023346 C -1050.2067,53.228815 -1046.283,52.998434 -1042.3651,53.132871 C -1033.3843,53.340954 -1024.3749,53.801497 -1015.5739,55.445536 C -1006.9167,57.214642 -998.36491,59.300339 -989.99086,61.886598 C -986.41725,62.997755 -982.80044,64.013041 -979.26687,65.21404 L -987.04331,60.001285 z"
         id="path3760"
         style="opacity:1;fill:#ffffff;fill-opacity:1;stroke:none;stroke-width:1.48000002;stroke-miterlimit:4;stroke-dasharray:none;stroke-opacity:1" />
      <path
         d="M -979.85638,62.313851 C -981.74496,58.952927 -984.07574,55.804009 -986.59532,52.76585 C -989.91648,48.88519 -994.43975,45.978563 -998.8319,43.04223 C -1003.3465,39.992814 -1007.6844,36.759863 -1011.4802,33.057 C -1014.0309,30.568718 -1014.2912,30.161412 -1016.5095,27.593746 C -1018.7615,24.6946 -1020.9399,21.715416 -1022.5351,18.50665 L -1031.2606,15.096847 C -1029.4862,18.430535 -1027.117,21.513216 -1024.7536,24.560018 C -1022.2025,27.48226 -1019.598,30.366372 -1016.626,32.994103 C -1013.7153,35.567579 -1010.4745,37.852208 -1007.2792,40.158118 C -1002.9886,43.061114 -998.53224,45.904118 -995.13747,49.609886 C -992.67258,52.492328 -990.37376,55.486618 -988.8029,58.809339 L -979.85638,62.313851 z"
         id="path3762"
         style="opacity:1;fill:#ffffff;fill-opacity:1;stroke:none;stroke-width:1.48000002;stroke-miterlimit:4;stroke-dasharray:none;stroke-opacity:1" />
    </g>
    <g
       id="g3593"
       transform="matrix(1.6865715,0,0,2.3655123,1218.522,377.5486)"
       inkscape:export-filename="C:\Projects\SQLiteWebSite\Tests\Test1\Images\sqlite_compare_logo.png"
       inkscape:export-xdpi="61.790001"
       inkscape:export-ydpi="61.790001">
      <path
         style="opacity:1;fill:#f1ab10;fill-opacity:1;stroke:none;stroke-width:1.48000002;stroke-miterlimit:4;stroke-dasharray:none;stroke-opacity:1"
         id="path3453"
         d="M -967.77598,73.808636 C -968.59067,73.058592 -969.01183,72.676489 -969.88199,71.841688 C -970.5141,71.235378 -971.09893,70.592027 -971.76478,70.012589 C -975.28957,66.945016 -979.38862,64.415553 -983.37512,61.816097 C -1003.6882,49.661573 -1025.9987,40.216341 -1048.08,30.663909 C -1065.7257,23.07109 -1083.3026,15.319067 -1101.3074,8.3528938 C -1104.6452,7.061471 -1119.8785,1.4378519 -1123.629,0.050050676 C -1134.7881,-3.9478328 -1145.9725,-7.8956746 -1157.103,-11.951444 L -1150.0768,-7.2316976 C -1139.3998,-3.6377787 -1128.7572,0.02898816 -1118.1398,3.7489909 C -1112.7234,5.7136886 -1101.446,9.7802787 -1096.2889,11.755726 C -1078.3294,18.635324 -1060.7966,26.30208 -1043.2748,33.945813 C -1015.8518,45.924646 -1044.1287,33.516863 -1017.9427,45.169083 C -1016.38,45.864437 -1014.7661,46.476774 -1013.2271,47.209459 C -1005.6098,50.836061 -998.27476,54.84375 -991.17261,59.161348 C -987.48406,61.620868 -983.55541,64.019526 -980.30974,66.925333 C -978.70616,68.36107 -978.85918,68.555644 -977.54179,69.89631 C -977.33833,70.103376 -977.09295,70.277759 -976.86853,70.468483 L -967.77598,73.808636 z" />
      <path
         style="opacity:1;fill:#f1ab10;fill-opacity:1;stroke:none;stroke-width:1.48000002;stroke-miterlimit:4;stroke-dasharray:none;stroke-opacity:1"
         id="path3455"
         d="M -1014.5237,41.891639 C -1016.3961,38.424241 -1018.1813,34.944786 -1020.9771,31.916359 C -1021.8978,30.919085 -1022.9414,30.008894 -1023.9235,29.055198 C -1032.046,22.033391 -1042.0986,17.14558 -1052.2306,12.532744 C -1054.0943,11.684215 -1056.0708,11.029388 -1057.9909,10.277747 C -1064.5945,7.832171 -1071.2117,5.4128868 -1077.8354,3.0069665 L -1070.8294,7.7178524 C -1064.3462,9.9761173 -1057.8775,12.26801 -1051.478,14.694484 C -1049.5421,15.478445 -1047.6675,16.383407 -1045.6703,17.046368 C -1044.9166,17.296576 -1048.4044,15.572065 -1047.7214,15.941458 C -1042.1656,18.946425 -1036.6874,22.073845 -1032.0789,26.126128 C -1031.1228,27.037845 -1030.1036,27.904168 -1029.2105,28.861132 C -1026.558,31.70341 -1024.7784,34.981028 -1023.5116,38.425258 L -1014.5237,41.891639 z" />
      <path
         style="opacity:1;fill:#f1ab10;fill-opacity:1;stroke:none;stroke-width:1.48000002;stroke-miterlimit:4;stroke-dasharray:none;stroke-opacity:1"
         id="path3457"
         d="M -1043.2896,30.993189 C -1045.6738,27.130832 -1049.5183,24.275554 -1053.2768,21.411778 C -1063.0319,14.263451 -1074.621,9.2576167 -1086.0721,4.3906503 C -1092.5269,1.7459972 -1099.1758,-0.52519569 -1105.7427,-2.9531228 L -1098.2778,2.0659296 C -1091.9062,4.2334077 -1085.5484,6.4421394 -1079.358,8.9682613 C -1077.772,9.644005 -1076.1777,10.306094 -1074.5998,10.995637 C -1072.9667,11.709294 -1071.3963,12.530659 -1069.7255,13.177641 C -1068.7894,13.540062 -1073.2022,11.315497 -1072.3889,11.85172 C -1071.0846,12.711724 -1069.606,13.361321 -1068.2444,14.154143 C -1064.6507,16.246668 -1064.8864,16.190598 -1061.7114,18.482708 C -1058.1587,21.163386 -1054.2955,23.818207 -1052.2739,27.579246 L -1043.2896,30.993189 z" />
      <path
         style="opacity:1;fill:#f1ab10;fill-opacity:1;stroke:none;stroke-width:1.48000002;stroke-miterlimit:4;stroke-dasharray:none;stroke-opacity:1"
         id="path3459"
         d="M -1088.4938,14.701533 C -1090.7341,10.596957 -1094.5746,7.3339154 -1098.2367,4.138216 C -1107.0712,-3.1961515 -1117.8214,-8.3944168 -1128.7152,-13.181041 C -1132.7968,-14.823481 -1130.8644,-14.040682 -1134.5137,-15.526824 L -1127.255,-10.602916 C -1123.798,-9.2493952 -1125.631,-9.9740183 -1121.7588,-8.4245798 C -1120.5565,-7.8931362 -1118.8949,-5.8649974 -1118.152,-6.8302345 C -1117.4122,-7.7913752 -1122.6941,-9.2981295 -1121.63,-8.5919832 C -1120.3294,-7.728943 -1118.8069,-7.1394177 -1117.4384,-6.3566329 C -1113.5248,-4.1181305 -1109.9173,-1.5397952 -1106.4909,1.2132063 C -1103.0951,4.189013 -1099.3736,7.2619106 -1097.4729,11.16165 L -1088.4938,14.701533 z" />
      <path
         style="opacity:1;fill:#f1ab10;fill-opacity:1;stroke:none;stroke-width:1.48000002;stroke-miterlimit:4;stroke-dasharray:none;stroke-opacity:1"
         id="path3461"
         d="M -1019.8668,45.319052 C -1023.5674,42.473288 -1027.9854,40.034249 -1032.9429,39.463527 C -1038.8065,39.303525 -1044.6838,39.450962 -1050.5514,39.477472 C -1057.3633,39.380439 -1064.1528,38.749944 -1070.7807,37.406082 C -1073.7808,36.238783 -1076.8,36.174143 -1080.0298,35.990609 C -1085.6527,35.483002 -1091.1918,34.349258 -1096.4955,32.688079 L -1089.0135,37.651352 C -1083.6325,39.100162 -1078.0992,40.188949 -1072.4902,40.744491 C -1071.4565,40.835786 -1069.3459,41.003415 -1068.2261,41.163345 C -1066.9826,41.340924 -1065.8259,41.705015 -1064.618,41.992482 C -1064.1568,42.102225 -1063.6902,42.195045 -1063.2263,42.296363 C -1056.6986,43.357551 -1050.052,43.788896 -1043.4128,43.900019 C -1037.3362,43.942144 -1031.2166,43.859492 -1025.1732,44.455997 C -1024.3648,44.608882 -1024.0171,44.642074 -1023.2606,44.90688 C -1022.9943,45.000136 -1022.2392,45.35849 -1022.4866,45.233204 C -1036.1402,38.318453 -1031.6799,40.407201 -1029.0013,42.093727 L -1019.8668,45.319052 z" />
      <path
         style="opacity:1;fill:#f1ab10;fill-opacity:1;stroke:none;stroke-width:1.48000002;stroke-miterlimit:4;stroke-dasharray:none;stroke-opacity:1"
         id="path3463"
         d="M -1054.7487,27.866332 C -1062.4128,28.14886 -1070.0863,28.17152 -1077.756,28.230059 C -1086.5921,28.406258 -1095.4425,28.115232 -1104.2127,27.148318 C -1107.8627,26.745951 -1111.0034,26.21612 -1114.5955,25.653024 C -1117.5287,25.146362 -1120.4429,24.522112 -1123.1921,23.497603 C -1124.7296,22.924629 -1126.1469,22.148367 -1127.6219,21.471606 C -1129.1687,20.745531 -1130.8433,20.257897 -1132.4779,19.70083 L -1124.97,24.734989 C -1123.3415,25.294889 -1121.6989,25.83881 -1120.1718,26.586965 C -1119.6058,26.851409 -1117.8992,27.659265 -1117.2933,27.901629 C -1114.2411,29.122602 -1110.89,29.638125 -1107.5978,30.142754 C -1103.9546,30.628426 -1101.2513,31.019318 -1097.5276,31.376073 C -1088.7101,32.220825 -1079.8409,32.50132 -1070.9714,32.431886 C -1062.9103,32.491951 -1054.846,32.523399 -1046.7898,32.795614 L -1054.7487,27.866332 z" />
      <path
         style="opacity:1;fill:#f1ab10;fill-opacity:1;stroke:none;stroke-width:1.48000002;stroke-miterlimit:4;stroke-dasharray:none;stroke-opacity:1"
         id="path3465"
         d="M -1094.6308,13.071072 C -1097.7214,13.143702 -1100.8257,13.348771 -1103.9183,13.214167 C -1107.237,13.069714 -1109.9933,12.680581 -1113.3027,12.293662 C -1122.3905,11.181859 -1131.1572,8.8391336 -1139.9194,6.58872 C -1143.2557,5.6419962 -1146.6084,4.7357487 -1149.9299,3.7519622 L -1142.4554,8.7034329 C -1139.2267,9.5894385 -1135.9918,10.459952 -1132.7484,11.305758 C -1124.0656,13.477027 -1115.3329,15.561715 -1106.368,16.716427 C -1102.4948,17.194459 -1100.4788,17.508465 -1096.6395,17.742288 C -1093.3119,17.944931 -1089.9675,17.856912 -1086.6377,18.021417 L -1094.6308,13.071072 z" />
      <path
         style="opacity:1;fill:#f1ab10;fill-opacity:1;stroke:none;stroke-width:1.48000002;stroke-miterlimit:4;stroke-dasharray:none;stroke-opacity:1"
         id="path3467"
         d="M -987.04331,60.001285 C -990.44661,59.020353 -993.86251,58.074864 -997.25098,57.055874 C -998.36619,56.762742 -999.48676,56.48399 -1000.5966,56.176478 C -1004.9586,54.967925 -1003.9982,55.091976 -1008.6178,53.97835 C -1013.2263,52.867484 -1017.8682,51.845371 -1022.5325,50.922251 C -1031.4483,49.346993 -1040.555,48.933006 -1049.6274,48.601816 C -1053.716,48.270481 -1057.9488,48.799803 -1061.9812,47.999791 C -1062.0328,47.93072 -1062.0842,47.86165 -1062.1357,47.792579 L -1054.3516,53.075785 C -1054.2748,53.058281 -1054.198,53.040777 -1054.1214,53.023346 C -1050.2067,53.228815 -1046.283,52.998434 -1042.3651,53.132871 C -1033.3843,53.340954 -1024.3749,53.801497 -1015.5739,55.445536 C -1006.9167,57.214642 -998.36491,59.300339 -989.99086,61.886598 C -986.41725,62.997755 -982.80044,64.013041 -979.26687,65.21404 L -987.04331,60.001285 z" />
      <path
         style="opacity:1;fill:#f1ab10;fill-opacity:1;stroke:none;stroke-width:1.48000002;stroke-miterlimit:4;stroke-dasharray:none;stroke-opacity:1"
         id="path3469"
         d="M -979.85638,62.313851 C -981.74496,58.952927 -984.07574,55.804009 -986.59532,52.76585 C -989.91648,48.88519 -994.43975,45.978563 -998.8319,43.04223 C -1003.3465,39.992814 -1007.6844,36.759863 -1011.4802,33.057 C -1014.0309,30.568718 -1014.2912,30.161412 -1016.5095,27.593746 C -1018.7615,24.6946 -1020.9399,21.715416 -1022.5351,18.50665 L -1031.2606,15.096847 C -1029.4862,18.430535 -1027.117,21.513216 -1024.7536,24.560018 C -1022.2025,27.48226 -1019.598,30.366372 -1016.626,32.994103 C -1013.7153,35.567579 -1010.4745,37.852208 -1007.2792,40.158118 C -1002.9886,43.061114 -998.53224,45.904118 -995.13747,49.609886 C -992.67258,52.492328 -990.37376,55.486618 -988.8029,58.809339 L -979.85638,62.313851 z" />
    </g>
  </g>
</svg>
