<?xml version="1.0" encoding="UTF-8" standalone="no"?>
<!-- Created with Inkscape (http://www.inkscape.org/) -->
<svg
   xmlns:dc="http://purl.org/dc/elements/1.1/"
   xmlns:cc="http://creativecommons.org/ns#"
   xmlns:rdf="http://www.w3.org/1999/02/22-rdf-syntax-ns#"
   xmlns:svg="http://www.w3.org/2000/svg"
   xmlns="http://www.w3.org/2000/svg"
   xmlns:sodipodi="http://sodipodi.sourceforge.net/DTD/sodipodi-0.dtd"
   xmlns:inkscape="http://www.inkscape.org/namespaces/inkscape"
   width="764.11414"
   height="350.1192"
   id="svg3247"
   sodipodi:version="0.32"
   inkscape:version="0.46"
   version="1.0"
   sodipodi:docname="sqlite_compare_logo.svg"
   inkscape:output_extension="org.inkscape.output.svg.inkscape"
   inkscape:export-filename="C:\Projects\SQLiteWebSite\Tests\Test1\Images\sqlite_compare_logo.png"
   inkscape:export-xdpi="13.28"
   inkscape:export-ydpi="13.28">
  <defs
     id="defs3249">
    <inkscape:perspective
       sodipodi:type="inkscape:persp3d"
       inkscape:vp_x="0 : 526.18109 : 1"
       inkscape:vp_y="0 : 1000 : 0"
       inkscape:vp_z="744.09448 : 526.18109 : 1"
       inkscape:persp3d-origin="372.04724 : 350.78739 : 1"
       id="perspective3255" />
  </defs>
  <sodipodi:namedview
     id="base"
     pagecolor="#ffffff"
     bordercolor="#666666"
     borderopacity="1.0"
     gridtolerance="10000"
     guidetolerance="10"
     objecttolerance="10"
     inkscape:pageopacity="0.0"
     inkscape:pageshadow="2"
     inkscape:zoom="0.86978404"
     inkscape:cx="524.3645"
     inkscape:cy="192.01057"
     inkscape:document-units="px"
     inkscape:current-layer="layer1"
     showgrid="false"
     inkscape:window-width="1680"
     inkscape:window-height="1024"
     inkscape:window-x="-4"
     inkscape:window-y="164" />
  <metadata
     id="metadata3252">
    <rdf:RDF>
      <cc:Work
         rdf:about="">
        <dc:format>image/svg+xml</dc:format>
        <dc:type
           rdf:resource="http://purl.org/dc/dcmitype/StillImage" />
      </cc:Work>
    </rdf:RDF>
  </metadata>
  <g
     inkscape:label="Layer 1"
     inkscape:groupmode="layer"
     id="layer1"
     transform="translate(-205.47038,-716.45014)">
    <text
       xml:space="preserve"
       style="font-size:72px;font-style:normal;font-variant:normal;font-weight:normal;font-stretch:normal;fill:#000000;fill-opacity:1;stroke:none;stroke-width:1px;stroke-linecap:butt;stroke-linejoin:miter;stroke-opacity:1;font-family:Bauhaus 93;-inkscape-font-specification:'Bauhaus 93,'"
       x="143.91278"
       y="457.43704"
       id="text3258"><tspan
         sodipodi:role="line"
         id="tspan3260"
         x="143.91278"
         y="457.43704" /></text>
    <text
       xml:space="preserve"
       style="font-size:72px;font-style:normal;font-variant:normal;font-weight:normal;font-stretch:normal;fill:#000000;fill-opacity:1;stroke:none;stroke-width:1px;stroke-linecap:butt;stroke-linejoin:miter;stroke-opacity:1;font-family:Bauhaus 93;-inkscape-font-specification:'Bauhaus 93,'"
       x="155.4772"
       y="434.3082"
       id="text3262"><tspan
         sodipodi:role="line"
         x="155.4772"
         y="434.3082"
         id="tspan3266" /></text>
    <path
       style="opacity:1;fill:#d4aa00;stroke:none;stroke-width:4.48199987;stroke-miterlimit:4;stroke-dasharray:none;stroke-opacity:1"
       d="M 206.12968,1031.8177 C 206.78488,1014.1508 206.95118,1013.8193 232.39378,979.46419 C 246.47638,960.44846 262.55008,939.68848 268.11308,933.33087 C 275.41338,924.98777 276.66648,922.39954 272.61668,924.02843 C 265.86178,926.74537 262.58188,917.69802 267.41088,909.66871 C 270.92288,903.82929 283.69398,902.78863 285.85298,908.16592 C 286.61478,910.06327 299.93788,900.05229 315.46008,885.91926 C 344.24803,859.70758 383.84264,830.13105 406.25494,818.09697 C 413.1177,814.41208 416.79244,811.28049 414.42107,811.13789 C 411.54836,810.96516 410.17037,808.02576 410.29198,802.33 C 410.42155,796.26122 414.16512,789.87388 423.19698,780.31133 C 430.19435,772.90279 434.89344,766.31839 433.63944,765.67929 C 432.38543,765.0402 424.78927,767.74459 416.7591,771.68902 C 398.19732,780.80659 391.63208,780.62241 394.83813,775.10646 C 405.92809,756.02635 464.27363,729.60633 462.44701,744.49303 C 461.22864,754.42256 464.51101,763.29139 447.77035,780.11474 C 438.75766,789.17193 428.53704,799.92291 425.05783,804.00582 L 418.73199,811.42926 L 424.95179,808.97233 C 446.15276,800.5976 443.92433,811.06237 420.83902,828.28615 C 408.79762,837.27015 403.45665,842.72448 407.47257,841.93632 C 416.03031,840.25675 418.81677,849.38448 411.00256,853.49965 C 359.17646,880.79264 314.25308,924.36374 271.19388,989.09978 C 240.46048,1035.3052 226.77678,1050.0519 214.87178,1049.7978 L 205.47038,1049.597 L 206.12968,1031.8177 z M 294.05308,966.96319 C 293.17708,963.34499 294.43478,959.21339 297.29638,956.30799 C 311.21798,951.56826 317.83918,953.85467 333.25478,944.20244 C 344.95418,936.40641 360.6903,927.30039 368.22396,923.96683 C 375.75762,920.63327 379.98153,917.77789 377.61044,917.62152 C 371.27779,917.20393 372.39737,913.10046 381.6251,902.90701 C 392.08504,891.3524 399.85567,885.61827 412.32875,880.25 C 419.01933,877.37044 420.46877,875.84632 416.74504,875.60616 C 412.89936,875.35814 411.24879,873.0604 411.35465,868.10231 C 411.49027,861.74997 413.1511,860.99102 426.30209,861.27181 C 437.70569,861.51527 441.1228,860.37815 441.20964,856.31099 C 441.4686,844.18168 491.30715,801.05208 519.57264,788.49668 C 524.61129,786.25853 535.523,778.33538 543.8209,770.88972 C 555.37114,760.5257 559.14373,755.05935 559.91379,747.57174 C 561.66328,730.56042 567.18789,733.06463 566.81141,750.6983 C 566.36591,771.5644 558.82692,781.2405 531.51481,796.00056 C 519.96286,802.2435 496.00749,819.40434 478.28067,834.13576 C 449.59793,857.97185 446.74061,861.18813 452.32312,863.3545 C 461.27919,866.83002 459.30205,880.38438 449.24265,884.47294 C 430.34341,892.15442 383.14695,915.06471 383.8922,916.1956 C 384.35012,916.89042 388.56136,915.95967 393.25052,914.12726 C 397.93968,912.29486 406.77234,911.11404 412.87866,911.50325 L 410.93912,913.92403 C 392.33383,918.78688 377.69438,935.53401 349.71983,954.87559 C 330.56238,968.83336 301.96978,975.93757 294.05308,966.96319 z M 248.36288,901.95522 C 244.41318,897.77132 243.07808,892.68079 243.29288,882.62318 C 243.62748,866.94855 246.41118,862.84229 258.68008,859.92473 C 269.78538,857.28388 301.15508,836.61228 305.79918,828.87477 C 311.56508,819.26824 325.98148,822.6872 325.74838,833.60589 C 325.54768,843.00346 306.37248,885.52236 302.37348,885.43699 C 296.40968,885.30965 296.95088,869.18297 303.31648,857.338 L 309.19228,846.40449 L 302.47798,853.73598 C 298.78518,857.7683 287.59438,864.57553 277.60948,868.86318 C 267.62468,873.15083 258.44828,877.89683 257.21748,879.40986 C 255.98668,880.9229 257.99698,886.09074 261.68478,890.89395 C 265.56088,895.94251 267.60408,901.36557 266.52748,903.74763 C 263.89768,909.56623 254.69018,908.65766 248.36288,901.95522 z M 339.30388,853.45631 C 336.59138,849.34037 338.00078,836.49045 341.95388,829.29542 C 347.87835,818.51257 346.51735,815.99425 338.04598,822.0643 C 332.41108,826.10192 329.51808,826.55689 327.63618,823.70138 C 321.99908,815.14766 364.27214,777.72662 379.21174,778.04559 C 391.45504,778.30698 390.39889,787.92746 376.24084,805.10736 C 369.19805,813.65333 359.85427,828.60362 355.47687,838.3302 C 348.07808,854.77026 343.18548,859.3462 339.30388,853.45631 z M 449.92025,794.96391 C 450.03261,789.70169 453.96247,786.29624 466.88596,780.26215 C 476.13669,775.9429 486.73786,770.7446 490.44412,768.71033 C 494.75062,766.34662 499.00299,766.2445 502.2259,768.42737 C 506.55433,771.35903 504.16167,773.72769 485.34159,785.14225 C 457.33899,802.12607 449.72224,804.23806 449.92025,794.96391 z M 462.34314,737.12625 C 460.14382,731.64834 464.73772,724.43625 473.68303,719.32351 C 484.04185,713.40282 524.2248,717.2391 536.279,725.29956 C 541.50085,728.7913 545.13352,732.53415 544.35162,733.61697 C 543.56974,734.6998 528.66707,735.78254 511.23455,736.02306 C 493.80206,736.26358 476.04283,737.53877 471.76959,738.85678 C 466.8128,740.38563 463.40023,739.75914 462.34314,737.12625 z"
       id="path3225"
       sodipodi:nodetypes="cssssssssssssssscccssssccccccsssssssssssssssssscccccssssscccssssccssssssccssssccsssssc" />
    <text
       id="text3274"
       y="1040.624"
       x="378.32669"
       style="font-size:72px;font-style:normal;font-variant:normal;font-weight:normal;font-stretch:normal;fill:#aa4400;fill-opacity:1;stroke:none;stroke-width:1px;stroke-linecap:butt;stroke-linejoin:miter;stroke-opacity:1;font-family:Bauhaus 93;-inkscape-font-specification:'Bauhaus 93,'"
       xml:space="preserve"><tspan
         y="1040.624"
         x="378.32669"
         id="tspan3276"
         sodipodi:role="line"
         style="font-size:144px;fill:#aa4400">Compare</tspan></text>
    <text
       xml:space="preserve"
       style="font-size:72px;font-style:normal;font-variant:normal;font-weight:normal;font-stretch:normal;fill:#aa4400;fill-opacity:1;stroke:none;stroke-width:1px;stroke-linecap:butt;stroke-linejoin:miter;stroke-opacity:1;font-family:Bauhaus 93;-inkscape-font-specification:'Bauhaus 93,'"
       x="583.51324"
       y="916.23743"
       id="text3270"><tspan
         sodipodi:role="line"
         id="tspan3272"
         x="583.51324"
         y="916.23743"
         style="font-size:144px;fill:#aa4400">SQLite</tspan></text>
  </g>
</svg>
