<?xml version="1.0" encoding="UTF-8" standalone="no"?>
<!-- Created with Inkscape (http://www.inkscape.org/) -->
<svg
   xmlns:dc="http://purl.org/dc/elements/1.1/"
   xmlns:cc="http://creativecommons.org/ns#"
   xmlns:rdf="http://www.w3.org/1999/02/22-rdf-syntax-ns#"
   xmlns:svg="http://www.w3.org/2000/svg"
   xmlns="http://www.w3.org/2000/svg"
   xmlns:sodipodi="http://sodipodi.sourceforge.net/DTD/sodipodi-0.dtd"
   xmlns:inkscape="http://www.inkscape.org/namespaces/inkscape"
   width="68.814415"
   height="99.718277"
   id="svg4514"
   sodipodi:version="0.32"
   inkscape:version="0.46"
   version="1.0"
   sodipodi:docname="v_bullet.svg"
   inkscape:output_extension="org.inkscape.output.svg.inkscape">
  <defs
     id="defs4516">
    <inkscape:perspective
       sodipodi:type="inkscape:persp3d"
       inkscape:vp_x="0 : 526.18109 : 1"
       inkscape:vp_y="0 : 1000 : 0"
       inkscape:vp_z="744.09448 : 526.18109 : 1"
       inkscape:persp3d-origin="372.04724 : 350.78739 : 1"
       id="perspective4522" />
  </defs>
  <sodipodi:namedview
     id="base"
     pagecolor="#ffffff"
     bordercolor="#666666"
     borderopacity="1.0"
     gridtolerance="10000"
     guidetolerance="10"
     objecttolerance="10"
     inkscape:pageopacity="0.0"
     inkscape:pageshadow="2"
     inkscape:zoom="2.1616813"
     inkscape:cx="97.218482"
     inkscape:cy="20.571194"
     inkscape:document-units="px"
     inkscape:current-layer="layer1"
     showgrid="false"
     inkscape:window-width="640"
     inkscape:window-height="667"
     inkscape:window-x="394"
     inkscape:window-y="301" />
  <metadata
     id="metadata4519">
    <rdf:RDF>
      <cc:Work
         rdf:about="">
        <dc:format>image/svg+xml</dc:format>
        <dc:type
           rdf:resource="http://purl.org/dc/dcmitype/StillImage" />
      </cc:Work>
    </rdf:RDF>
  </metadata>
  <g
     inkscape:label="Layer 1"
     inkscape:groupmode="layer"
     id="layer1"
     transform="translate(-197.97976,-196.6335)">
    <path
       style="opacity:0.9375;fill:#677821;fill-opacity:1;stroke:none;stroke-width:1.48000002;stroke-miterlimit:4;stroke-dasharray:none;stroke-opacity:1"
       id="path4624"
       d="M 21.547186,51.935909 C 23.845862,55.62499 26.134562,59.315309 28.287857,63.092891 C 31.675376,69.170255 34.255295,75.605353 37.004374,81.97601 C 37.608781,83.29056 38.125009,84.542877 38.8838,85.770552 C 39.095047,86.112334 39.309322,86.463041 39.601071,86.739307 C 39.743815,86.874476 40.320989,86.876461 40.145726,86.965509 C 21.490485,96.44389 18.938746,99.589026 24.703618,93.417119 C 25.389491,92.22561 26.121153,91.059313 26.761237,89.842593 C 30.294099,83.127055 33.109286,76.052913 35.816784,68.975407 C 38.734333,61.348819 40.024117,57.552448 42.768766,49.806346 C 43.808887,46.637106 44.917228,43.489447 45.889128,40.298625 C 46.965839,36.422055 49.093256,28.650386 50.321163,24.636442 C 51.304148,21.423133 52.9691,16.477292 54.197099,13.237516 C 54.724843,11.845191 55.318556,10.478774 55.879285,9.0994022 C 57.606104,5.1860656 56.769391,6.9874552 58.361721,3.682452 L 73.615673,-2.98855 C 70.467767,0.80798522 72.08049,-1.2635627 68.831117,3.2674636 C 67.870543,4.7993638 66.852597,6.2967525 65.949394,7.8631641 C 62.217851,14.334722 59.156672,21.180089 56.377801,28.103884 C 55.198082,31.043256 54.041032,33.992869 52.968823,36.973141 C 51.832015,40.132966 50.824412,43.337794 49.752206,46.52012 C 48.823935,49.674281 47.837412,52.81188 46.967392,55.982603 C 44.536777,64.840791 42.421206,73.902011 41.330143,83.036197 C 41.215993,83.991843 41.171389,84.954519 41.092011,85.91368 C 41.414782,94.249525 41.70558,88.322842 23.204179,96.715415 C 22.928647,96.840401 23.136314,96.113875 23.117326,95.811917 C 23.007055,94.058269 23.152304,94.511105 22.837607,92.498927 C 22.708945,91.676263 22.528338,90.862568 22.373703,90.044389 C 22.131238,89.089387 21.917562,88.12661 21.646306,87.179384 C 20.031466,81.540359 17.646723,76.110713 14.309583,71.274394 C 12.418297,68.784241 10.8506,66.753855 8.3791765,64.798547 C 7.5904316,64.174518 6.5220699,63.441996 5.540965,63.079862 C 5.3063328,62.993257 5.0478271,62.996043 4.8012582,62.954134 L 21.547186,51.935909 z"
       transform="translate(193.1785,199.62205)"
       inkscape:export-xdpi="23.41"
       inkscape:export-ydpi="23.41"
       inkscape:export-filename="C:\Projects\SQLiteWebSite\Tests\Test1\Images\v_bullet.png" />
  </g>
</svg>
